<?xml version="1.0" encoding="utf-8"?>
<!-- Generator: Adobe Illustrator 27.2.0, SVG Export Plug-In . SVG Version: 6.00 Build 0)  -->
<svg version="1.1" id="Layer_1" xmlns="http://www.w3.org/2000/svg" xmlns:xlink="http://www.w3.org/1999/xlink" x="0px" y="0px"
	 viewBox="0 0 864 792" style="enable-background:new 0 0 864 792;" xml:space="preserve">
<style type="text/css">
	.st0{fill:#AC4979;}
	.st1{clip-path:url(#SVGID_00000032619606377875387570000008175159985455912371_);}
	.st2{clip-path:url(#SVGID_00000093870204509321657420000005232623569897175710_);}
	.st3{fill:url(#SVGID_00000057118964940728982510000005920137326471390125_);}
	.st4{fill:url(#SVGID_00000080176213741002530700000015750144905064114851_);}
	.st5{fill:url(#SVGID_00000108308195771316617260000001371098003049891216_);}
	.st6{fill:url(#SVGID_00000082351333596415992160000000719002914003233174_);}
	.st7{fill:url(#SVGID_00000158718005562533775250000017469668439530668163_);}
	.st8{fill:#FFCE66;}
	.st9{fill:url(#SVGID_00000051345145731433977160000013866362962237500331_);}
	.st10{fill:url(#SVGID_00000060008602187834002220000007131233578327867298_);}
	.st11{fill:url(#SVGID_00000026149538783779511860000010406178121697138343_);}
	.st12{fill:url(#SVGID_00000127746422144696431960000012708515210463421064_);}
	.st13{fill:url(#SVGID_00000127736102848944586190000006802561939831547294_);}
	.st14{fill:url(#SVGID_00000118381291785509536760000012890186717403326899_);}
	.st15{fill:url(#SVGID_00000101824230902619793920000010938826583247211906_);}
	.st16{fill:url(#SVGID_00000112597902953620448760000000860901365811517330_);}
</style>
<rect class="st0" width="864" height="792"/>
<image style="overflow:visible;opacity:0.68;enable-background:new    ;" width="621" height="804" xlink:href="C84DCDC6875DF60.png"  transform="matrix(1.3913 0 0 0.9816 0 0.1556)">
</image>
<image style="overflow:visible;opacity:0.74;enable-background:new    ;" width="799" height="803" xlink:href="C84DCDC6875DF61.png"  transform="matrix(0.7671 0 0 0.7671 126 176.9258)">
</image>
<g>
	<g>
		<defs>
			<path id="SVGID_1_" d="M536.9,331.6c45.6-12.9,185.5,8.8,185.6,74c0,36.8-138.2,79.8-153.5,95.2c-15.3,15.3-23.8,16.4-38.5,9.2
				c-14.7,37.9-149.4,119.3-149.4,44.5c-48.8,26.6-160-78.3-127.3-137.6c-21.3-3.3-35.8-25.6-37.9-39.9
				c-2.1-14.3-94.2-128.9-69.6-162.7s131,1,143.3,6.1c12.3,5.1,146.8,38.6,196.4,97.2c7.5,7.9,17.3,14.8,17.3,14.8
				S535.7,332,536.9,331.6L536.9,331.6z"/>
		</defs>
		<clipPath id="SVGID_00000103966564434226476100000014563813301037181354_">
			<use xlink:href="#SVGID_1_"  style="overflow:visible;"/>
		</clipPath>
		<g style="clip-path:url(#SVGID_00000103966564434226476100000014563813301037181354_);">
			<g>
				<defs>
					<rect id="SVGID_00000112618255530182667880000014110540935791190441_" x="137.2" y="194.7" width="590.3" height="395.4"/>
				</defs>
				<clipPath id="SVGID_00000041288508312685671570000016712182811980673682_">
					<use xlink:href="#SVGID_00000112618255530182667880000014110540935791190441_"  style="overflow:visible;"/>
				</clipPath>
				<g style="clip-path:url(#SVGID_00000041288508312685671570000016712182811980673682_);">
					
						<image style="overflow:visible;enable-background:new    ;" width="1229" height="824" xlink:href="C84DCDC6875DF67.png"  transform="matrix(0.4806 0 0 0.4806 137.162 194.4)">
					</image>
				</g>
			</g>
		</g>
	</g>
	
		<linearGradient id="SVGID_00000156546854663765518160000006094097597319980451_" gradientUnits="userSpaceOnUse" x1="320.5378" y1="525.0172" x2="343.6554" y2="511.6628" gradientTransform="matrix(1 0 0 -1 0 791)">
		<stop  offset="0" style="stop-color:#FFCE66"/>
		<stop  offset="0.14" style="stop-color:#C9B668"/>
		<stop  offset="0.31" style="stop-color:#8D9B6A"/>
		<stop  offset="0.48" style="stop-color:#5A856D"/>
		<stop  offset="0.64" style="stop-color:#33736E"/>
		<stop  offset="0.78" style="stop-color:#176770"/>
		<stop  offset="0.91" style="stop-color:#065F70"/>
		<stop  offset="1" style="stop-color:#005D71"/>
	</linearGradient>
	<path style="fill:url(#SVGID_00000156546854663765518160000006094097597319980451_);" d="M335.2,261c12.1,2.5,14,21.9,0,24
		c-14,2.1-16.6-13.9-15.7-17C320.6,264.1,332.1,258.1,335.2,261z"/>
	
		<linearGradient id="SVGID_00000090265590045022461390000016911343369530922143_" gradientUnits="userSpaceOnUse" x1="606.3639" y1="427.5" x2="619.0936" y2="420.1501" gradientTransform="matrix(1 0 0 -1 0 791)">
		<stop  offset="0" style="stop-color:#005D71"/>
		<stop  offset="0.1" style="stop-color:#055F70"/>
		<stop  offset="0.22" style="stop-color:#166670"/>
		<stop  offset="0.36" style="stop-color:#31726E"/>
		<stop  offset="0.51" style="stop-color:#56836D"/>
		<stop  offset="0.67" style="stop-color:#87986B"/>
		<stop  offset="0.84" style="stop-color:#C1B268"/>
		<stop  offset="1" style="stop-color:#FFCE66"/>
	</linearGradient>
	<path style="fill:url(#SVGID_00000090265590045022461390000016911343369530922143_);" d="M602.2,373c-1.5-3.7,11.4-19.2,17.3-13.5
		c5.9,5.7-1.5,12.8-4.8,14.3C610.9,375.5,604.5,374.2,602.2,373z"/>
	
		<linearGradient id="SVGID_00000116913931741270392260000017649835686263482806_" gradientUnits="userSpaceOnUse" x1="488.7" y1="410.2654" x2="565.8087" y2="276.7104" gradientTransform="matrix(1 0 0 -1 0 791)">
		<stop  offset="0" style="stop-color:#005D71"/>
		<stop  offset="3.000000e-02" style="stop-color:#1A686F"/>
		<stop  offset="0.12" style="stop-color:#5E866C"/>
		<stop  offset="0.21" style="stop-color:#97A06A"/>
		<stop  offset="0.29" style="stop-color:#C4B468"/>
		<stop  offset="0.36" style="stop-color:#E4C267"/>
		<stop  offset="0.42" style="stop-color:#F7CA66"/>
		<stop  offset="0.46" style="stop-color:#FFCE66"/>
		<stop  offset="0.51" style="stop-color:#F6CA66;stop-opacity:0.99"/>
		<stop  offset="0.58" style="stop-color:#DDBF67;stop-opacity:0.96"/>
		<stop  offset="0.68" style="stop-color:#B5AD69;stop-opacity:0.91"/>
		<stop  offset="0.79" style="stop-color:#7E956B;stop-opacity:0.85"/>
		<stop  offset="0.91" style="stop-color:#39766E;stop-opacity:0.77"/>
		<stop  offset="1" style="stop-color:#005D71;stop-opacity:0.7"/>
	</linearGradient>
	<path style="fill:url(#SVGID_00000116913931741270392260000017649835686263482806_);" d="M699.3,364.3c-4.6,13-9.4,13.5-18.9,13.2
		c-9.5-0.2-12.3-4.8-12.9-12.1c-0.5-5.3-3.5-7.6-6.6-8.4c-54.2-26.9-110.3-14.1-130.6-0.2c41.2-18.9,82.5-15.2,122.2-0.1
		c1.9,0.7,3.2,2.5,3.5,4.5c0.2,2.2,0.6,4.6-1.1,5.9c-1.8,1.4-7.8-3.2-18.7-2.1c5.1,1,8.3,2.4,10.2,3.5c1.3,0.9,6.5,4.1,7.7,5.3
		c2.8,2.8-2.8,15.7-6.2,19c-3.3,3.4-6.2,20.2-11.2,23c-2.5,1.4-4.1,0.2-5.6-1.1c-0.3-0.3-0.6-0.6-1-0.9c-0.2-0.2-0.4-0.4-0.7-0.6
		c-15.8-13.7-55.5-31.9-75.7-31.9c22.6,6.3,66.3,21.7,71,35.8c-1.2,5.7-2.3,14.9-12.3,16.6c-11.9,2-14.5-8.7-17.7-10.8
		c-17-17.7-55-33.6-63.2-35.5c18.1,8.7,57.9,28.6,60.1,39.8c-0.4,4.8-0.7,11.9-8.3,14.5c-8.4,2.7-13.6-1.8-17.5-3.9
		c-14.2-15.3-29.3-19.1-33.8-20.6c27.4,13.8,30,25.8,29.5,27.9c-1.1,4.6-14,21.2-19.6,26.8c-3.9,3.9-10.5-1-15.9-2.9
		c-9-6.4-17.1-28.5-22.8-41.8c0.6,7.6,10.8,28.6,15.5,39.1c0.8,1.8,0.5,3.9-0.8,5.5c-3.9,4.6-11.9,13.9-16.1,16.9
		c-3.1,2.2-10.3,7.3-14.2,12.9c-0.8,1.1-2.5,1.1-3.3,0c-10.4-15.5-13.6-31.7-16.8-38.7c0.5,2.2,6.9,31.9,18.1,48.7
		c0.6,1.3,1.5,2.5,3,3.6c9.5,2.9,6.6,6.5,0,18.7c-6.6,12.3-3.8,6.6-25.5,20.8c-19.3,12.6-13.3-0.2-22.3-0.6
		c-3.6-15.6,9.4-65.2,11.2-79.1c-3,11-17.5,51.7-15.4,79.6c-9.8,12.1-19.6,9.7-25.1,4.4v0c-0.3-8,17.7-57.6,20.7-69.1
		c-1.2,2.5-19.5,42.6-24,64.8c0,0-4.7,8.5-10.4,12.3s-11.3-6.6-15.1,0c-3.8,6.6,0,22.1,0,22.1v0c45.6,21.2,134.7-45.4,147.5-78.4
		c14.7,7.2,23.2,6.1,38.5-9.2c15.3-15.3,153.1-58.7,153.8-95.6C722.9,389.2,713.4,375.2,699.3,364.3L699.3,364.3z M551.2,488.7
		c-3.6-1.6-6.2-12.9-4.4-15.8c1.9-2.9,3.5-4,5.6-7.9c2.1-4,5-9.8,10-5.9C566,461.9,558.3,487.5,551.2,488.7z M590,474.9
		c-11.5,1.6-16-9.3-16.8-15.4c-0.7-6-0.1-9.5,9.4-10.6c9.5-1.2,10.4-8,14-8.4c2.1,0.1,6.4,8.2,6.3,14.2
		C602.8,460.7,601.5,473.3,590,474.9L590,474.9z M614.7,454.2c-3.9,0.6-8.2-11-6.9-13.5c0.5-2.3,14.7-0.3,14.9-1.2
		c0.6-2.8,6.2-5.1,9.7-2.3C635.8,439.9,618.5,453.6,614.7,454.2L614.7,454.2z M691.5,397.2c-0.2,1.5-3.8,6.7-7.8,7.2
		c-1.2,0.1-1.9,1.3-1.6,2.5c2.6,7.5,1.2,13.8-6.3,12.5c0.3,7.4-2.6,9.6-8,7.8c-1-0.3-2.1-0.1-2.7,0.8c-4.2,6.1-7.5,16.9-19.3,9.4
		c-12.8-8,5.4-23.9,12.2-22.6c0.4-5.8,8.7-12.4,16.7-13c1.7-0.1,2.6-2.2,1.6-3.6c-5.1-7.1-12.4-14.5-8.2-17
		C673,378.2,693.9,381.5,691.5,397.2L691.5,397.2z"/>
	
		<linearGradient id="SVGID_00000000202340501661458030000000756745673600696232_" gradientUnits="userSpaceOnUse" x1="374.69" y1="247.055" x2="395.32" y2="247.055" gradientTransform="matrix(1 0 0 -1 0 791)">
		<stop  offset="0" style="stop-color:#FFCE66"/>
		<stop  offset="3.000000e-02" style="stop-color:#E5C267"/>
		<stop  offset="0.1" style="stop-color:#B5AD69"/>
		<stop  offset="0.17" style="stop-color:#8A9A6B"/>
		<stop  offset="0.24" style="stop-color:#64896C"/>
		<stop  offset="0.33" style="stop-color:#457B6E"/>
		<stop  offset="0.41" style="stop-color:#2C706F"/>
		<stop  offset="0.51" style="stop-color:#18676F"/>
		<stop  offset="0.62" style="stop-color:#0A6170"/>
		<stop  offset="0.76" style="stop-color:#025E70"/>
		<stop  offset="1" style="stop-color:#005D71"/>
	</linearGradient>
	<path style="fill:url(#SVGID_00000000202340501661458030000000756745673600696232_);" d="M395.3,530.8c-8,13.9-14.2,23.7-14.2,23.7
		c-3.1,2-6.4,2.6-6.4,2.6c5.9-8.3,11.4-16.9,16.6-25.4L395.3,530.8z"/>
	
		<linearGradient id="SVGID_00000043430159523174270930000015876994455236531131_" gradientUnits="userSpaceOnUse" x1="111.6995" y1="518.7848" x2="428.3293" y2="335.9749" gradientTransform="matrix(1 0 0 -1 0 791)">
		<stop  offset="0" style="stop-color:#FFCE66"/>
		<stop  offset="1" style="stop-color:#005D71"/>
	</linearGradient>
	<path style="fill:url(#SVGID_00000043430159523174270930000015876994455236531131_);" d="M340.5,520.9c-0.6,1.3-1.7,2.2-3.1,2.5
		c-4.2,0.8-9.6,2.7-10.6,1.6c-0.6-0.7-0.2-1.7,0.1-2.8c0.1-0.3,0.2-0.7,0.2-1.1c3.1-13,5.1-22.1,27.1-53.1
		c-11.3,12.5-25.8,33.6-31.1,44.1c-0.9,1.7-2.7,2.6-4.5,2.4c-4.5-0.6-9.4-0.5-10.4-1.9c-1.7-2.2,12.4-25.8,10.1-28
		c-2.2-2.2-21.9,12.6-23.4,10.7c-0.5-0.6-0.5-1.4-0.3-2.1l0.1,0c16.4-19.9,63.6-55.1,86.1-71c-15.4,5.6-87,61.1-90.8,65.7
		c-1.2,0.4-2.5,0.6-3.4,0.1c-2.2-1.1,2.8-20.6,1.9-21.9c-1-1.4-7.8-0.9-8.9-1.9s0.8-19.5,0-21.2c-0.8-1.6-4.2,1.1-4.7-1.5
		c-0.3-1.7,18.7-16.3,33-27.9c0.2-0.2,0.5-0.3,0.7-0.5c23.3-13.1,49.9-16.1,67.2-16.1c-16.4-2.2-42.5,1-52.6,2.9
		c-0.4,0.1-0.9,0.1-1.3,0c-3.4-0.4-6.1-0.8-8.3-1.3c-4.3-1-4.6-6.9-0.5-8.4c24.8-9.2,106.2-38.5,134.5-38.5
		c-30.3-0.8-101.6,21-137.1,34.9c-0.6,0.2-1.3,0.3-2,0.3c-23.8-2.1-19.6-8.2-19.2-11.4c0.3-3.4,6.4-0.8,4.8-11
		c-1.1-6.8,2.8-10.9,6.9-13.8c0,0,0,0,0.2-0.1c0.1,0,0.2-0.1,0.5-0.2c7.6-4,81.9-42.1,140.1-22.2c-22.3-8.6-58-17.4-135.2,14.9
		c-0.8,0.3-1.6,0.5-2.4,0.3c-9.1-1.4-18.3-6.5-25.2-14.6c-5.7-6.8,1.7-8.7,6.1-11.3c17.8-4.4,64.8-13.4,95.3-10.3
		c-40.2-5.4-87.6,4.2-92.3,5.2c-0.3,0.1-0.6,0.1-0.9,0.1c-32.4,0.5-31.8-9.6-31.2-12.1c0,0-7.7-1-9.6-6.1c-1-2.6,3.7-4.6,8.4-6.4
		h0.1c0.1,0,0.1,0,0.2,0c0.1,0,0.2,0,0.4-0.1c4.1-1.2,28-8,54.6-8.9c-23-1.4-48.2,3-57.1,4.5c-0.1,0-0.1,0-0.2,0
		c-4.8,0.5-9.1-0.4-7.3-7.3c6.7-27.2,39.7-30.9,46.7-33.4c0.7-0.3,1.5-0.3,2.3-0.1c31.1,6.3,40.8,8.8,64,17.5
		c-4.8-4.5-39.7-16.4-55.4-20.9c-3.4-1-4.4-5.4-1.6-7.6c0.1-0.1,0.2-0.2,0.3-0.2c2.9-2.2,2.3-6.7-1.2-7.8c-3.7-1.2-7.7-2.6-11.5-4.2
		c-12.3-5.1-118.7-39.9-143.3-6.1c-24.6,33.8,67.6,148.4,69.6,162.7c1.9,13.3,14.4,34,33.3,39.6c2.4,0.7,3.7,3.4,2.8,5.7l-3.7,10.8
		c-19,49.6,48.7,113.2,105.3,134.2c0.9,0.3,1.9,0.4,2.8,0.1c7.8-2.5,15.1-9.3,15.1-13.7c0-4.7-6.6-1.7-9.1-3.3
		c-2.4-1.7,0.3-7.5-2.4-10.4c-2.8-3-12.4,1.6-14.6,0c-1.1-0.9-1.2-4.5-1.3-8c6.1-30.3,32.1-66.1,52.7-90.5
		C379.3,457.4,355.2,488,340.5,520.9L340.5,520.9z M233,226.1c1.2,0.1,1.8-1.7,0.8-2.5c-6-4.8-16.5-5.5-16.5-10
		c0-2.8,1.4-5.5,2.7-7.2c1-1.5,2.9-2.1,4.7-1.7l49.1,12.3c4.3,1.1,4.5,7.1,0.3,8.5c-4.3,1.4-9.1,1.5-11.8,0
		c-0.9,2.5-4.2,3.7-8.6,4.1c-5.1,0.4-7.5,6.3-4.1,10.2c1.4,1.6,2,2.6,1.2,3.4c-2,1.7-39.5-7.3-49.3-3.6
		C192.1,242.8,207,223.6,233,226.1L233,226.1z M193.5,281.5c-3-3.5-2.3-6.4-0.2-8.6c2.6-2.8,2-7.4-1-9.8c-7.3-5.9-5.5-16.1,6.2-18.4
		c16.3-3.2,29.5,10.8,30,16.2c0.2,2.9-3.5,3.5-7,3.4c-1,0-1.4,1.3-0.5,1.8c6.3,3.9,7.9,9.5,5.3,13
		C223.2,283.5,199.2,288.5,193.5,281.5L193.5,281.5z M222.7,319.1c-1.9-1.6-0.6-4.9,1.3-7c1.1-1.3,1.6-3.1,0.9-4.7
		c-1.8-4.3-6.1-11-5.4-11.9c2.4-2.8,25.8,14,25.1,17.9C243.8,317.4,225.2,321,222.7,319.1L222.7,319.1z M227.6,339.7
		c0-12.5,11.9-16.5,20.9-17.1c3.4-0.2,6.7,1.4,8.6,4.2c3.5,5.2,10.6,13.1,14.9,17.8c1.8,2,0.8,5.2-1.8,5.8
		C259.2,352.9,227.6,354.4,227.6,339.7L227.6,339.7z M255.1,379.9c-13.7-9.2,7.2-21.4,21-24.2c3.6-0.7,6.3,3.1,4.7,6.4
		C276,371.4,263.2,385.4,255.1,379.9z"/>
	<polygon class="st8" points="254.8,288.2 254.7,288.2 254.7,288.2 	"/>
	<g>
		
			<linearGradient id="SVGID_00000100340517318029501800000015636162679308085130_" gradientUnits="userSpaceOnUse" x1="476.8742" y1="537.07" x2="531.9263" y2="505.2888" gradientTransform="matrix(1 0 0 -1 0 791)">
			<stop  offset="0" style="stop-color:#FFCE66"/>
			<stop  offset="2.000000e-02" style="stop-color:#F4C966"/>
			<stop  offset="0.14" style="stop-color:#BBB068"/>
			<stop  offset="0.25" style="stop-color:#89996B"/>
			<stop  offset="0.37" style="stop-color:#5F876C"/>
			<stop  offset="0.49" style="stop-color:#3C776E"/>
			<stop  offset="0.62" style="stop-color:#226C6F"/>
			<stop  offset="0.74" style="stop-color:#0F6370"/>
			<stop  offset="0.87" style="stop-color:#035E70"/>
			<stop  offset="1" style="stop-color:#005D71"/>
		</linearGradient>
		<path style="fill:url(#SVGID_00000100340517318029501800000015636162679308085130_);" d="M512.7,319c1.3-9.2,2.4-104-17.3-96.4
			c-4.9,1.9,8.2,12.4,11.7,31.5C512.2,281.8,512.7,319,512.7,319z"/>
		
			<linearGradient id="SVGID_00000067222479330359652570000008190305978176942480_" gradientUnits="userSpaceOnUse" x1="537.254" y1="497.829" x2="588.3875" y2="468.3028" gradientTransform="matrix(1 0 0 -1 0 791)">
			<stop  offset="0" style="stop-color:#005D71"/>
			<stop  offset="0.14" style="stop-color:#035E70"/>
			<stop  offset="0.27" style="stop-color:#0E6370"/>
			<stop  offset="0.39" style="stop-color:#206B6F"/>
			<stop  offset="0.51" style="stop-color:#3A766E"/>
			<stop  offset="0.63" style="stop-color:#5B856D"/>
			<stop  offset="0.74" style="stop-color:#84976B"/>
			<stop  offset="0.86" style="stop-color:#B5AD69"/>
			<stop  offset="0.96" style="stop-color:#EBC566"/>
			<stop  offset="1" style="stop-color:#FFCE66"/>
		</linearGradient>
		<path style="fill:url(#SVGID_00000067222479330359652570000008190305978176942480_);" d="M519.9,323.2
			c6.6-5.6,80.7-51.4,83.9-28.3c0.8,5.8-13.6-2.2-30.3,3.3C549.5,306.1,519.9,323.2,519.9,323.2L519.9,323.2z"/>
	</g>
	
		<linearGradient id="SVGID_00000145057456294553808670000009075296357208744119_" gradientUnits="userSpaceOnUse" x1="433.7037" y1="383.3394" x2="480.0733" y2="356.5654" gradientTransform="matrix(1 0 0 -1 0 791)">
		<stop  offset="0" style="stop-color:#FFCE66"/>
		<stop  offset="3.000000e-02" style="stop-color:#E5C267"/>
		<stop  offset="0.1" style="stop-color:#B5AD69"/>
		<stop  offset="0.17" style="stop-color:#8A9A6B"/>
		<stop  offset="0.24" style="stop-color:#64896C"/>
		<stop  offset="0.33" style="stop-color:#457B6E"/>
		<stop  offset="0.41" style="stop-color:#2C706F"/>
		<stop  offset="0.51" style="stop-color:#18676F"/>
		<stop  offset="0.62" style="stop-color:#0A6170"/>
		<stop  offset="0.76" style="stop-color:#025E70"/>
		<stop  offset="1" style="stop-color:#005D71"/>
	</linearGradient>
	<path style="fill:url(#SVGID_00000145057456294553808670000009075296357208744119_);" d="M524,308.3c2.6,1.6,3.8,6.6,1,16.7
		c4,6.8,1.7,16.2-5.9,16.2l-0.9,5.6c0.1,16.2-27.8,59.5-27.8,59.5c1.6,7-4.8,13.3-4.8,13.3c-2.7,5.5-7.3,22.7-13,24.9
		c-0.5,9-13.6,12.3-14.1,13.8c-2.2,6.2-9.5,10-13.4,11.8c-3.7,5.7-45.8,67.6-55.1,63.7c-7.9-6.4,26.4-72.9,29.6-78.8
		c-0.2-4.3-0.4-12.5,4-17.5c1-1.1-2.2-14.2,5.4-19c-0.7-6.1,12.2-18.3,15.8-23.3c0,0,2.5-8.6,9.5-10.6c0,0,24.9-45,39.1-52.7
		l4.5-3.5c-3.6-6.6,3.6-13.1,11.5-12.9C516.8,308.4,521.5,306.8,524,308.3L524,308.3z"/>
	
		<linearGradient id="SVGID_00000150820807658100602480000012238921296061036220_" gradientUnits="userSpaceOnUse" x1="469.7219" y1="436.0865" x2="498.1219" y2="407.6965" gradientTransform="matrix(1.0696 3.099620e-02 -3.110087e-02 -1.0113 -19.8901 781.3562)">
		<stop  offset="0" style="stop-color:#F7ED39"/>
		<stop  offset="0.17" style="stop-color:#F3EB39"/>
		<stop  offset="0.3" style="stop-color:#EAE53B"/>
		<stop  offset="0.42" style="stop-color:#D9DB3F"/>
		<stop  offset="0.54" style="stop-color:#C1CE45"/>
		<stop  offset="0.64" style="stop-color:#A3BC4B"/>
		<stop  offset="0.75" style="stop-color:#7EA654"/>
		<stop  offset="0.85" style="stop-color:#528C5E"/>
		<stop  offset="0.94" style="stop-color:#206F69"/>
		<stop  offset="1" style="stop-color:#005D71"/>
	</linearGradient>
	<path style="fill:url(#SVGID_00000150820807658100602480000012238921296061036220_);" d="M469.4,356.3c0.4-0.9,1.2-1.6,2.2-1.8
		c4-0.8-1.6,5,9.7,10c25.7,11.4,22.9,17.9,22.9,17.9l-35.4-18.8c-1.4-0.8-2-2.5-1.4-4L469.4,356.3L469.4,356.3z"/>
	
		<linearGradient id="SVGID_00000174584846613499453070000008986441870419922874_" gradientUnits="userSpaceOnUse" x1="454.0701" y1="409.5766" x2="485.1301" y2="378.5166" gradientTransform="matrix(1.0597 2.497335e-02 -2.488161e-02 -1.0109 -16.7636 783.9198)">
		<stop  offset="0" style="stop-color:#F7ED39"/>
		<stop  offset="0.17" style="stop-color:#F3EB39"/>
		<stop  offset="0.3" style="stop-color:#EAE53B"/>
		<stop  offset="0.42" style="stop-color:#D9DB3F"/>
		<stop  offset="0.54" style="stop-color:#C1CE45"/>
		<stop  offset="0.64" style="stop-color:#A3BC4B"/>
		<stop  offset="0.75" style="stop-color:#7EA654"/>
		<stop  offset="0.85" style="stop-color:#528C5E"/>
		<stop  offset="0.94" style="stop-color:#206F69"/>
		<stop  offset="1" style="stop-color:#005D71"/>
	</linearGradient>
	<path style="fill:url(#SVGID_00000174584846613499453070000008986441870419922874_);" d="M490.7,407.3c0-0.8-0.7-1.3-1.5-1.2
		c-7.4,1.4-8.6-3.4-16.5-12.1c-8.4-9.2-17.2-9.9-20.5-10c-0.6,0-1.3,0.1-1.9,0.3c-1.3,0.5-1,2.4,0.4,2.3c6.8-0.1,11.5,4,15,9.2
		c4.5,6.9,10.8,16.7,18.5,17C489.7,413.1,490.6,409.5,490.7,407.3L490.7,407.3z"/>
	
		<linearGradient id="SVGID_00000060021918455505745400000006271911180045223053_" gradientUnits="userSpaceOnUse" x1="406.0833" y1="405.6523" x2="435.8177" y2="375.9178" gradientTransform="matrix(1.2059 0.2886 5.758338e-02 -1.0453 -69.2794 705.472)">
		<stop  offset="0" style="stop-color:#F7ED39"/>
		<stop  offset="0.17" style="stop-color:#F3EB39"/>
		<stop  offset="0.3" style="stop-color:#EAE53B"/>
		<stop  offset="0.42" style="stop-color:#D9DB3F"/>
		<stop  offset="0.54" style="stop-color:#C1CE45"/>
		<stop  offset="0.64" style="stop-color:#A3BC4B"/>
		<stop  offset="0.75" style="stop-color:#7EA654"/>
		<stop  offset="0.85" style="stop-color:#528C5E"/>
		<stop  offset="0.94" style="stop-color:#206F69"/>
		<stop  offset="1" style="stop-color:#005D71"/>
	</linearGradient>
	<path style="fill:url(#SVGID_00000060021918455505745400000006271911180045223053_);" d="M471,431.6c4.5,3.3,6.5,9.4,8.8,5.2
		c2.6-4.6,3.1-6.5,1.2-8.9c-10.3-12.4-36.8-21.7-43.2-25c-0.8-0.4-1.6,0.6-1,1.3c4,4.7,22.4,13.7,26.5,20.8
		C464.9,427.9,469.3,430.4,471,431.6L471,431.6z"/>
	
		<linearGradient id="SVGID_00000172411366031242892260000016345095409121423550_" gradientUnits="userSpaceOnUse" x1="414.9547" y1="360.0536" x2="441.1173" y2="333.8909" gradientTransform="matrix(1.4869 0.1976 -0.1977 -1.1158 -127.5945 742.2032)">
		<stop  offset="0" style="stop-color:#F7ED39"/>
		<stop  offset="0.17" style="stop-color:#F3EB39"/>
		<stop  offset="0.3" style="stop-color:#EAE53B"/>
		<stop  offset="0.42" style="stop-color:#D9DB3F"/>
		<stop  offset="0.54" style="stop-color:#C1CE45"/>
		<stop  offset="0.64" style="stop-color:#A3BC4B"/>
		<stop  offset="0.75" style="stop-color:#7EA654"/>
		<stop  offset="0.85" style="stop-color:#528C5E"/>
		<stop  offset="0.94" style="stop-color:#206F69"/>
		<stop  offset="1" style="stop-color:#005D71"/>
	</linearGradient>
	<path style="fill:url(#SVGID_00000172411366031242892260000016345095409121423550_);" d="M425.3,427.1c8.8,2.3,18.9,10.2,21.1,28.4
		c3.1,12.8,10.5,7.4,12,2.9c1.7-5.1-2.4-21.3-12-26.7c-8.3-4.7-12.1-13.9-17.2-15.2c-1.2-0.3-2.5,0.3-3.1,1.4l-2.7,5.2
		C422.6,424.7,423.5,426.6,425.3,427.1L425.3,427.1z"/>
	
		<linearGradient id="SVGID_00000140725842008220359540000010861426612933952435_" gradientUnits="userSpaceOnUse" x1="414.798" y1="337.5171" x2="430.428" y2="321.8871" gradientTransform="matrix(1.3609 0.1572 -0.1575 -1.0651 -95.4842 748.1712)">
		<stop  offset="0" style="stop-color:#F7ED39"/>
		<stop  offset="0.17" style="stop-color:#F3EB39"/>
		<stop  offset="0.3" style="stop-color:#EAE53B"/>
		<stop  offset="0.42" style="stop-color:#D9DB3F"/>
		<stop  offset="0.54" style="stop-color:#C1CE45"/>
		<stop  offset="0.64" style="stop-color:#A3BC4B"/>
		<stop  offset="0.75" style="stop-color:#7EA654"/>
		<stop  offset="0.85" style="stop-color:#528C5E"/>
		<stop  offset="0.94" style="stop-color:#206F69"/>
		<stop  offset="1" style="stop-color:#005D71"/>
	</linearGradient>
	<path style="fill:url(#SVGID_00000140725842008220359540000010861426612933952435_);" d="M418.9,453.6c3.1,4.8,15.2,10.4,21.3,12.1
		c6.1,1.6,5.7,7.1,1.3,6.5s-25.6-4.3-26-12.1C415.3,455.4,418.9,453.6,418.9,453.6L418.9,453.6z"/>
</g>
</svg>
