<?xml version="1.0" encoding="UTF-8"?>
<svg id="Layer_1" data-name="Layer 1" xmlns="http://www.w3.org/2000/svg" xmlns:xlink="http://www.w3.org/1999/xlink" viewBox="0 0 447.06 252.93">
  <defs>
    <style>
      .cls-1 {
        fill: url(#linear-gradient-2);
      }

      .cls-1, .cls-2, .cls-3, .cls-4, .cls-5, .cls-6, .cls-7 {
        stroke: #5d479d;
        stroke-width: 2.06px;
      }

      .cls-1, .cls-2, .cls-4, .cls-5, .cls-6, .cls-7 {
        stroke-linejoin: bevel;
      }

      .cls-2 {
        fill: url(#linear-gradient-3);
      }

      .cls-8 {
        fill: #e7b6ce;
      }

      .cls-9 {
        fill: #c69;
      }

      .cls-10 {
        fill: #c66;
      }

      .cls-11 {
        fill: #4167b0;
      }

      .cls-3 {
        stroke-miterlimit: 10;
      }

      .cls-3, .cls-4 {
        fill: none;
      }

      .cls-12 {
        opacity: .14;
      }

      .cls-13 {
        opacity: .22;
      }

      .cls-14 {
        opacity: .35;
      }

      .cls-15 {
        opacity: .85;
      }

      .cls-5 {
        fill: url(#linear-gradient);
      }

      .cls-6 {
        fill: #6a6eb3;
      }

      .cls-7 {
        fill: #e7b6cd;
      }
    </style>
    <linearGradient id="linear-gradient" x1="1.03" y1="129.07" x2="446.03" y2="129.07" gradientUnits="userSpaceOnUse">
      <stop offset="0" stop-color="#999bcd"/>
      <stop offset=".1" stop-color="#a48fc3"/>
      <stop offset=".2" stop-color="#a98bc0"/>
      <stop offset="1" stop-color="#5d479d"/>
    </linearGradient>
    <linearGradient id="linear-gradient-2" x1="60.39" y1="86.72" x2="399.6" y2="86.72" xlink:href="#linear-gradient"/>
    <linearGradient id="linear-gradient-3" x1="69.75" y1="152.94" x2="192.23" y2="152.94" xlink:href="#linear-gradient"/>
  </defs>
  <path class="cls-5" d="m114.31,135.75c-47.53-20.37-61.7-70.86-58.32-77.11,9.15-16.91,98.63,9.63,121.55,50.38-6.28-27.21-34.8-89.12-5.94-97.18,11.35-3.17,54.32,25.89,63.37,76.1,12.56-29.3,55.47-83.73,68.03-81.64,12.56,2.09,34.54,32.04-15.7,115.52,29.31-26.55,129.79-85.28,137.12-74.76,8.58,11.75-11.34,58.75-54.99,87.63,53.97,1.79,77.15-5.57,76.59,4.61-2.21,39.86-72.38,76.34-121.01,57.11-21.49,95.57-98.96,45.69-122.14,12.44-56.04,55.17-125.89,28.22-138.07-3.59-1.58-4.13.01-8.81,3.6-11.4,6.01-4.33,19.75-10.38,33.87-13.04-36.54-5.08-83.77-19.13-101.05-66.4-.48-1.32-.01-2.93,1.24-3.57,15.16-7.7,95.39,11.26,111.85,24.9Z"/>
  <path class="cls-3" d="m172.59,126.9c-.5-1.57-.66-3.3-.66-5.03l.66,5.03Z"/>
  <path class="cls-1" d="m399.58,65.07c-.08,1.32-.33,2.81-.83,4.37-4.29,15.93-25.91,42.41-54.95,61.89h-.08c-21.29,14.27-46.62,24.67-71.95,24.18-.99,1.49-2.14,2.81-3.38,4.13-1.24,1.24-2.64,2.31-4.13,3.38-3.14,2.15-6.68,3.88-10.64,5.28-.41.17-.83.33-1.32.41-.82.33-1.65.58-2.48.74-.33.08-.66.17-.99.25h-.08c-.5.17-.91.33-1.4.41-1.82.41-3.71.82-5.61,1.07-7.76,1.32-16.26,1.57-24.42.83-1.49-.08-2.97-.25-4.54-.5-1.49-.17-2.97-.41-4.37-.66-1.07-.17-2.15-.41-3.14-.58-1.15-.25-2.23-.5-3.38-.82-1.49-.33-2.97-.83-4.29-1.24-1.16-.33-2.23-.66-3.22-1.07-.33-.08-.58-.25-.91-.33-.41-.17-.82-.33-1.24-.5-.33-.17-.74-.33-1.07-.5-1.07-.41-2.06-.91-3.05-1.49-1.16-.58-2.31-1.16-3.3-1.9-.74-.41-1.49-.91-2.15-1.49-.66-.5-1.32-.99-1.9-1.57-2.31-1.98-4.04-4.29-5.03-6.77v-.08c-11.47.16-22.77-1.4-33.58-4.46-.08,0-.25,0-.33-.08-47.28-13.28-84.66-52.31-81.19-75.83,12.13-12.54,89.61,35.56,111.31,49.67-17.74-11.8-59.66-70.47-32.35-104.88,1.49-1.82,3.8-2.64,6.02-2.31,27.39,3.63,55.61,68.65,56.36,80.29l6.35-1.4c-6.11-21.7,11.14-92.99,30.94-92.5,18.24.5,31.03,57.93,18.48,95.06,13.37-32.43,58.34-84.83,70.22-81.44,18.65,5.28,5.53,71.46-38.86,107.27-3.63,2.64-6.93,5.03-9.65,7.1,3.38-2.15,6.6-4.54,9.65-7.1,30.86-22.77,88.95-65.1,105.45-63.29,3.05.33,5.28,3.38,5.03,6.44Z"/>
  <path class="cls-7" d="m277.95,131.41l-4.7,18.32-1.49,5.78c-.99,1.49-2.14,2.81-3.38,4.13-1.24,1.24-2.64,2.31-4.13,3.38-3.14,2.15-6.68,3.88-10.64,5.28-.41.17-.83.33-1.32.41-.82.33-1.65.58-2.48.74-.33.08-.74.25-1.07.25-25.08-12.21-40.1-14.6-56.44-3.38h-.08c-.33-.17-.74-.33-1.07-.5-1.07-.41-2.06-.91-3.05-1.49-1.16-.58-2.31-1.16-3.3-1.9-.74-.41-1.49-.91-2.15-1.49-.66-.5-1.32-.99-1.9-1.57-2.31-1.98-4.04-4.29-5.03-6.77v-.08l-3.14-25.66c7.34,34.08,90.02,32.92,105.37,4.54Z"/>
  <path class="cls-2" d="m192.23,166.35c-3.88,2.39-7.92,5.36-11.96,9.08-11.14,10.07-112.39-27.48-110.49-42.25.08-.17.17-.41.25-.58,6.35-12.71,50.66,10.31,50.66,10.31,3.63,1.65,11.3,3.47,21.12,5.12.08.08.25.08.33.08,10.81,3.05,22.11,4.7,33.58,4.54.99,2.48,2.72,4.79,5.03,6.77.58.58,1.24,1.07,1.9,1.57.66.58,1.4,1.07,2.15,1.49.99.74,2.15,1.32,3.3,1.9.99.58,1.98,1.07,3.05,1.49.33.16.74.33,1.07.5Z"/>
  <path class="cls-7" d="m280.44,121.87c0,2.56-.5,5.03-1.4,7.34-.33.74-.66,1.49-1.07,2.23-15.35,28.39-98.03,29.54-105.37-4.54l-.66-5.03c0-13.45,13.04-22.53,30.04-26.9.33-.08.74-.17,1.07-.25,1.4-.33,2.81-.66,4.37-.91.25-.08.58-.08.91-.16v-.08c16.83-3.05,36.39-1.9,50.83,3.71,12.54,4.79,21.29,12.95,21.29,24.59Z"/>
  <path class="cls-4" d="m289.09,121.92c-3.05,2.56-6.27,4.95-9.65,7.1,2.72-2.06,6.02-4.46,9.65-7.1Z"/>
  <path class="cls-6" d="m398.84,69.36c.66,11.22-25.5,55.04-25.5,55.04-11.47-.33-21.62,15.51-49.76,24.18-25.08,7.76-52.89,25.58-58.59,29.54-1.9-1.32-10.64-4.79-16.17-8.42.33-.08.66-.16.99-.25.82-.17,1.65-.41,2.48-.74.5-.08.91-.25,1.32-.41,3.96-1.4,7.51-3.14,10.64-5.28,1.49-1.07,2.89-2.15,4.13-3.38,1.24-1.32,2.39-2.64,3.38-4.13,25.33.5,50.66-9.9,71.95-24.18h.08c29.04-19.47,50.66-45.96,54.95-61.89l.08-.08Z"/>
  <path class="cls-6" d="m373.34,124.39c-7.26,58.5-93.57,86.06-109.17,58.34-17.33,25.5-66.84,49.67-86.64-2.81-15.27,11.14-94.97,23.19-107.35-43.9,6.02,15.76,99.93,50.91,109.99,40.68,4.21-4.29,8.17-7.76,12.13-10.4,16.34-11.22,31.36-8.83,56.44,3.38,5.03,2.39,10.4,5.28,16.26,8.42,5.69-3.96,33.5-20.46,58.59-28.22,28.14-8.66,38.29-25.91,49.76-25.5Z"/>
  <path class="cls-6" d="m322.2,188.85c-21.76,27.66-110.16,29.84-119.34,20-24.01,13.42-119.96-17.05-134.45-14.99-3.59,2.59-5.19,7.27-3.6,11.4,12.18,31.82,82.02,58.77,138.06,3.59,22.89,32.83,98.42,81.8,121.3-8.88,1.31-5.21-1.96-11.12-1.96-11.12Z"/>
  <path class="cls-6" d="m322.2,188.85c34.8.68,46.02-9.08,68.58-19.16,31.73-14.17,55.25-30.4,55.25-30.4-2.08,38.22-67.75,74.26-115.77,58.95-6.43-2.76-8.06-9.4-8.06-9.4Z"/>
  <g>
    <g class="cls-15">
      <path class="cls-9" d="m225.66,124.4c2.02-6.49,4.03-12.99,6.05-19.48.9-2.91.06-7.77-.26-10.55-.65-5.74-1.69-11.56-3.04-17.18-1.04-4.36-2.01-8.94-3.91-13.02-.37-.79-1.89-4.3-2.66-1.81-2.02,6.49-4.03,12.99-6.05,19.48-.9,2.91-.06,7.77.26,10.55.65,5.74,1.69,11.56,3.04,17.18,1.04,4.36,2.01,8.94,3.91,13.02.37.79,1.89,4.3,2.66,1.81h0Z"/>
    </g>
    <g class="cls-15">
      <path class="cls-10" d="m223.52,121.05c2.02-6.49,4.03-12.99,6.05-19.48.68-2.18.04-5.82-.19-7.91-.49-4.3-1.27-8.67-2.28-12.88-.78-3.27-1.51-6.71-2.93-9.76-.28-.59-1.41-3.23-2-1.36-2.02,6.49-4.03,12.99-6.05,19.48-.68,2.18-.04,5.82.19,7.91.49,4.3,1.27,8.67,2.28,12.88.78,3.27,1.51,6.71,2.93,9.76.28.59,1.41,3.23,2,1.36h0Z"/>
    </g>
    <g class="cls-13">
      <path class="cls-8" d="m223.42,126.8c2.02-6.49,4.03-12.99,6.05-19.48.68-2.18.04-5.82-.19-7.91-.49-4.3-1.27-8.67-2.28-12.88-.78-3.27-1.51-6.71-2.93-9.76-.28-.59-1.41-3.23-2-1.36-2.02,6.49-4.03,12.99-6.05,19.48-.68,2.18-.04,5.82.19,7.91.49,4.3,1.27,8.67,2.28,12.88.78,3.27,1.51,6.71,2.93,9.76.28.59,1.41,3.23,2,1.36h0Z"/>
    </g>
    <g class="cls-14">
      <path class="cls-11" d="m223.87,124.56c2.02-6.49,4.03-12.99,6.05-19.48,1.23-3.97-.74-9.96-1.65-13.86-.5-2.13-.91-4.59-1.95-6.51-.2-.37-.94-2.17-1.33-.9-2.02,6.49-4.03,12.99-6.05,19.48-1.23,3.97.74,9.96,1.65,13.86.5,2.13.91,4.59,1.95,6.51.2.37.94,2.17,1.33.9h0Z"/>
    </g>
  </g>
  <g class="cls-12">
    <path class="cls-11" d="m254.36,122.77c-.03-1.57-.79-2.85-1.51-4.2-.46-.85-.92-1.68-1.56-2.41s-1.46-1.37-2.29-1.92c-2.1-1.38-4.5-2.3-6.9-3.02-6.13-1.84-12.64-2.48-19.02-2.51s-12.71.52-18.69,2.46c-3.85,1.25-8.68,3.44-9.52,7.86-.12.61-.25,1.15-.17,1.77.09.72.34,1.38.67,2.02.99,1.93,1.89,3.72,3.62,5.07,1.64,1.28,3.57,2.17,5.51,2.88,2.42.88,4.94,1.51,7.47,1.96,1.21.22,2.42.37,3.63.53l-1.39-2.62v.03c0,.08.18.35.19.39.16.31.32.62.49.93s.33.62.5.92c.03.06.16.37.21.38,6.36.79,12.85.84,19.22.11,2.94-.34,5.86-.86,8.72-1.66,2.6-.73,5.24-1.71,7.44-3.31,1.87-1.36,3.36-3.27,3.38-5.67,0-.08-.18-.36-.19-.39-.16-.31-.32-.62-.49-.93s-.33-.62-.5-.92c-.05-.08-.21-.29-.21-.38-.06,4.91-5.67,7.36-9.62,8.62-5.84,1.86-12.1,2.46-18.2,2.52-3.65.04-7.31-.16-10.93-.61l1.39,2.62v-.03c0-.08-.18-.35-.19-.39-.16-.31-.32-.62-.49-.93s-.33-.62-.5-.92c-.03-.06-.16-.37-.21-.38-4.61-.59-9.29-1.47-13.51-3.49-1.6-.76-3.17-1.72-4.37-3.04-.24-.27-.47-.55-.67-.85-.06-.09-.11-.18-.17-.27-.18-.27,1.33,2.78.98,1.83-.07-.18-.14-.36-.2-.55-.16-.54-.28-1.14-.19-1.7.15-.97.32-1.91.78-2.78.42-.79.98-1.48,1.63-2.1,1.57-1.5,3.57-2.51,5.57-3.3,5.34-2.09,11.24-2.79,16.93-3.01,6.22-.24,12.54.17,18.63,1.47,2.58.55,5.15,1.27,7.58,2.32,1.9.82,3.79,1.86,5.24,3.36.44.46.82.96,1.16,1.5l-.21-.38c-.93-1.87-1.22-2.41-.87-1.61.06.13.11.26.15.39.06.17.11.35.15.53.09.39.13.79.14,1.19,0,.09.17.35.19.39.16.31.32.62.49.93s.33.62.5.92c.05.09.21.29.21.38Z"/>
  </g>
</svg>