<?xml version="1.0" encoding="UTF-8"?>
<svg id="Layer_1" data-name="Layer 1" xmlns="http://www.w3.org/2000/svg" viewBox="0 0 900 900">
  <defs>
    <style>
      .cls-1, .cls-2 {
        fill: #3f4040;
      }

      .cls-3 {
        fill: #6fbd44;
      }

      .cls-2 {
        font-family: Apple-Chancery, 'Apple Chancery';
        font-size: 37.55px;
      }

      .cls-4 {
        fill: #ab4d9c;
        opacity: .77;
      }
    </style>
  </defs>
  <rect class="cls-4" width="900" height="900"/>
  <g>
    <g>
      <path class="cls-3" d="m660.55,315.44c0,200.86-264.15,200.87-302.35,360.89-.36,1.49-2.54,1.13-2.43-.39,2.38-28.41,10.5-52.39,22.58-73.3,2.37-9.5,10.36-33.99-1.78-40.17-12.42-6.31-17.38-1.2-19.69,2.31-3.99,6.02,10.31,12.57,10.92,7.01.61-5.56-5.03-5.13-3.84-7.12,1.18-1.99,14.33,4.72,8.75,10.57-5.58,5.86-24.79-.14-20.6-12.75,5.43-16.28,26.85-9.68,31.43-5.42,9.04,8.41,7.99,19.11,7.18,25.09-.12.87-.46,1.92-.97,3.09,28.77-39.06,71.57-67.05,113.22-95.29,8.96-11.86,33.76-40.66,20.74-56.11-13.43-15.92-23.24-11.74-28.45-8.28-9.01,5.98,6.89,23.3,10.95,16.02,4.09-7.31-3.93-10.01-1.14-12.06,2.79-2.07,16.99,14.85,5.91,19.67-11.09,4.81-34.06-14.63-20.94-29.54,16.93-19.28,42.58,2.27,46.42,10.8,7.55,16.81-.1,30.94-4.69,38.71-.33.56-.78,1.16-1.3,1.78,54.84-39.23,101.31-83.49,101.31-161.03,0-6.05-.25-12.12-.75-18.17.33,6.04.32,10.89.32,10.89-5-11.11-16.49-44.78-34.56-41.38-18.07,3.39-19.12,12.74-18.73,18.27.68,9.5,20.9,4.84,17.07-1.46-3.84-6.31-9.4-1.33-9.76-4.36-.38-3.03,18.79-6.6,17.68,4.02-1.11,10.62-26.04,19.8-31.81,3.25-7.44-21.41,20.28-31.73,28.5-30.97,16.21,1.5,23.73,13.52,27.7,20.44.65,1.14,1.2,2.77,1.66,4.72-7.03-45.7-27.72-89.77-59.41-125.04-11.28-5.59-39.53-22.08-50.52-8.67-11.27,13.79-6.23,21.36-2.48,25.22,6.44,6.62,18.5-9.46,11.74-11.73-6.79-2.28-7.79,4.88-9.95,2.86-2.17-2.02,9.81-16.61,15.6-8.06,5.79,8.57-6.95,30.91-21.54,22.24-18.85-11.21-4.77-36.15,1.79-40.7,12.94-9,26.01-4.78,33.26-2.14.51.19,1.05.45,1.65.79-38.2-33.37-88.18-55.2-146.79-56.97-9.07,3.57-32.5,11.12-30.53,24.09,2.05,13.42,8.91,14.44,13,14.28,7.03-.25,4.1-15.3-.64-12.62-4.75,2.67-1.21,6.89-3.47,7.09-2.25.19-4.39-14.04,3.41-12.94,7.8,1.1,13.94,19.72,1.59,23.54-15.97,4.94-22.89-15.77-22.13-21.82,1.53-11.92,10.6-17.16,15.8-19.9,1.27-.68,3.37-1.14,5.78-1.47-39.16,2.89-74.76,23.46-99.85,52.49-2.33,6.92-9.32,24.01-.92,29.15,8.7,5.32,12.59,1.86,14.49-.55,3.25-4.16-6.8-9.75-7.55-5.73-.77,4.02,3.37,4.03,2.38,5.42-.97,1.39-10.17-4.28-5.78-8.22,4.41-3.94,18.05,1.53,14.28,10.47-4.88,11.56-20.12,5.52-23.21,2.15-6.1-6.63-4.72-14.37-3.8-18.69.16-.69.52-1.55,1.05-2.48-17.55,24.42-28.01,53.34-28.01,82.27,0,14.33,3.87,27.99,10.46,40.17,5.01,4.28,16.39,14.98,23.15,9.88,7.09-5.36,5.55-9.63,4.19-11.95-2.34-3.97-10.1,2.41-7.09,4.3,3.03,1.91,4.36-1.44,5.17-.2.81,1.23-6.72,6.89-8.52,2.07-1.79-4.84,7.02-14.18,13.09-8.25,7.81,7.66-1.96,18.1-5.69,19.54-7.08,2.73-12.77-.52-16.03-2.67,17.55,22.88,45.08,38.04,72.23,38.04,5.03,0,9.92-.77,14.59-2.2,4.16-6.92.27-19.27-7.08-17.82-9.23,1.82-4.39,14.69.61,9.32,3.65-5.27-1.36-6.75-1.36-6.75.03-.95.43-1.36,1.33-.91s4.2,1.89,2.69,6.98c-1.65,5.49-7.76,5.65-10.27.97-2.56-4.77.16-12.23,8.44-12.98,6.98-.62,10.47,5.4,11.3,9.97.69,3.84.06,7.32-.49,9.37,20.81-8.74,35.95-30.32,35.95-51.9,0-19.08-18.27-34.98-34.98-34.98-11.67,0-20.99,10.5-20.99,20.99,0,7.63,7.01,14,14,14,3.84,0,6.99-3.81,6.99-7.01s-3.71-6.99-6.99-6.99c3.6,0,10.07,1.75,10.07,7.45s-4.93,9.35-9.85,9.35c-9.35,0-18-5.72-18-17.65,0-13.92,11.68-24.66,26.39-24.66,18.34,0,38.88,18.62,38.88,39.58,0,30.72-27.96,61.46-61.17,61.46-49.38,0-99.88-45.66-99.88-99.88,0-80.51,73.82-161.03,160.76-161.03,157.29,0,260.33,130.75,260.33,260.33Z"/>
      <path class="cls-3" d="m249.08,212.88c4.5,9.31,22.67,10.27,23.7.79,1.17-10.79-14.65-9.89-10.46-2.55,4.54,5.84,7.88.83,7.88.83,1.04.36,1.35.94.55,1.77s-3.52,3.98-8.6.55c-5.47-3.69-3.55-10.47,2.46-11.63,6.11-1.17,13.4,4.39,11.38,13.75-1.7,7.89-9.53,9.66-14.84,9-7.02-.88-12-5.07-12-5.07l-.08-7.45Z"/>
      <path class="cls-3" d="m317.26,98.5c-4.87,9.12,5.06,24.37,13.33,19.61,9.41-5.41-.64-17.67-4.1-9.95-2.04,7.11,3.97,6.85,3.97,6.85.32,1.05.04,1.65-1.11,1.49-1.14-.16-5.29-.5-5.51-6.62-.24-6.59,6.37-9.04,10.84-4.87,4.55,4.25,4.35,13.41-4.4,17.3-7.38,3.27-13.42-2-16.02-6.69-3.43-6.19-2.98-12.68-2.98-12.68l5.97-4.45Z"/>
      <path class="cls-3" d="m460.99,83.21c-14.54,2.88-22.44,27.74-9.65,32.59,14.54,5.52,19.01-16.76,7.31-13.59-9.74,4.19-4,10.63-4,10.63-.88,1.31-1.8,1.54-2.66.13-.86-1.41-4.25-6.32,2.34-12.12,7.1-6.26,15.81-1.15,15.24,7.61-.58,8.91-10.93,17.01-23.18,10.83-10.33-5.21-9.96-16.71-7.12-23.84,3.75-9.42,11.36-14.82,11.36-14.82l10.36,2.58Z"/>
      <path class="cls-3" d="m596.41,188.8c-13.43-8.19-37.44,5.59-30.93,18.55,7.41,14.75,26.89.54,15.46-5.38-10.62-3.71-10.75,5.44-10.75,5.44-1.63.4-2.51-.09-2.17-1.81s1.21-7.99,10.52-7.8c10.04.2,13.19,10.45,6.46,16.89-6.84,6.55-20.75,5.46-25.89-8.17-4.33-11.48,4.2-20.21,11.54-23.75,9.69-4.68,19.51-3.44,19.51-3.44l6.25,9.46Z"/>
      <path class="cls-3" d="m611.9,385.18c.03-21.79-33.55-40.31-44.22-23.27-12.13,19.38,18.71,32.22,17.49,14.43-3.25-15.24-14.18-8.81-14.18-8.81-1.64-1.64-1.7-3.04.58-3.87s10.33-4.31,16.81,6.85c6.98,12.03-2.89,23.13-15.35,19.8-12.68-3.39-21.39-20.63-8.96-36.53,10.48-13.39,26.95-9.57,36.42-3.43,12.51,8.11,18.11,20.63,18.11,20.63l-6.7,14.2Z"/>
      <path class="cls-3" d="m442.8,528.94c11.35-21.4-12.02-57.04-31.36-45.84-21.99,12.74,1.63,41.38,9.69,23.27,4.73-16.67-9.36-16.03-9.36-16.03-.76-2.47-.09-3.87,2.58-3.5,2.68.36,12.39,1.13,12.96,15.46.61,15.45-14.85,21.23-25.37,11.47-10.69-9.92-10.3-31.39,10.18-40.55,17.25-7.71,31.45,4.6,37.56,15.56,8.08,14.47,7.07,29.68,7.07,29.68l-13.96,10.47Z"/>
      <path class="cls-3" d="m360.5,641.75c-1.87-11.52-21.21-18.4-25.37-8.47-4.74,11.29,12.66,15.41,10.49,6.12-3.03-7.77-8.25-3.43-8.25-3.43-1.01-.73-1.16-1.46-.03-2.1s5.09-3.17,9.47,2.16c4.73,5.75.47,12.47-6.4,11.78-6.99-.7-13.08-9.05-7.89-18.52,4.38-7.98,13.41-7.38,18.94-4.96,7.31,3.21,11.35,9.34,11.35,9.34l-2.31,8.08Z"/>
      <path class="cls-3" d="m304.04,301.41c2.84-1.12,16.59-4.78,12.56-16.71-4.02-11.93-16.05.23-12.26,3.27,2.83,2.26,8.28,1.58,8.44-3.21s3.89.71,1.11,4.25c-2.78,3.54-9.22,4.02-11.86.33-2.16-3.02-2.23-5.7.92-9.4,4.78-5.62,12.43-4.07,15.45-1.5s6.9,9.65,2.58,16.13c-4.33,6.47-10.5,9.01-10.5,9.01l-6.43-2.16Z"/>
      <path class="cls-3" d="m388.31,276.84c.07-4.35,1.47-16.97-4.88-18.62-6.36-1.65-8.12,1.21-8.83,3.06-1.23,3.18,6.02,4.74,5.74,2.12s-2.84-1.86-2.49-2.89,7.08.72,5.1,3.98-11.42,2.44-10.77-3.78c.85-8.04,11.37-7.17,13.91-5.68,5.01,2.95,5.61,7.98,5.85,10.82s-3.63,10.99-3.63,10.99Z"/>
    </g>
    <g>
      <path class="cls-1" d="m362.59,759.01c2.2-3.3,19.44-9.54,24.58-16.87,5.14-7.34,6.6-16.87,3.3-17.24s-1.83,5.87-4.77,6.24-1.24-15.04,6.53-12.84,6.7,13.23,5.52,15.84c-1.33,2.93-1.22,5.75.75,8.14.97,1.18.36,4.56-1.79,6.1-3.21,2.31,0,6.23,1.1,7.34,1.75,1.78,3.1,4.98,1.6,6.6-3.3,3.59-.17,2.72-.61,8.04-.23,2.84-3.4,1.03-4.14,4.7-.73,3.67,3.14,9.63-.89,12.93-4.04,3.3-2.93-4.2-5.87-2.83-2.93,1.36,8.44,29.24-.73,32.18-5.29,1.69-11.88-7.87-8.44-9.54,5.97-2.89,1.28,6.03,6.6,3.3,2.57-1.32-3.67-14.67-8.8-17.24s-16.87-19.44-15.41-27.15l1.47-7.7Z"/>
      <path class="cls-1" d="m357.74,759.74c.81-3.38,8.72-10.26,10.64-17.77s1.89-17.08.25-17.32-.43,5.92-1.83,6.4-1.79-14.95,2.17-13.05,4.31,12.93,3.94,15.57c-.42,2.97-.14,5.78,1.01,8.09.56,1.14.53,4.53-.39,6.15-1.38,2.42.5,6.21,1.11,7.27,1,1.71,1.9,4.84,1.3,6.52-1.33,3.71.13,2.72.34,8.04.11,2.84-1.58,1.16-1.64,4.84s2.29,9.48.59,12.93-1.76-4.07-3.08-2.6c-1.32,1.47,6.42,28.83,2.18,32.11-2.44,1.89-6.41-7.39-4.86-9.18,2.68-3.11,1.1,5.96,3.48,3.04,1.15-1.41-2.94-14.49-5.65-16.85-2.7-2.36-9.75-18.73-9.65-26.47l.11-7.74Z"/>
      <path class="cls-1" d="m362.71,756.04c-2.04-1.94-3.41-2.5-3.83-5.73,0,0,1.58,2.77,2.93.97-1.3.58-2.16-.65-2.08-1.11.72.5,1.28.02,1.66-.28-1.47.49-2.15-.71-2.15-.71,1.3.43,4.64.06,4.48-2.63-.12-2.12,1.27-3.13,2.26-4.52,3.03-4.26.18-4.06,1.36-8.34.4-1.45-1.69-1.72-2.41-3.87-1.02-3.06-2.1-1.77-3.73-3.24-.83-.75-3.41-2.01-5.4-1.98s-3.2,1.33-5.5,1.1c-5.03-.5-6.67,2.99-6.39,4.52.18.98.75.98.75.98-1.45,1.17-1.33,3.58-1.69,4.54-.7,1.92-3.4,2.04-3.56,2.86s1.26,1.29,1.26,2.11-1.17.68-.09,2.2c-.77.65-.55.6-.07,1.06.42.4-1.13,2.77,0,3.59,2.14,1.54,5.55.82,5.55.82.75,2.29,2.48,6.63.82,7.67-2.31,1.44-3.65,1.4-10.98,10.65-6.32,7.97-7.04,6.23-7.04,6.23-.54-2.71-7.57-13.92-7.57-16.09,0-4.12-.58-4.62-1.06-5.45s-1.23-1.84-1.09-2.06c.48-.04,1.71-.24,1.71-.51s-2.19-.19-2.19-.19c-.22-.31-.83-.85-1.05.19-.22-.23-.44-.45-.44-.45.79-.79,2.8-2.23,2.58-2.54s-2.76.88-2.93,1.44c.39-1.01,1.84-4.46,1.36-4.59s-1.88,3.15-1.88,3.15c.09-.74.53-3.02,0-2.98s-1.58,5.95-1.36,7.79,1.53,4.77,2.63,5.91,6.2,25.15,9.89,26.25c2.63.79,11.63-8.35,11.63-8.35-9.38,3-3.22,9.45,0,9.79,0,0-1.9,3.34-1.9,6.09,0,.64-2.6,3.97-2.65,6.17l-3.11-1.35c-2.71-1.2-11.54-6.76-14.98-4.55-3.17,2.03-4.3,4.47-6.36,7.39-2.75-1.72-9.28-3.09-12.71,3.09-3.44,6.19-20.96,28.69-25.26,33.5-4.3,4.81-13.23,15.12-12.37,16.84s5.5.69,11.68-4.47c6.19-5.15,12.03-.17,15.63-4.64,3.61-4.47,4.12-9.79,9.79-15.29,5.67-5.5,17.7-11.85,17.7-11.85,8.76,4.81,29.65,10.21,37.48,9.73,10.67-.66,13.47-11.66,11.93-17.46-1.73-6.49-4.22-9.1-3.55-12.91,1.63-9.23.87-14.75,1.9-11.32s3.95,5.67,4.12,9.11c.17,3.44,4.3,12.71,6.01,14.78s5.94,12.54,5.51,15.51c-.57,3.94-2.87,5.5-2.15,5.98.86.57,2.76-2.55,3.73-2.82,1.18,2.28,6.79,4.3,9.75,3.33,2.02-.67,2.65-1.22.58-2.51-1.95-1.22-3.86-1.37-7.13-6.7-3.26-5.33-3.42-15.53-5.65-20.86-2.23-5.33-6.01-13.97-6.01-21.57,0-6.95.68-7.58-1.73-14.82-1.8-5.4-6.64-6.58-6.64-6.58Z"/>
    </g>
    <g>
      <text class="cls-2" transform="translate(236.52 188.41) rotate(-76.87)"><tspan x="0" y="0">I</tspan></text>
      <text class="cls-2" transform="translate(240.9 170.41) rotate(-70.82)"><tspan x="0" y="0">t</tspan></text>
      <text class="cls-2" transform="translate(245.95 156.4) rotate(-66.61)"><tspan x="0" y="0">’</tspan></text>
      <text class="cls-2" transform="translate(249.64 147.78) rotate(-62.54)"><tspan x="0" y="0">s</tspan></text>
      <text class="cls-2" transform="translate(256.63 134.58) rotate(-58.16)"><tspan x="0" y="0"> </tspan></text>
      <text class="cls-2" transform="translate(262.82 124.37) rotate(-52.99)"><tspan x="0" y="0">a</tspan></text>
      <text class="cls-2" transform="translate(275.55 107.93) rotate(-47.94)"><tspan x="0" y="0">l</tspan></text>
      <text class="cls-2" transform="translate(283.41 99.3) rotate(-44.3)"><tspan x="0" y="0">l</tspan></text>
      <text class="cls-2" transform="translate(291.81 91.17) rotate(-40.56)"><tspan x="0" y="0"> </tspan></text>
      <text class="cls-2" transform="translate(300.78 83.31) rotate(-35.32)"><tspan x="0" y="0">a</tspan></text>
      <text class="cls-2" transform="translate(317.86 71.54) rotate(-29.92)"><tspan x="0" y="0"> </tspan></text>
      <text class="cls-2" transform="translate(327.74 65.22) rotate(-22.56)"><tspan x="0" y="0">m</tspan></text>
      <text class="cls-2" transform="translate(356.19 53.89) rotate(-13)"><tspan x="0" y="0">y</tspan></text>
      <text class="cls-2" transform="translate(377.34 49.3) rotate(-5.99)"><tspan x="0" y="0">s</tspan></text>
      <text class="cls-2" transform="translate(392.1 47.94) rotate(-1.06)"><tspan x="0" y="0">t</tspan></text>
      <text class="cls-2" transform="translate(406.79 47.83) rotate(2.95)"><tspan x="0" y="0">e</tspan></text>
      <text class="cls-2" transform="translate(422.43 48.66) rotate(6.35)"><tspan x="0" y="0">r</tspan></text>
      <text class="cls-2" transform="translate(439.58 50.54) rotate(10.52)"><tspan x="0" y="0">y</tspan></text>
      <text class="cls-2" transform="translate(461.23 54.8) rotate(13.95)"><tspan x="0" y="0">,</tspan></text>
      <text class="cls-2" transform="translate(470.51 57.12) rotate(16.35)"><tspan x="0" y="0">	</tspan></text>
      <text class="cls-2" transform="translate(473.95 58.07) rotate(17.14)"><tspan x="0" y="0"> </tspan></text>
      <text class="cls-2" transform="translate(485.86 61.8) rotate(19.86)"><tspan x="0" y="0">l</tspan></text>
      <text class="cls-2" transform="translate(496.92 65.79) rotate(22.93)"><tspan x="0" y="0">e</tspan></text>
      <text class="cls-2" transform="translate(511.32 71.95) rotate(26.36)"><tspan x="0" y="0">t</tspan></text>
      <text class="cls-2" transform="translate(524.76 78.71) rotate(29.4)"><tspan x="0" y="0"> </tspan></text>
      <text class="cls-2" transform="translate(535.36 84.72) rotate(32.19)"><tspan x="0" y="0">i</tspan></text>
      <text class="cls-2" transform="translate(546.25 91.59) rotate(35.29)"><tspan x="0" y="0">t</tspan></text>
      <text class="cls-2" transform="translate(558.45 100.33) rotate(38.27)"><tspan x="0" y="0"> </tspan></text>
      <text class="cls-2" transform="translate(568.02 107.88) rotate(41.36)"><tspan x="0" y="0">c</tspan></text>
      <text class="cls-2" transform="translate(580.06 118.51) rotate(45.01)"><tspan x="0" y="0">o</tspan></text>
      <text class="cls-2" transform="translate(592.68 130.81) rotate(50.2)"><tspan x="0" y="0">m</tspan></text>
      <text class="cls-2" transform="translate(612.31 154.98) rotate(55.09)"><tspan x="0" y="0">e</tspan></text>
      <text class="cls-2" transform="translate(621.31 168.05) rotate(58.04)"><tspan x="0" y="0"> </tspan></text>
      <text class="cls-2" transform="translate(628.08 178.13) rotate(62.92)"><tspan x="0" y="0">&amp;</tspan></text>
      <text class="cls-2" transform="translate(643.66 209.89) rotate(67.9)"><tspan x="0" y="0"> </tspan></text>
      <text class="cls-2" transform="translate(648.45 221.82) rotate(70.55)"><tspan x="0" y="0">l</tspan></text>
      <text class="cls-2" transform="translate(652.37 232.91) rotate(73.44)"><tspan x="0" y="0">e</tspan></text>
      <text class="cls-2" transform="translate(656.78 247.96) rotate(76.7)"><tspan x="0" y="0">t</tspan></text>
      <text class="cls-2" transform="translate(660.17 262.63) rotate(79.63)"><tspan x="0" y="0"> </tspan></text>
      <text class="cls-2" transform="translate(662.33 274.64) rotate(82.37)"><tspan x="0" y="0">i</tspan></text>
      <text class="cls-2" transform="translate(664.02 287.38) rotate(85.45)"><tspan x="0" y="0">t</tspan></text>
      <text class="cls-2" transform="translate(665.13 302.37) rotate(88.52)"><tspan x="0" y="0"> </tspan></text>
      <text class="cls-2" transform="translate(665.53 314.46) rotate(92.39)"><tspan x="0" y="0">b</tspan></text>
      <text class="cls-2" transform="translate(664.57 334.17) rotate(97.21)"><tspan x="0" y="0">e</tspan></text>
      <text class="cls-2" transform="translate(662.46 349.64) rotate(100.93)"><tspan x="0" y="0">.</tspan></text>
    </g>
  </g>
</svg>