<?xml version="1.0" encoding="UTF-8"?>
<svg id="Layer_3" data-name="Layer 3" xmlns="http://www.w3.org/2000/svg" xmlns:xlink="http://www.w3.org/1999/xlink" viewBox="0 0 564.37 283.08">
  <defs>
    <style>
      .cls-1 {
        fill: none;
      }

      .cls-2 {
        fill: url(#linear-gradient);
      }

      .cls-3 {
        fill: #f4f4f4;
      }

      .cls-4 {
        fill: #e2e2e2;
      }

      .cls-5 {
        fill: #a6a5a6;
      }

      .cls-6 {
        fill: #bcbbbc;
      }

      .cls-7 {
        fill: #d1d0d1;
      }

      .cls-8 {
        font-size: 93.4px;
      }

      .cls-8, .cls-9, .cls-10, .cls-11, .cls-12, .cls-13, .cls-14, .cls-15, .cls-16, .cls-17, .cls-18, .cls-19, .cls-20, .cls-21, .cls-22 {
        fill: #221f20;
        font-family: Alisha-Regular, Alisha;
      }

      .cls-8, .cls-9, .cls-10, .cls-11, .cls-12, .cls-13, .cls-14, .cls-15, .cls-16, .cls-17, .cls-18, .cls-19, .cls-20, .cls-21, .cls-22, .cls-23 {
        isolation: isolate;
      }

      .cls-9 {
        font-size: 93.4px;
      }

      .cls-10 {
        font-size: 93.4px;
      }

      .cls-11 {
        font-size: 93.41px;
      }

      .cls-12 {
        font-size: 93.41px;
      }

      .cls-13 {
        font-size: 93.4px;
      }

      .cls-14 {
        font-size: 93.4px;
      }

      .cls-15 {
        font-size: 93.4px;
      }

      .cls-16 {
        font-size: 93.4px;
      }

      .cls-17 {
        font-size: 93.4px;
      }

      .cls-18 {
        font-size: 93.4px;
      }

      .cls-19 {
        font-size: 93.41px;
      }

      .cls-20 {
        font-size: 93.41px;
      }

      .cls-21 {
        font-size: 93.4px;
      }

      .cls-22 {
        font-size: 93.4px;
      }

      .cls-23 {
        fill: #929193;
      }

      .cls-23, .cls-24 {
        opacity: .9;
      }

      .cls-25 {
        opacity: .78;
      }
    </style>
    <linearGradient id="linear-gradient" x1="5.37" y1="-576.8" x2="560.63" y2="-674.73" gradientTransform="translate(0 786)" gradientUnits="userSpaceOnUse">
      <stop offset="0" stop-color="#dfc16d"/>
      <stop offset=".44" stop-color="#dfc16d"/>
      <stop offset=".51" stop-color="#dfc16d"/>
      <stop offset=".68" stop-color="#582d65"/>
      <stop offset=".99" stop-color="#582d65"/>
    </linearGradient>
  </defs>
  <g id="VO2u8J.tif" class="cls-25">
    <g>
      <path class="cls-1" d="m104.48,96.45c35.24-2.18,66.56,8.7,94.84,18.71,26.54,9.57,50.9,21.32,73.52,34.8,3.48,2.18,5.22,2.18,8.7-.44,16.97-13.49,55.25-76.57,123.99-100.06,56.12-20.01,95.71-8.7,129.64,18.71,30.02,24.8,44.37,88.31-4.79,125.29-25.67,17.84-58.3,33.06-106.59,27.84-47.42-4.79-89.18-28.71-127.03-49.6-8.27-4.35-8.7-5.22-15.66,1.31-32.63,32.19-57.43,66.13-104.41,88.75-56.99,25.23-95.71,23.06-137.47-2.18-21.75-15.23-29.15-37.85-33.93-52.21-6.53-23.93-6.09-55.69,21.75-79.61,21.75-18.71,48.72-28.71,77.44-31.32h0Zm348.04-24.36c-21.75,1.31-35.67,4.79-49.16,9.57-43.94,14.79-74.83,51.77-106.59,78.74-2.61,2.18-.87,2.61.87,3.92,8.7,5.22,17.4,10.01,26.54,14.79,30.89,15.66,63.95,26.97,101.8,28.71,39.59,2.18,73.52-8.27,98.76-33.06,26.1-25.67,16.53-73.96-15.66-91.36-19.14-9.57-40.89-11.75-56.56-11.31h0ZM119.27,244.36c4.35-.44,8.7-.87,13.49-1.74,2.18-.44,3.92-.87,6.09-.87,54.38-12.62,97.45-46.11,131.38-82.66,2.18-2.18,1.31-2.61-.87-3.92-29.15-18.27-60.91-33.5-97.88-41.76-45.24-10.44-86.14-3.48-120.94,23.06-33.5,26.1-26.97,77.87,8.7,97.45,18.27,9.57,38.72,11.31,60.04,10.44h0Z"/>
      <g class="cls-24">
        <g class="cls-24">
          <path class="cls-7" d="m31.82,183.89c.43-.87,0-8.7,2.18-16.1s5.66-14.36,6.96-15.66c.43-.87,1.31-1.74,2.18-3.05.87-.87,1.74-2.18,2.61-3.48,1.74-2.61,4.79-4.79,7.4-7.4,6.53-4.79,13.92-10.01,21.32-13.92,7.4-3.92,15.23-6.96,20.88-8.7,5.66-1.74,9.57-2.18,9.57-2.18-.43.44,13.49,0,19.14-.44,14.36-.44,29.15.44,40.89,2.18,6.09.87,6.96.87,9.57,1.74.87.44,4.35.44,12.18,2.18,5.22,1.31,12.18,3.48,16.97,5.22,4.79,1.31,14.36,4.79,23.93,9.14,9.57,4.35,18.71,9.14,23.93,11.75,4.35,2.18,8.7,4.79,12.18,6.53,1.74.87,3.05,1.74,4.35,2.61.87.44,1.31.87,2.18,1.31.43.87,0,1.31-.43,2.18-2.18,2.18-4.35,4.79-6.96,7.4-2.61,2.61-5.22,5.22-8.27,7.83-8.7,8.27-16.53,15.23-26.1,22.62-10.44,7.83-17.84,13.05-29.15,19.58-10.88,6.09-20.88,10.88-33.06,15.66-1.74.44-3.48,1.31-4.35,1.74-1.31.44-4.35,1.74-6.09,2.18-2.61.87-5.22,1.31-7.4,2.18-2.61.44-4.79,1.31-7.4,1.74-2.61.87-4.79.87-7.4,1.31-2.61.44-5.22.87-7.83.87-3.05.44-6.96.87-6.09,1.31h9.14c3.92,0,8.27-.44,13.05-1.31,8.7-1.31,20.01-5.22,30.89-9.57,15.23-6.09,25.67-11.31,33.5-14.36,5.22-2.61,9.57-3.48,20.88-12.18,13.05-10.01,23.93-20.45,36.11-31.76.87-.87,2.18-2.18,3.05-3.05.43-.44.87-.87,1.74-1.31l1.74-2.18c1.31-1.31,2.61-2.61,3.48-3.92l1.74-2.18c.43-.87,1.31-1.31,1.31-2.18.43-.87.43-1.74,0-3.05,0-.87-.43-1.74-1.31-2.61-1.31-1.31-3.48-2.18-4.79-3.48-3.92-2.61-5.66-3.92-8.7-5.22-1.31-.87-7.4-4.35-9.14-5.22-11.75-6.53-26.1-13.49-35.24-16.1-13.92-5.22-21.32-7.83-32.63-10.88-14.79-3.48-30.02-5.66-47.85-6.09-10.01,0-19.58.44-29.15,2.18-1.74.44-5.66.87-9.57,1.74s-7.83,1.74-9.57,2.18c-6.96,1.74-16.53,6.53-22.19,10.01-2.18,1.31-4.79,3.05-6.96,4.79-2.18,1.74-4.79,3.48-6.96,5.22-1.31.87-2.18,1.74-3.48,2.61-1.31.87-2.18,2.18-3.48,3.05-2.61,2.18-4.35,4.79-6.53,7.4-1.31,1.74-2.61,3.92-3.92,6.09-1.31,2.18-2.18,4.35-3.48,6.53-1.31,3.05-2.18,5.66-2.61,8.7-.43,2.61-.87,5.22-1.31,8.27-.43,5.22,0,10.44.87,15.66,1.74,10.01,4.79,16.97,7.4,21.32.87,1.31,1.31,2.18,1.74,3.05.43.87,1.31,1.74,1.74,2.18.87,1.31,1.74,2.18,2.61,3.05,2.61,3.05,2.18,2.18,2.61,2.61,1.31,1.31,2.18,2.61,3.48,3.92,1.31,1.31,2.18,2.18,4.35,3.92,2.61,2.18,5.66,3.92,8.7,5.22,3.05,1.31,5.22,2.61,7.4,3.05,12.62,4.35,28.71,6.09,45.24,6.09h-2.61c-11.75-.44-22.19-1.74-32.19-4.79-10.01-3.05-20.01-7.83-29.15-15.66-1.74-1.74-3.92-3.92-5.66-5.66-1.31-2.18-3.05-3.92-4.35-6.09-1.31-2.18-2.18-3.92-3.48-6.09-.87-1.74-1.74-3.92-2.18-6.53-.43-2.18-1.31-4.79-1.31-6.96s-.43-4.35-.43-6.09c-.87-.87-.87-1.74-.44-2.61h0Z"/>
          <path class="cls-23" d="m172.34,231.75c-10.88,4.35-22.19,7.83-30.89,9.57-9.14,1.74-17.4,1.74-21.75,1.31-.87,0,3.48-.87,6.09-1.31,5.22-.87,10.01-1.31,14.79-2.18,2.61-.44,4.79-1.31,7.4-1.74,2.61-.87,5.22-1.31,7.4-2.18,1.74-.44,4.79-1.74,6.09-2.18,1.31-.44,3.05-1.31,4.35-1.74,12.18-4.79,22.19-9.57,33.06-15.66,11.31-6.53,18.71-11.75,29.15-20.01,10.01-7.4,17.4-14.36,26.1-22.62,3.05-2.61,5.66-5.22,8.27-7.83,2.18-2.61,4.35-4.79,6.53-6.96.43-.44.87-1.31.43-2.18-.43-.44-1.31-.87-2.18-1.31-1.31-.87-3.05-1.74-4.79-2.61-3.48-2.18-7.4-4.35-12.18-6.53-4.79-2.61-14.36-7.4-23.93-11.75-9.57-4.35-19.14-7.83-23.93-9.14-4.79-1.31-11.75-3.92-16.97-5.22,0,0-3.92-1.31-12.18-3.92,31.76,6.53,62.21,19.14,90.92,35.24l3.92,2.18c1.31.87,2.61,1.31,3.48,3.05,0,1.74-1.31,2.61-2.18,3.92l-3.05,3.48c-2.18,2.18-3.92,4.35-6.09,6.09-2.18,2.18-3.92,3.92-6.09,5.66-7.83,7.83-16.53,15.23-25.23,22.19-16.53,13.92-35.67,26.1-56.56,34.37h0Z"/>
          <path class="cls-5" d="m185.83,119.07s-10.44-2.61-20.88-4.79c-10.01-1.74-20.01-2.61-17.84-3.48h5.66c3.48,0,8.7.44,14.79,1.31,11.75,1.31,26.54,4.79,38.28,9.14,0,0,4.35,1.31,9.57,3.48,5.22,2.18,11.75,4.79,15.66,6.96,0,0,15.23,7.83,31.76,16.97,0,0,.87.44,3.05,1.74.87.87,2.18,1.31,3.92,2.18.87.44,1.74.87,2.18,1.74.87.44,1.31,1.74.87,2.61-.43.87-.87,1.74-1.74,2.61-.87.87-1.31,1.74-2.18,2.61-1.31,1.74-3.48,3.92-4.79,5.22-3.05,3.48-6.53,6.96-10.01,10.44-13.92,13.92-30.89,26.1-33.06,27.41,0,0-1.74.87-4.35,3.05-2.61,1.74-6.09,3.92-10.01,6.09-3.92,2.18-7.83,4.35-11.31,6.53-3.48,1.74-6.53,3.48-8.7,4.35,0,0-3.05.87-7.4,3.05-4.35,1.74-10.44,3.92-16.97,6.53,0,0-.43.44-1.74.44-.87.44-2.61.87-4.35,1.31-3.48.87-7.83,2.18-11.75,3.05-3.92.87-6.96,1.31-7.83,1.31s.43,0,5.66-1.74c0,0,3.05-.87,6.53-1.74,3.48-1.31,8.27-2.61,11.31-3.92,0,0,1.31-.44,3.48-1.31,2.18-.87,5.66-2.18,9.57-3.92,7.83-3.48,18.27-8.27,28.28-14.36,10.01-6.09,19.58-12.62,26.97-18.27,7.4-5.66,12.18-10.01,13.49-10.88,0,0,1.31-.87,3.48-3.05,2.18-2.18,5.22-4.35,8.7-7.83,3.48-3.48,7.83-7.4,12.18-12.18,1.31-1.31,2.18-2.18,3.48-3.48.43-.44,1.31-1.31,1.31-2.18s-.87-1.31-1.31-1.74c-3.05-1.74-6.09-3.92-9.14-5.66-12.62-7.4-26.97-14.36-40.02-20.01-13.49-4.35-26.1-7.83-34.8-9.57h0Z"/>
          <path class="cls-6" d="m184.52,119.07s-6.96-1.74-15.66-3.05c-8.7-1.74-19.58-3.05-26.97-3.92,0,0-3.05-.44-6.96-.44-3.92-.44-9.14-.44-13.92,0-9.57.44-17.84,1.31-10.88,0,0,0,.87,0,2.18-.44s3.92-.87,6.53-1.31c5.66-.87,13.92-1.74,23.49-1.74,19.58,0,44.81,5.22,67.43,13.92,0,0,3.48,1.31,13.92,5.22,0,0,6.09,2.61,13.05,5.66,7.4,3.48,15.23,7.83,20.01,10.88,0,0,1.74.87,4.35,2.61,1.31.87,3.05,2.18,5.22,3.05,1.31.87,2.18,1.74,3.48,2.61,1.31.87,2.61,1.74,3.48,3.05.43.44.87,1.31.87,2.18s-.43,1.31-.87,2.18c-.87,1.31-2.18,2.18-3.05,3.48s-2.18,2.18-3.05,3.48l-1.74,1.74-1.31,1.31c-3.48,3.48-6.96,6.53-9.57,9.14,0,0-8.7,7.4-14.79,13.05,0,0,3.92-3.05,9.14-8.27,2.61-2.61,5.66-5.66,9.14-9.14,1.74-1.74,3.48-3.48,5.22-5.22s3.92-4.35,5.66-6.53c.87-1.31,2.18-2.18,3.05-3.48.43-.87.87-1.31.87-2.18s-.87-1.31-1.31-1.74c-2.61-1.74-5.22-3.48-7.83-4.79-4.35-2.61-8.7-4.79-12.62-6.96-7.83-4.35-13.92-7.4-15.66-8.7,0,0-2.18-.87-5.66-2.61-3.48-1.74-8.7-3.92-14.79-6.53-12.62-5.22-29.58-10.44-47.85-12.62,0,0-2.61,0-2.18.87,1.74,0,6.09,1.31,19.58,5.22h0Z"/>
          <path class="cls-4" d="m161.03,116.02c-4.79-.44-10.01-.87-15.23-1.31-3.05,0-7.4-.44-10.88-.44h-12.18c-7.4,0-16.53,1.31-25.23,3.48-8.7,2.18-16.97,5.22-23.06,7.83-1.74.87-3.48,1.74-5.22,2.61-.43.44-2.61,1.31-3.05,1.74-2.61,1.74-5.66,3.48-8.27,5.66-1.31.87-2.61,1.74-3.92,3.05-1.31.87-2.18,2.18-3.48,3.05-7.4,6.53-12.62,14.79-15.66,23.49-.87,2.18-1.31,5.22-2.18,7.83-.43,1.31-.43,3.05-.43,4.35s-.43,3.05,0,4.35c0,4.79,0,7.83.43,10.44,0,1.31.43,2.61.43,4.35.43,1.31.43,3.48,1.74,5.66,2.61,7.4,6.96,13.92,11.75,19.14,2.61,3.05,5.66,5.22,8.27,7.4,3.05,2.18,6.53,4.35,10.01,5.66,8.27,3.92,16.53,6.09,24.8,7.83,6.09,1.31,13.49,1.74,20.45,2.18,1.74,0,5.66.44,5.66.44h-6.96c-6.53,0-10.01-.87-13.92-1.31-5.22-.87-12.18-1.74-18.71-3.92-2.61-.87-4.79-1.74-6.96-2.61-3.48-1.31-8.27-3.48-12.62-6.53-3.05-1.31-5.22-3.92-7.83-6.09-2.18-2.61-4.79-4.79-6.53-7.83-5.22-7.4-9.14-14.36-10.44-21.75.43,1.74,0,.87-.43-1.31,0-.87-.43-2.61-.87-3.92,0-.87-.43-1.74-.43-2.61v-7.83c0-1.74.43-3.05.43-3.92,0-2.18.43-3.05,0-1.31,0-.87.43-2.61.87-3.05,0,0,.43,0,0,.44-.43,4.79.43,4.79.43,6.53,0,0,0-4.79,1.31-10.01.43-2.61,1.74-5.22,2.61-7.83,1.31-2.18,2.18-4.35,3.05-5.66,1.31-2.18,3.05-3.92,4.35-6.09,1.74-1.74,3.48-3.92,5.66-6.09,1.31-1.31,1.74-1.74,3.05-3.05,1.31-1.31,11.31-9.57,22.62-15.66,11.31-6.09,24.36-10.01,26.97-10.44,3.05-.44,7.4-1.31,6.53-.87-.87.87,5.22,0,6.96,0,.43,0-.87.44-.43.44h28.28c6.09,1.31,12.18,2.18,18.27,3.48h0Z"/>
          <path class="cls-1" d="m236.3,197.81s4.79-3.92,11.75-10.01c3.48-3.05,7.4-6.53,11.31-10.88,2.18-2.18,4.35-3.92,6.53-6.09l1.74-1.74c.87-.87,1.31-1.31,2.18-2.18,1.31-1.31,2.61-3.05,4.35-4.35,0,0,.43-.44.87-.87.43-.87,1.31-1.31,2.18-2.61.43-.87.43-1.31.43-2.18s0-1.74-.43-2.61c-.87-1.74-3.05-2.61-4.35-3.92-1.74-1.31-3.48-2.18-5.22-3.48-1.31-.87-2.18-1.31-3.48-2.18-2.18-1.31-3.92-2.18-5.22-3.05l-5.66-3.48s-6.96-3.92-14.79-7.83c-7.83-3.92-16.53-7.4-19.58-8.27,0,0-3.48-1.31-7.4-3.05-3.92-1.31-7.83-3.05-9.14-3.48,0,0-11.75-4.35-26.97-6.96"/>
          <path class="cls-3" d="m44.44,148.65c-1.74,1.74-5.66,7.4-8.27,13.92-3.05,6.53-3.48,13.92-3.92,16.97-.87,10.01,1.31,19.58,5.22,29.15.43.87,1.31,2.18,1.74,3.05,3.48,5.22,8.27,11.31,13.49,15.23,2.18,1.74,4.35,2.61,6.53,4.35,13.05,7.83,27.84,10.88,40.89,12.18,5.66.44,10.44.87,16.1.87h2.61c.43,0-2.18,0-3.92.44h-5.22c-3.92,0-8.7-.44-12.18-.87-3.92-.44-6.96-.87-11.31-1.74-3.05-.44-5.22-1.31-8.27-1.74-5.22-1.31-10.01-3.48-14.79-5.66l-3.48-1.74-3.48-2.18c-.87-.87-2.18-1.31-3.48-2.18l-3.05-2.61c-3.48-2.61-7.4-7.4-10.44-11.31-.87-1.31-1.31-2.61-2.18-3.92-.87-1.74-2.18-3.92-3.05-6.09-.87-2.18-1.74-3.48-1.74-5.22-1.31-5.66-1.74-11.75-1.74-19.14,0-1.31.43-3.92.87-7.4.43-1.74.87-3.48,1.31-5.22.43-1.74,1.31-3.48,1.74-5.22,2.61-6.96,6.96-13.05,9.57-15.23,2.61-3.05,5.66-5.66,8.7-8.7,3.48-2.61,6.96-5.22,10.44-7.4.43,0-.87.87-4.35,3.05-1.74,1.31-3.92,3.05-6.53,5.22-1.31,1.31-2.61,2.18-4.35,3.92-.43,1.31-1.74,3.05-3.48,5.22h0Z"/>
        </g>
      </g>
      <g class="cls-24">
        <g class="cls-24">
          <path class="cls-7" d="m536.91,137.78c0,.87-.87,8.7-3.05,16.1-1.31,3.48-3.05,6.96-4.35,9.57-1.74,2.61-3.05,4.79-3.92,5.22-2.61,3.05-7.4,7.83-13.92,12.62-6.53,4.79-13.92,9.57-21.75,13.05s-15.66,6.09-21.32,7.4c-3.05.87-5.22,1.31-6.96,1.31s-2.61.44-2.61.44c.43-.44-3.05,0-7.4-.44-4.35,0-9.14-.44-12.18-.44-14.79,0-29.58-1.31-41.76-2.61-6.09-.87-6.96-.87-9.57-1.74-.87-.44-4.35,0-12.18-2.18-5.22-1.31-12.18-3.48-16.97-5.22-4.79-1.31-14.36-4.79-23.93-9.14-9.57-4.35-18.27-9.14-23.06-11.75-4.35-2.61-8.7-4.35-12.18-6.53-.87-.44-1.74-.87-2.18-1.31-.87-.44,0-1.74.43-2.18,1.31-1.31,2.61-2.18,3.48-3.48,5.22-4.79,10.01-9.14,16.53-14.79,9.14-8.27,16.53-15.23,26.1-23.06,10.01-8.27,17.4-14.36,28.28-21.32,10.44-6.53,20.88-11.31,33.06-15.66,1.74-.44,3.05-.87,4.35-1.74,1.31-.44,4.35-1.31,6.09-1.74,10.44-2.61,20.01-3.92,30.45-4.79,3.05-.44,6.96-.44,6.09-.87-4.35-.44-12.62-.44-22.19.44-9.14.87-20.45,3.92-31.32,8.27-15.66,5.66-26.1,11.31-33.5,15.23-5.22,2.61-9.57,4.35-20.88,13.05-12.62,10.44-23.06,21.32-35.67,32.63-2.18,1.74-4.35,3.48-6.53,5.22-.87.87-2.18,1.74-3.05,2.61l-.87.87-.87.87-2.18,2.18c-2.61,3.05-6.96,5.22-5.66,9.57.43.87.87,1.74,1.31,2.61l2.18,1.31c1.31.87,2.61,1.74,4.35,2.61,1.74.87,8.27,4.79,10.44,6.09,6.53,3.92,13.92,8.27,20.01,10.88,6.09,3.05,12.18,5.22,16.53,6.96,13.92,5.22,21.32,7.83,33.06,10.88,14.79,3.05,30.45,5.22,48.29,5.66,10.01.44,19.58,0,29.58-.87,1.74-.44,5.66-.44,9.57-1.31,3.92-.44,7.83-1.31,10.01-1.74,6.96-1.31,16.97-5.22,23.06-8.7,9.57-5.66,19.14-12.18,28.28-21.75,1.74-1.74,3.48-3.48,4.79-5.66,1.31-2.18,3.05-3.92,4.35-6.53.87-1.31,1.31-3.05,2.18-4.35.43-1.31.87-3.05,1.31-4.35.87-2.61,1.31-5.22,1.74-7.83.43-2.61.43-5.22.87-7.83,0-2.61,0-5.22-.43-7.83-.87-10.44-3.92-17.4-6.09-22.19-.43-1.31-.87-2.18-1.74-3.05-.43-.87-.87-1.74-1.31-2.61-.87-1.31-1.74-2.61-2.18-3.48-2.61-3.05-2.18-2.18-2.61-3.05-1.31-1.74-2.18-3.05-3.05-3.92-.87-1.31-2.18-2.61-3.92-4.35-1.31-1.31-2.61-2.18-3.92-3.48-1.31-.87-3.05-1.74-4.35-2.61-2.61-1.74-5.22-2.61-7.4-3.48-12.62-4.79-28.71-7.83-45.24-8.27.87,0,1.31,0,2.61.44,11.75.44,22.19,2.61,32.19,6.09,10.01,3.48,20.01,8.27,28.28,17.4,1.74,1.74,3.48,3.92,5.22,6.09,1.31,2.18,2.61,4.35,3.92,6.09.87,2.18,2.18,4.35,3.05,6.53.43,1.74,1.31,4.35,2.18,6.53.43,2.18.87,4.79.87,7.4-.43,5.22-.87,9.14-.87,10.01h0Z"/>
          <path class="cls-23" d="m398.57,82.53c11.31-4.35,22.62-6.96,31.32-8.27,9.57-.87,17.84-.87,22.19-.44.87,0-3.48.44-6.09.87-10.44.87-20.01,2.18-30.45,4.79-1.74.44-4.79,1.31-6.09,1.74-1.31.44-3.05.87-4.35,1.74-12.62,4.35-22.62,9.14-33.06,15.66-10.88,6.96-18.27,13.05-28.28,21.32-9.57,7.83-16.97,15.23-26.1,23.06-6.09,5.22-10.88,9.57-16.53,14.36-1.31.87-2.18,2.18-3.48,3.05q-.43.44-.43.87c0,.44,0,.87.43.87.87.44,1.31.87,2.18,1.31,3.48,1.74,7.4,3.92,12.18,6.53,4.79,2.61,13.49,7.4,23.06,11.75,9.57,4.35,19.14,7.83,23.93,9.14,4.79,1.31,11.75,3.92,16.97,5.22,0,0,3.92,1.31,12.18,3.92-16.1-3.05-31.76-7.83-46.98-13.92-15.23-5.66-29.58-13.92-44.81-21.75-.43-.44-1.31-.87-1.74-1.31-.43-.44-.43-1.31,0-2.18.87-1.31,2.18-2.18,3.05-3.05l6.53-5.22c4.35-3.92,8.27-7.4,12.18-11.31,8.27-7.83,16.53-15.23,24.8-22.62,17.4-14.79,36.11-28.28,57.43-36.11Z"/>
          <path class="cls-5" d="m376.38,197.81s10.88,2.61,20.88,4.35c10.44,1.74,20.01,2.61,17.84,3.05,0,0-8.7.44-20.88-.87-11.75-1.31-26.97-4.35-38.72-8.7,0,0-4.35-1.31-9.57-3.48-5.22-2.18-11.75-4.79-16.1-6.96,0,0-.87-.44-2.61-1.31-1.74-.87-3.92-2.18-6.96-3.92-6.09-3.48-13.92-8.27-23.06-13.05,0,0-1.31-.44-3.05-1.74-.43-.44-.87-.87-1.31-1.31-.43-.87,0-1.74.43-2.18.87-1.31,2.61-2.61,3.92-3.92,5.66-5.22,12.62-11.75,20.45-18.71,7.4-6.96,14.79-13.92,20.88-19.14,6.09-5.22,10.88-8.7,11.75-9.57,0,0,6.09-4.79,13.49-10.01,7.4-4.79,16.1-9.57,20.01-11.31,0,0,2.61-1.31,7.4-3.05,2.18-.87,4.79-1.74,7.83-3.05,3.05-.87,6.09-2.18,9.57-3.05,0,0,10.44-3.05,18.27-3.92,7.83-.87,13.05-1.74,2.18.44,0,0-3.05.44-6.96,1.74-3.92.87-8.27,2.18-11.31,3.48,0,0-1.31.44-3.92,1.31-2.18.87-5.66,2.18-9.57,3.48-7.83,3.05-18.27,8.27-28.28,14.79-19.58,12.62-37.41,29.58-39.59,30.89,0,0-4.79,4.35-12.18,10.88-3.48,3.48-8.27,7.4-13.05,11.75-2.61,2.18-5.22,4.35-7.83,6.53-.87.44-1.31,1.31-1.74,2.18-.43.87.87,1.74,1.31,2.18,1.31.87,3.05,1.74,4.79,2.61,6.53,3.48,13.05,7.4,20.01,10.88,6.53,3.48,13.92,6.53,20.45,9.57,13.92,3.92,26.54,7.4,35.24,9.14h0Z"/>
          <path class="cls-6" d="m377.68,197.81s6.96,1.31,16.1,3.05c8.7,1.31,19.58,2.61,27.41,3.92,0,0,11.31,1.31,21.32,1.31s17.84-.87,11.31.87c0,0-.87,0-2.18.44-1.31,0-3.92.87-6.53.87-5.66.87-13.92,1.31-23.93.87-19.58,0-45.24-4.35-68.3-13.05,0,0-3.48-1.31-13.92-5.22,0,0-6.09-2.61-13.05-6.09-3.48-1.31-7.83-4.35-11.75-6.53-3.92-2.18-7.4-4.35-10.01-6.09,0,0-1.74-1.31-4.79-3.05-1.31-.87-3.48-2.18-5.22-3.05-.87-.87-1.74-1.74-1.74-3.48,0-1.31.87-2.61,2.18-3.48,1.31-.87,2.61-2.18,3.48-3.48,1.31-.87,2.61-2.18,3.48-3.05,2.18-1.74,3.92-3.48,5.66-5.22,3.92-3.48,7.4-6.53,9.57-8.7,0,0,9.14-7.4,14.79-13.05,0,0-3.48,3.48-9.14,8.7-5.66,5.22-13.05,12.18-20.45,19.14-2.18,2.18-4.35,4.35-6.53,6.09-.43.44-1.31.87-1.31,1.74-.43.44-.87,1.31-.43,2.18.87,1.31,2.18,2.18,3.05,2.61,4.79,2.61,9.14,5.22,13.05,7.4,7.83,4.35,13.92,8.27,16.1,9.14,0,0,7.83,4.35,20.45,9.14,12.62,5.22,30.02,10.44,48.29,12.18,0,0,2.61,0,2.18-.87-.87-.44-5.22-1.74-19.14-5.22h0Z"/>
          <path class="cls-4" d="m401.61,200.42c4.79.44,10.01.87,15.66.87,3.05,0,7.4.44,10.88.44,4.35,0,9.14.44,12.62.44,7.4,0,16.53-.44,25.67-2.18,9.14-1.74,17.4-4.35,23.49-6.53,2.18-.87,3.48-1.31,5.22-2.18.43-.44,2.61-1.31,3.05-1.74,6.09-3.05,11.31-6.96,16.1-10.88,3.92-3.48,7.83-6.96,10.88-10.44,1.31-1.74,2.61-3.92,4.35-5.66.87-2.18,2.18-3.92,3.05-6.09,2.18-4.79,3.48-10.88,3.92-16.53v-10.44c0-2.61-.43-5.22-1.31-10.01-2.18-7.83-5.66-14.36-10.44-20.01-4.79-5.66-10.44-10.44-17.4-14.36-8.27-4.35-16.1-6.96-24.8-9.14-6.09-1.74-13.49-2.61-20.45-3.05-1.74,0-5.66-.44-5.66-.44h6.96c6.53,0,10.01.87,13.92,1.74,5.22.87,12.18,2.61,18.71,4.79,2.61.87,4.35,1.74,6.96,3.05,3.48,1.74,8.27,3.92,12.18,7.4,5.22,3.48,9.57,9.57,13.49,15.23,4.79,7.83,7.83,15.23,9.14,22.62-.43-3.05,1.31,3.48.87,10.88,0,1.74,0,3.48-.43,5.22s-.43,3.05-.43,3.92c-.43,2.18-.87,3.05-.43,1.31,0,.44-.87,2.61-.87,3.05,0,0-.43,0,0-.44.87-4.79,0-4.79,0-6.53,0,.44-.43,4.79-2.18,10.01-.43,1.31-.87,2.61-1.31,3.92-.43,1.31-1.31,2.61-1.74,3.48-.87,2.18-2.61,4.35-3.48,5.66-3.05,3.92-6.53,6.96-11.31,11.31-1.31.87-1.74,1.74-3.05,3.05s-11.31,9.57-23.49,14.79c-11.75,5.66-25.23,8.7-27.84,8.7-3.05.44-7.4.87-6.53.44.87-.44-5.22,0-7.4-.44-.43,0,.87-.44.43-.44-1.74,0-5.22-.44-8.7,0-6.53,0-14.36-.44-20.01-.87-6.09-2.18-12.18-2.61-18.27-3.92h0Z"/>
          <path class="cls-1" d="m335.49,118.63s-4.79,4.35-11.31,10.44c-6.53,6.09-15.66,14.36-24.8,22.19l-.87.87c-.43.44-1.31,1.31-2.61,2.61-.87.87-2.18,2.18-3.92,3.48-.43.87-1.74,1.31-2.18,2.18-.43.87-.43,1.74-.43,3.05s.43,2.18.87,3.05c.43.44.43.87.87,1.31l.87.44c1.31.87,2.61,1.74,3.92,2.18,2.61,1.31,4.35,2.61,5.66,3.48l6.53,3.92s2.18,1.31,5.22,3.05,7.4,4.35,11.31,6.09c7.83,3.92,16.97,7.4,19.58,8.27,0,0,3.48,1.31,7.83,3.05,3.92,1.31,7.83,3.05,9.57,3.48,0,0,11.75,4.35,26.97,6.53"/>
          <path class="cls-3" d="m521.25,171.71c.87-.87,2.18-2.61,4.35-4.79,1.74-2.18,3.92-5.22,5.22-8.27,3.05-6.53,4.79-13.92,4.79-16.97,1.31-10.01,0-20.01-3.48-29.58-.43-.87-.87-2.18-1.31-3.05-3.05-5.66-7.83-12.18-12.62-16.1-2.18-1.74-3.92-3.05-6.53-4.79-13.05-8.27-27.41-12.18-40.46-14.36-5.66-.87-10.44-1.31-16.1-1.74h-2.61c-.43,0,2.18,0,3.92,0s3.05,0,5.22.44c3.92.44,8.7.44,12.18,1.31,3.92.44,6.96,1.31,11.31,2.61,3.05.87,5.22,1.31,8.27,2.18,10.01,3.48,20.01,8.27,27.41,15.66,1.74,1.31,3.48,3.48,5.22,5.66s3.05,4.79,4.35,6.53c.87,1.31,1.31,2.61,2.18,4.35l1.31,3.05c.43.87.87,2.18.87,3.05.87,2.18,1.31,3.92,1.31,5.22,1.31,6.09,1.31,12.18.43,19.14,0,3.05-1.74,10.44-4.79,17.4-.87,1.74-1.74,3.48-2.61,4.79s-2.18,3.05-3.05,4.35c-2.18,2.18-3.92,4.35-5.22,5.22-6.53,5.66-13.05,10.88-20.45,15.23-.43,0,.87-.87,4.35-3.05,3.05-2.18,8.7-6.09,16.53-13.49h0Z"/>
        </g>
      </g>
      <g class="cls-24">
        <g class="cls-24">
          <path class="cls-7" d="m90.56,281.34c1.31.44,6.96,1.31,14.36,1.31,7.83.44,17.4-.87,26.97-2.61,19.58-3.92,37.85-11.75,42.2-13.49,9.57-3.92,24.8-12.18,40.46-24.36,15.66-12.18,31.32-28.28,45.68-43.5,7.4-7.83,13.92-15.23,20.88-21.75,1.74-1.74,3.48-3.48,4.79-4.35.87-.87,1.31-.87,1.74-1.31h1.74c1.31.44,3.05,1.31,4.79,2.18,1.74.87,3.48,1.74,4.79,2.61,12.62,6.96,20.01,10.88,20.88,11.31-.87,0,6.09,4.35,14.79,9.14,8.7,5.22,20.01,10.44,26.97,13.49,8.7,3.48,16.97,6.53,25.67,9.14,8.7,2.61,17.4,4.35,26.1,5.66,17.4,2.61,34.37,2.61,49.6,0,7.4-1.31,11.75-2.18,14.79-3.05s5.22-1.74,8.7-2.61c2.61-.87,10.01-3.48,26.97-12.62,5.66-3.48,12.62-7.4,18.71-12.18,3.05-2.61,6.09-4.79,8.7-7.4,2.61-2.61,4.79-5.22,6.53-7.83,1.74-2.61,3.92-5.66,6.09-9.57.87-2.18,2.18-4.35,3.48-6.53s1.74-4.79,3.05-7.4c3.48-10.44,5.22-23.49,3.48-36.11-1.31-12.62-6.09-24.8-11.75-34.8-5.66-9.57-13.05-16.53-18.27-20.45-19.58-15.23-37.85-22.19-55.25-25.23-8.7-1.31-16.97-1.74-25.67-1.31-8.7.44-17.4,1.74-26.97,3.92-14.36,3.48-26.97,7.83-39.15,13.49-12.18,5.66-23.93,12.62-35.67,21.75-24.8,19.14-39.59,36.54-60.04,60.04-2.61,2.61-4.79,5.22-7.4,7.83-1.31.87-2.61,2.61-3.92,3.48-1.31.87-2.61,1.31-3.92.87-1.31-.44-3.05-1.74-4.35-2.61l-4.79-2.61c-3.05-1.74-6.09-3.48-9.57-5.22-12.62-6.96-26.1-13.49-40.46-19.14-3.92-1.74-7.83-3.05-10.88-3.92s-10.44-3.48-14.36-5.22c-23.93-8.7-46.55-15.23-71.78-16.53-6.96-.44-17.4.44-15.23.44,5.22,0,13.05.44,21.75,1.31,9.14.87,19.14,3.05,30.02,5.66,10.44,2.61,21.75,6.53,33.93,10.88,12.18,4.35,25.23,9.14,38.28,15.23,17.84,7.83,32.19,16.53,43.94,23.93,1.74.87,4.35,2.18,6.53,1.31s3.92-2.18,5.22-3.05c2.61-2.18,4.79-4.35,6.96-6.53,3.92-4.35,7.83-8.27,11.31-11.75,4.79-4.79,8.7-9.14,14.79-14.79,6.09-5.66,13.49-13.49,25.67-24.36,14.36-12.62,29.15-23.06,45.68-30.89l6.09-3.05,6.53-2.61,6.53-2.61c2.18-.87,4.35-1.31,6.53-2.18,8.7-2.61,17.84-5.22,27.41-6.09,26.54-3.05,48.29.87,71.78,14.36,1.74.87,5.66,3.48,9.57,6.53,2.18,1.31,3.92,3.05,5.66,4.35,1.74,1.31,3.48,2.61,3.92,3.48,5.66,4.79,10.01,10.88,13.92,17.84,3.92,6.53,6.53,14.36,8.27,21.32.43,1.74.87,3.48,1.31,5.22,0,1.74.43,3.48.43,5.22l.43,2.61v7.83c0,3.48-.43,6.53-.87,9.57-.43,3.05-1.31,5.66-1.74,8.27-5.22,15.66-13.49,25.67-21.75,33.5-4.35,3.92-9.14,6.96-13.92,10.44-5.22,3.05-10.44,6.09-16.53,9.14-30.89,15.23-67.87,18.71-107.89,7.83-22.62-6.09-42.63-15.23-62.65-25.67-3.48-1.74-11.75-6.53-19.58-10.88-3.92-2.18-7.83-4.79-11.75-6.53-1.74-.87-3.48-2.18-4.79-3.05-1.31-.87-3.05-1.74-5.22-2.18-1.74-.44-3.48-.44-5.22.44-.87.44-1.74.87-2.18,1.31s-1.31.87-1.74,1.31c-2.18,1.74-3.48,3.48-5.22,5.22-3.48,3.48-6.96,6.96-10.44,10.88-6.96,7.4-13.92,14.79-19.58,20.88-17.4,18.71-36.11,36.98-63.08,51.77-2.61,1.31-4.79,2.61-7.4,3.48-2.61.87-4.79,2.18-7.4,3.05-2.61.87-5.22,2.18-7.83,3.05-2.61.87-5.22,2.18-8.27,3.05-13.49,4.79-25.67,7.4-37.41,8.27-11.75.87-23.49.44-35.67-2.18-11.31-2.61-20.88-6.96-28.28-10.88-3.92-1.74-7.4-3.92-10.44-5.66-3.05-2.18-5.66-3.92-7.83-6.09-8.7-8.27-12.18-14.79-14.79-18.71-4.35-7.83-3.05-6.09-4.35-7.83-1.74-4.35-3.05-7.4-3.92-10.88s-2.18-7.4-3.48-13.05c-1.74-7.83-2.61-15.66-2.18-23.06.43-7.4,1.74-13.49,3.05-18.71,2.18-7.4,6.09-14.79,11.31-21.32,5.22-6.53,11.75-12.62,19.58-18.27,14.79-10.88,33.5-18.27,52.64-21.75-2.18.44-3.48.44-6.09.87-13.49,3.05-26.1,7.83-37.41,13.92-11.31,6.53-21.75,13.92-30.02,23.93-8.27,10.01-13.92,22.19-15.23,35.67-1.74,13.49.43,27.84,5.22,41.76,1.74,5.22,4.79,12.18,8.27,18.27,6.09,10.88,13.49,19.58,22.62,26.1,8.27,5.22,19.58,11.31,30.45,15.66,11.31,4.35,20.88,6.09,23.06,6.96h0Z"/>
          <path class="cls-23" d="m229.33,128.21c-13.05-5.66-25.67-10.88-38.28-15.23-12.18-4.35-23.93-8.27-33.93-10.88-21.75-6.09-41.33-7.4-51.77-7.4-2.18,0,8.27-.87,15.23-.44,25.23.87,47.85,7.83,71.78,16.53,3.92,1.31,11.31,3.92,14.36,5.22,3.05.87,6.96,2.61,10.88,3.92,14.79,6.09,27.84,12.18,40.46,19.58,3.05,1.74,6.53,3.48,9.57,5.22l4.79,2.61c1.31.87,3.05,2.18,4.35,2.18,1.31.44,2.61,0,3.92-1.31,1.31-.87,2.61-2.18,3.92-3.48,2.61-2.61,4.79-5.22,7.4-7.83,20.45-23.49,34.8-40.89,60.04-60.04,3.05-2.18,5.66-4.35,8.7-6.53,3.05-2.18,6.09-3.92,8.7-5.66,6.09-3.48,11.75-6.96,18.27-9.57,12.18-5.66,24.8-10.01,39.15-13.49,9.57-2.18,18.27-3.05,26.97-3.92,8.7,0,16.97,0,25.67,1.74,16.97,3.05,35.24,10.44,54.82,25.67,5.22,3.92,12.18,10.88,18.27,20.88,5.66,9.57,10.01,22.19,11.31,34.8,1.31,12.62,0,25.67-3.92,36.11-1.74,5.22-4.35,9.57-6.09,13.92-2.61,3.92-4.79,6.96-6.53,9.57-2.18,2.18-4.35,4.79-6.96,7.83-2.61,2.18-5.66,4.79-8.7,7.4-6.09,4.35-13.05,8.7-18.71,11.75,0,0-2.18,1.31-6.96,3.48-4.79,2.18-12.18,5.22-22.62,7.83,9.57-3.05,18.71-6.53,27.41-11.31,4.35-2.18,8.7-4.79,12.62-7.4,2.18-1.31,3.92-2.61,6.09-4.35,2.18-1.74,3.92-3.05,5.66-4.79,3.92-3.05,6.96-6.96,10.44-10.44,1.74-1.74,3.05-3.92,4.35-6.09l2.18-3.05,1.74-3.48c4.79-8.7,7.4-18.27,8.27-28.28,2.18-19.58-3.48-39.59-14.36-55.69-2.61-3.92-5.66-7.83-9.14-11.31-3.48-3.48-7.4-6.53-11.31-9.14-7.83-5.66-16.53-10.44-25.23-13.92-12.18-5.22-25.23-7.83-38.28-8.7-13.05-.44-26.54,1.31-39.15,4.35-25.67,6.53-50.03,17.84-70.91,33.93-21.32,16.1-39.15,35.67-56.56,55.69-4.35,5.22-8.7,10.01-13.92,14.79-1.31,1.31-2.61,2.18-4.35,3.05-1.74.87-3.92,0-5.66-.87l-8.7-5.22c-11.31-6.96-23.06-13.05-35.24-18.27h0Z"/>
          <path class="cls-5" d="m511.68,206.95s-5.66,3.48-14.79,6.96c-9.14,3.92-21.75,7.83-34.37,9.14-25.23,3.48-49.16-.87-43.94-.87,0,0,5.22.44,13.92.87,8.7,0,21.32-.44,35.24-3.48,13.92-2.61,29.15-8.7,43.07-16.53,6.96-3.92,13.92-8.27,20.01-13.05,6.09-4.79,11.31-10.44,15.66-16.53,0,0,.43-.44.87-1.31.87-.87,1.74-2.18,2.61-4.35.87-1.74,2.18-4.35,3.48-6.53,1.31-2.61,2.18-5.66,3.48-8.7,4.35-12.62,3.92-28.71,1.74-39.15,0,0,0-.44-.43-1.74,0-1.31-.43-3.05-1.31-4.79-1.31-4.35-3.05-10.01-6.53-16.97-3.48-6.53-8.7-14.36-16.53-20.88-7.83-6.53-16.53-12.62-26.97-17.4,0,0-2.61-1.31-6.96-3.05-4.79-1.74-11.31-4.35-19.58-5.66-8.27-1.74-18.27-2.18-29.15-1.74-10.88.44-22.19,2.61-33.06,6.09-5.66,1.74-11.31,3.48-16.53,5.66-2.61.87-5.22,2.18-7.83,3.05-2.61,1.31-5.22,2.61-7.83,3.48-5.22,2.18-9.57,5.22-14.36,7.83-4.35,2.61-8.7,5.66-12.18,8.27-15.23,10.88-25.23,20.45-27.41,22.62,0,0-.87.87-2.18,2.18s-3.48,3.48-6.09,6.09c-5.22,5.22-11.75,12.18-18.71,20.01-6.96,7.83-13.92,16.53-21.32,23.06-.87.87-1.74,1.74-3.05,2.18-1.31.87-3.05.87-4.35.87-3.05-.44-4.35-2.18-6.09-3.05-3.05-2.18-6.09-3.48-7.83-4.79,0,0-6.09-3.92-16.1-9.14-10.01-5.22-23.93-12.18-39.59-17.84,0,0-23.49-9.14-41.33-14.36-9.14-2.61-16.53-4.35-18.71-4.79-2.18-.44,1.31-.44,13.92,2.61,0,0,7.4,1.74,16.1,4.35,9.14,2.61,19.58,6.53,26.97,9.14,0,0,3.05,1.31,8.7,3.48,5.66,2.18,13.49,5.22,22.62,9.57s20.01,10.01,31.32,16.53c2.61,1.74,5.66,3.48,8.27,5.22,1.31.87,2.61,1.31,4.35.44,1.31-.44,2.61-1.74,3.92-2.61,5.22-4.35,9.57-10.01,13.92-15.23,9.14-10.44,18.27-21.32,27.84-30.45,9.57-9.57,19.14-17.4,27.84-24.36,17.84-13.05,32.63-20.01,35.24-20.88,0,0,.87-.44,2.61-1.31,1.74-.87,3.92-1.74,6.96-3.05,6.09-2.18,15.23-5.66,26.54-8.7,11.31-2.61,25.23-5.22,40.89-4.35,15.23.87,32.19,4.79,47.42,13.49,7.83,4.35,15.23,9.14,22.19,14.79,6.96,5.66,12.62,13.05,16.97,20.88,2.18,3.92,3.92,8.27,5.66,12.18,1.31,4.35,3.05,8.7,3.48,13.05,1.74,8.7,2.18,17.84,1.31,26.1-1.74,17.4-10.01,32.63-19.58,43.5-9.57,11.75-21.32,18.71-30.45,23.93h0Z"/>
          <path class="cls-6" d="m508.63,209.12s-3.92,2.18-10.44,5.22c-6.53,3.05-15.66,6.53-26.97,8.7-10.88,2.18-23.06,3.48-35.24,3.05-11.75-.44-23.49-2.18-32.63-4.35,0,0-6.96-1.31-16.53-4.35-9.57-3.05-21.75-7.4-32.19-12.62-21.32-10.01-37.85-20.01-23.49-13.05,0,0,6.96,3.48,19.58,8.7s30.89,12.62,53.51,16.53c22.62,4.35,49.6,5.22,76.13-3.05,13.05-3.92,26.1-10.01,37.85-17.4,3.05-1.74,6.09-3.92,8.7-5.66l7.83-6.53c2.61-2.61,4.79-5.22,6.96-7.83,2.18-3.05,3.92-5.66,5.66-8.27,0,0,1.31-2.61,3.92-7.83,1.74-5.22,5.22-13.05,5.22-24.36v-9.57c-.43-5.66-1.31-13.92-4.35-22.62-3.05-8.27-7.4-16.97-13.05-23.93-2.61-3.48-5.66-6.53-8.7-9.14-3.05-2.61-6.09-5.22-8.7-6.96,0,0-.87-.87-2.61-1.74-1.74-1.31-4.35-2.61-7.4-4.79-6.53-3.92-15.66-8.27-26.54-11.31-10.88-3.05-23.49-3.92-34.8-3.48-11.31.44-22.62,2.61-30.45,5.22,0,0-1.74.44-4.35.87-2.61.87-6.53,2.18-10.88,3.48-4.35,1.74-9.14,3.05-13.92,5.22-4.79,2.18-9.57,4.35-13.49,6.96,0,0,.43-.44,1.74-.87,1.31-.87,3.05-1.74,5.22-2.61,2.18-.87,5.22-2.61,8.27-3.92,3.48-1.31,6.96-2.61,11.31-4.35,16.53-6.09,40.02-12.62,64.39-10.44,12.18.87,24.36,4.35,35.24,9.14,10.88,4.79,20.45,11.31,28.28,17.84s13.05,13.92,16.53,20.01c.87,1.74,1.74,3.05,2.18,4.35s1.31,2.61,1.74,3.92c.87,2.18,1.74,4.35,2.18,5.66,0,0,.43,1.31.87,3.48.87,2.18,1.31,5.66,2.18,10.01,1.31,8.7,2.18,22.19-2.61,36.98-1.31,3.48-2.61,7.4-4.79,11.31-.87,1.74-1.74,3.92-3.05,5.66-1.31,1.74-2.61,3.48-3.92,5.22-1.31,1.74-3.05,3.48-4.35,5.22-1.74,1.74-3.05,3.48-4.79,5.22-3.48,3.05-6.96,6.53-11.31,9.14-8.27,5.66-16.97,10.88-26.54,15.23-9.57,4.35-20.01,7.83-30.45,10.01,0,0-1.74.44-3.05.87s-2.18.87-1.31.87,4.35,0,11.31-1.31c9.57-1.31,20.45-3.92,36.11-11.75h0Z"/>
          <path class="cls-4" d="m452.95,226.53c-12.18,1.31-25.23.87-38.72-.87-7.4-.87-18.27-3.48-26.54-5.66-10.88-3.05-22.19-7.4-29.58-10.88-16.53-7.4-37.41-18.27-56.99-29.58-2.61-1.31-4.79-2.61-7.4-4.35l-3.48-2.18c-.43-.44-.87-.44-1.31-.87h-.43q-.43,0-.87.44c-.87.44-1.74,1.31-2.61,2.18-1.74,1.74-3.92,3.48-5.66,5.22-6.96,6.96-13.49,13.49-19.14,19.14-3.48,3.92-6.53,6.53-10.01,10.44-.87,1.31-5.22,5.22-6.09,6.53-11.75,11.75-23.93,22.62-36.98,31.76-10.44,7.4-21.75,13.92-33.06,18.71-11.31,4.79-23.06,8.7-34.37,11.31-3.05.87-6.53,1.31-10.01,2.18-3.48.44-7.4.87-10.88,1.31-7.4.87-15.23.87-22.62,0-12.62-1.31-19.14-3.48-25.67-5.66-6.09-2.61-12.18-4.79-23.06-10.44-17.84-8.7-30.02-24.36-36.98-40.89-3.48-8.7-6.53-16.97-8.27-26.54-1.74-9.14-2.18-19.14-.43-28.71.87-5.66,2.61-10.88,4.79-16.1,2.18-5.22,4.79-9.57,8.27-13.92,6.53-8.7,14.36-15.23,23.06-20.88,13.05-8.7,28.71-15.23,45.24-19.14,3.92-.87,13.49-2.18,13.05-2.18-1.74.44-10.88,1.74-16.53,3.48-7.4,2.18-13.05,3.92-17.84,5.66-4.79,1.74-8.7,3.48-13.49,6.09-11.31,6.09-25.67,16.1-34.8,29.58-3.92,5.22-6.09,10.01-8.27,16.1-3.05,8.27-4.79,21.32-3.05,33.93.87,7.83,3.05,15.66,5.66,23.49,2.61,7.83,6.09,15.23,10.44,22.19,6.09,9.14,13.49,16.53,21.75,21.75,8.27,4.79,16.53,8.7,25.23,12.18-3.48-1.31-1.31-.87,3.48,1.31,2.61.87,5.66,1.74,9.57,3.05,3.92.87,7.83,1.74,12.18,2.18,16.53,2.61,33.5-.44,24.8.87,1.31,0,6.53-.44,7.4-.44-.43,0,.43,0-.87.44-8.27,1.31-10.88,1.31-15.66,2.18.43,0,12.18,0,25.23-2.61s27.41-7.4,35.24-10.44c11.75-4.35,22.19-9.14,36.11-18.27,3.48-2.61,5.22-3.92,8.7-6.53,1.74-1.31,9.14-6.96,18.27-15.23,9.14-8.27,20.01-20.01,30.89-31.32,5.22-5.66,10.88-11.75,16.1-16.97,2.61-2.61,5.22-5.22,7.83-7.83,1.31-1.31,2.61-2.18,3.48-2.61,1.31-.44,2.18,0,3.48.44,10.88,5.66,19.58,10.88,22.62,12.18,6.96,3.92,15.66,8.7,13.49,7.83-2.18-.44,10.44,6.09,14.79,8.7.87.44-2.18-.87-1.74-.44,3.48,2.18,10.88,6.09,19.58,9.57,14.36,6.53,33.06,12.18,47.42,14.79,14.36,4.35,29.58,5.66,45.24,4.35h0Z"/>
          <path class="cls-1" d="m365.07,75.56s3.05-2.18,8.27-5.22c2.61-1.74,6.09-3.48,9.57-5.66,3.92-1.74,8.27-3.92,13.05-6.09,9.57-3.92,21.32-8.27,34.37-10.88,12.62-2.61,26.97-3.92,40.46-2.18,0,0,3.05.44,7.4.87,2.18.44,4.79.87,7.4,1.74,2.61.87,5.66,1.74,8.7,2.61,12.18,4.35,23.93,11.75,28.28,14.79,2.18,1.31,3.92,3.05,6.09,4.35,2.18,1.74,3.92,3.05,5.66,4.79,0,0,.87.87,2.18,2.18,1.31,1.31,3.05,3.48,5.22,6.09,3.92,5.22,8.7,13.49,11.75,22.62,3.05,9.14,4.79,19.14,4.35,27.41,0,2.18-.43,3.92-.43,6.09,0,1.74-.43,3.48-.43,5.22-.87,3.05-1.31,5.66-1.31,6.96,0,0,0,.44-.43,1.31s-.87,2.18-1.31,3.48c-.87,3.05-3.05,6.96-5.22,10.88-4.79,7.83-11.75,15.23-13.92,16.53,0,0-1.31.87-3.48,3.05-2.18,2.18-6.09,4.79-10.88,7.83-9.57,6.09-23.49,13.92-40.46,18.71"/>
          <path class="cls-3" d="m187.14,261.33c-5.66,3.05-22.19,10.44-40.02,15.66-9.14,2.61-18.27,4.35-26.54,5.22-3.92.44-7.83.87-10.88.87h-7.83c-13.05-.87-25.67-3.48-36.98-8.27-5.66-2.18-11.31-5.22-16.97-7.83-5.22-3.05-10.88-6.09-15.66-10.88-2.18-1.74-4.79-4.35-6.09-5.66-5.66-5.66-10.88-13.49-14.36-21.32-3.92-7.83-6.53-16.1-8.7-23.93-1.74-6.53-3.05-12.62-3.05-20.01-.43-9.57,1.31-19.14,4.35-28.28,3.05-8.7,8.27-16.53,14.36-23.06,12.18-13.05,27.41-21.75,42.63-27.84,13.05-4.79,23.93-7.4,37.41-8.7,2.18,0,6.53-.44,6.09-.44.43,0-5.66.44-8.7,1.31-3.92.44-6.96.87-12.18,2.18-9.14,1.74-20.45,5.66-28.28,9.14-8.7,3.92-15.23,7.4-23.49,13.92-5.66,4.35-10.44,8.7-15.23,13.92-8.27,10.01-13.92,22.62-15.66,35.24s0,26.1,3.92,38.28c1.74,4.79,3.92,10.88,6.53,16.97,3.05,6.09,6.53,12.18,10.01,16.97,2.18,3.05,4.35,5.66,7.83,8.7,3.92,3.92,8.7,7.4,13.05,9.57,4.35,2.61,8.7,4.79,12.18,6.53,13.05,6.53,27.84,11.75,46.11,13.05,3.48.44,10.44.44,18.71-.44,8.27-.87,17.84-2.61,26.97-5.22,18.71-5.22,36.54-13.49,43.5-17.4,19.14-10.44,35.67-24.36,50.46-38.72.87-.87-1.74,2.18-9.57,9.14-3.92,3.48-9.14,8.27-16.1,13.49-7.4,5.22-16.1,11.75-27.84,17.84h0Z"/>
        </g>
      </g>
    </g>
  </g>
  <g id="VO2u8J.tif-2">
    <path class="cls-2" d="m104.91,98.19c35.24-2.18,66.56,8.7,94.84,18.71,26.54,9.57,50.9,21.32,73.52,34.8,3.48,2.18,5.22,2.18,8.7-.44,16.97-13.49,55.25-76.57,123.99-100.06,56.12-20.01,95.71-8.7,129.64,18.71,30.02,24.8,44.37,88.31-4.79,124.86-25.67,17.84-58.3,33.06-106.59,27.84-48.29-5.22-89.18-28.71-127.03-49.6-8.27-4.35-8.7-5.22-15.66,1.31-32.63,32.19-57.43,66.13-104.41,88.75-56.99,25.23-95.71,23.06-137.47-2.18-21.75-15.23-29.15-37.85-33.93-52.21C-.8,184.76-.37,153,27.47,129.08c21.75-17.84,48.72-28.28,77.44-30.89h0Zm348.04-23.93c-21.75,1.31-35.67,4.79-49.16,9.57-43.94,14.79-74.83,51.77-106.59,78.74-2.61,2.18-.87,2.61.87,3.92,8.7,5.22,17.4,10.01,26.54,14.79,30.89,15.66,63.95,26.97,101.8,28.71,39.59,2.18,73.52-8.27,98.76-33.06,26.1-25.67,16.53-73.96-15.66-91.36-19.14-10.01-40.89-12.18-56.56-11.31h0ZM120.14,246.54c4.35-.44,8.7-.87,13.49-1.74,2.18-.44,3.92-.87,6.09-.87,54.38-12.62,97.45-46.11,131.38-82.66,2.18-2.18,1.31-2.61-.87-3.92-29.15-18.27-60.91-33.5-97.88-41.76-45.24-10.44-86.14-3.48-120.94,23.06-33.5,26.1-26.97,77.87,8.7,97.45,17.84,9.14,38.28,11.31,60.04,10.44h0Z"/>
  </g>
  <text class="cls-12" transform="translate(51.44 89.05) rotate(-14.29) scale(.53 1)"><tspan x="0" y="0">V</tspan></text>
  <text class="cls-15" transform="translate(81.11 82.01) rotate(-7.78) scale(.53 1)"><tspan x="0" y="0">.</tspan></text>
  <text class="cls-20" transform="translate(99.65 79.22) rotate(1.49) scale(.53 1)"><tspan x="0" y="0">G</tspan></text>
  <text class="cls-16" transform="translate(127.44 80.21) rotate(8.07) scale(.53 1)"><tspan x="0" y="0">o</tspan></text>
  <text class="cls-18" transform="translate(142.8 82.44) rotate(11.96) scale(.53 1)"><tspan x="0" y="0">l</tspan></text>
  <text class="cls-19" transform="translate(153.81 84.57) rotate(16.14) scale(.53 1)"><tspan x="0" y="0">d</tspan></text>
  <text class="cls-10" transform="translate(173.65 90.44) rotate(19.69) scale(.53 1)"><tspan x="0" y="0">i</tspan></text>
  <text class="cls-9" transform="translate(183.57 93.96) rotate(22.1) scale(.53 1)"><tspan x="0" y="0">e</tspan></text>
  <text class="cls-17" transform="translate(368.2 188.77) rotate(13.36) scale(.53 1)"><tspan x="0" y="0">D</tspan></text>
  <text class="cls-13" transform="translate(415.67 197.94) rotate(1.62) scale(.53 1)"><tspan x="0" y="0">e</tspan></text>
  <text class="cls-11" transform="translate(434.94 198.16) rotate(-5.07) scale(.53 1)"><tspan x="0" y="0">s</tspan></text>
  <text class="cls-14" transform="translate(451.56 196.42) rotate(-10.92) scale(.53 1)"><tspan x="0" y="0">i</tspan></text>
  <text class="cls-8" transform="translate(467.34 193.28) rotate(-17.91) scale(.53 1)"><tspan x="0" y="0">g</tspan></text>
  <text class="cls-22" transform="translate(490.4 185.54) rotate(-25.6) scale(.53 1)"><tspan x="0" y="0">n</tspan></text>
  <text class="cls-21" transform="translate(512.85 174.32) rotate(-30.92) scale(.53 1)"><tspan x="0" y="0">s</tspan></text>
</svg>