<svg id="evKq8gzfja61" xmlns="http://www.w3.org/2000/svg" xmlns:xlink="http://www.w3.org/1999/xlink" viewBox="0 0 1779.9 548.77" shape-rendering="geometricPrecision" text-rendering="geometricPrecision"><path id="evKq8gzfja62" d="M74.85,64.68c0-.18-.11,1.02-.33,3.59-.45,5.14-.71,10.1-.79,14.88c0,.53.06,1.62.21,3.26s.2,3.62.16,5.92l-.02,1.2c-.02,1.15-.39,1.72-1.09,1.71-.71-.01-1.32-.69-1.83-2.03-1.19-2.95-2.4-4.87-3.62-5.78-6.48,5.47-14.2,8.13-23.15,7.97-13.03-.23-23.75-4.96-32.14-14.2C3.84,71.97,-0.23,60.44,0.01,46.61c.25-13.92,4.37-25.22,12.37-33.9C20.38,4.02,30.58,-0.21,43,0c4.52.08,8.13.52,10.82,1.32s6.01,2.39,9.96,4.76c1.93,1.19,3.38,1.79,4.36,1.81.8.01,1.56-.68,2.3-2.09c1.19-2.46,2.15-3.69,2.86-3.67.71.01,1.06.37,1.04,1.08c0,.36-.11.93-.3,1.72-1.05,4.24-1.68,12.21-1.88,23.91-.03,1.69-.18,2.66-.45,2.92s-.63.39-1.07.38c-.89-.02-1.45-.87-1.68-2.56-1.03-7.11-2.57-12.42-4.64-15.91C60.1,6.5,53.34,2.84,44.03,2.67c-7.18-.13-12.9,2.17-17.15,6.88-7.69,8.47-11.68,20.99-11.97,37.57-.26,14.81,2.64,26.34,8.7,34.61c5.28,7.19,12.4,10.86,21.36,11.02c4.61.08,8.84-.98,12.69-3.17s6.83-5.22,8.94-9.09c2.38-4.48,4.11-9.37,5.18-14.67.39-2.12.99-3.18,1.78-3.16.89.02,1.32.69,1.29,2.02Z" transform="translate(100.401618-177.496076)" fill="#52295e"/><path id="evKq8gzfja63" d="M133.95,82.3c-.04.89-.79,2.43-2.25,4.63-1.47,2.2-2.94,3.99-4.41,5.34-3.97,3.74-9.14,5.48-15.52,5.22-7.97-.33-14.52-3.48-19.65-9.46s-7.51-13.22-7.16-21.72c.36-8.86,3.21-16.15,8.55-21.88s11.81-8.44,19.43-8.12c6.29.26,11.49,2.31,15.59,6.16s6.17,8.66,6.2,14.43c-2.85.33-6.63.35-11.32.07l-9.3-.38c-.62-.03-5.94-.11-15.96-.26-.56,2.9-.9,5.67-1.01,8.32-.36,8.92,1.06,15.85,4.27,20.8s7.92,7.55,14.12,7.8c3.54.15,6.41-.54,8.6-2.04s4.62-4.47,7.29-8.89c.38-.69.88-1.03,1.51-1c.71.03,1.05.35,1.02.97ZM123.5,54.72c.08-10.65-3.51-16.12-10.78-16.41-7.18-.29-11.87,4.84-14.07,15.4l24.85,1.02Z" transform="translate(-371.082591 71.401557)" fill="#52295e"/><path id="evKq8gzfja64" d="M166.51,97.76c-.04.8-.64,1.16-1.79,1.1l-1.59-.09c-.18-.01-2.52-.23-7.02-.66l-4.12-.23c-.71-.04-4.25-.17-10.63-.4-.53.01-1.07,0-1.6-.02-1.33.01-1.98-.4-1.93-1.23.03-.58.53-.84,1.51-.79l3.45.19c2.48.14,3.75-.32,3.81-1.38.12-.53.36-3.98.71-10.35l3.8-67.59c.16-2.92.16-4.52,0-4.79-.23-.72-.92-1.12-2.06-1.18l-1.06-.06-3.72-.21c-1.24-.07-1.84-.48-1.8-1.23.04-.67,1.17-.98,3.38-.94c4.26-.03,8.26-.78,11.98-2.26l2.86-1.17l1.08-.34c.56,2.61.65,6.52.27,11.74l-.53,9.43-3.66,65.07c-.15,2.66-.19,4.23-.13,4.72s.35.84.87,1.05c.08.09,1.72.28,4.9.54c2.04.11,3.04.48,3,1.1Z" transform="translate(-111.335749 557.388729)" fill="#52295e"/><path id="evKq8gzfja65" d="M221.94,88.04c-.06.89-.86,2.4-2.4,4.56s-3.06,3.89-4.58,5.2c-4.08,3.62-9.31,5.19-15.68,4.73-7.96-.57-14.41-3.93-19.34-10.06-4.94-6.13-7.1-13.45-6.48-21.94.64-8.84,3.71-16.04,9.23-21.6c5.51-5.56,12.07-8.06,19.68-7.51c6.28.45,11.41,2.67,15.39,6.65s5.9,8.85,5.74,14.62c-2.86.24-6.63.14-11.31-.28l-9.29-.67c-.62-.04-5.94-.3-15.95-.75-.65,2.88-1.07,5.64-1.26,8.28-.64,8.9.56,15.87,3.62,20.92s7.68,7.8,13.87,8.24c3.54.26,6.42-.34,8.66-1.77c2.24-1.44,4.76-4.32,7.56-8.65.4-.68.92-1,1.54-.96.71.05,1.04.39.99,1Zm-9.59-27.9c.41-10.64-3.01-16.22-10.26-16.74-7.16-.52-12.01,4.47-14.55,14.95l24.81,1.79Z" transform="translate(22.44118-113.653816)" fill="#52295e"/><path id="evKq8gzfja66" d="M286.55,76.85c-.88,9.18-4.4,16.73-10.58,22.64s-13.19,8.49-21.05,7.74c-2.74-.26-5.55-1.11-8.44-2.54s-4.87-2.2-5.93-2.3c-.97-.09-2.11.22-3.43.94s-2.28,1.05-2.9.99c-.71-.07-.92-1.56-.64-4.47L240.16,31c.85-8.91.74-13.78-.34-14.6-.42-.31-2.13-.6-5.13-.89-2.12-.2-3.14-.66-3.08-1.36.06-.62.57-.88,1.54-.79l1.85.18c4.85.46,9.63-.1,14.33-1.7c1.38-.49,2.34-.71,2.87-.66l.53.05-3.97,41.57c3.83-4.71,9.11-6.75,15.81-6.1c7.41.71,13.13,3.82,17.15,9.32c4.02,5.51,5.62,12.45,4.82,20.84Zm-12.11-.55c.79-8.27.09-14.78-2.09-19.52-2.19-4.74-5.63-7.34-10.33-7.79-2.48-.24-4.91.31-7.27,1.64s-4.05,3.1-5.07,5.31-2.08,9.13-3.19,20.75c-1.16,12.15-1.54,19.4-1.14,21.75.62,3.79,3.68,5.95,9.18,6.48c5.23.5,9.28-1.11,12.14-4.84c4.2-5.55,6.79-13.48,7.78-23.78Z" transform="translate(103.850266-119.742417)" fill="#52295e"/><path id="evKq8gzfja67" d="M337.4,64.11c-.24,2.03-1.05,3.63-2.44,4.8-1.39,1.18-3.05,1.65-4.99,1.42-1.58-.19-2.85-.8-3.8-1.85s-1.34-2.28-1.17-3.69c.15-1.23.67-2.24,1.56-3.03.9-.79,1.37-1.36,1.41-1.71.16-1.32-.74-2.1-2.67-2.32-2.47-.29-4.76.99-6.88,3.85-2.45,3.35-4.25,9.9-5.39,19.62l-3.07,26.02c-.12,1.05.17,1.75.89,2.1s2.96.8,6.74,1.33c.95.29,1.39.7,1.33,1.23-.07.62-.68.86-1.83.72-2.03-.24-3.92-.46-5.68-.67s-5.11-.6-10.04-1.18c-2.56-.3-4.4-.52-5.55-.65-1.15-.14-2.6-.31-4.36-.51-1.41-.17-2.08-.51-2.02-1.04s.67-.73,1.81-.59l1.85.22c2.99.35,4.8.21,5.41-.44.22-.33.5-1.96.84-4.88l4.3-36.51c.57-4.87.18-7.76-1.19-8.69-1.36-.92-3.63-1.62-6.79-2.08-1.06-.12-1.55-.49-1.48-1.11.07-.61.55-.87,1.43-.77l.92.11c1.32.16,2.63.38,3.94.67s1.87.42,1.69.4c3.26.38,6.98-.12,11.16-1.5l1.81-.59l1.1-.27c.1,2.15.03,4.29-.22,6.4l-.31,2.64c3.52-5.66,7.84-8.18,12.95-7.58c2.82.33,5.05,1.47,6.7,3.4c1.65,1.94,2.32,4.18,2.02,6.73Z" transform="translate(85.743744 496.251729)" fill="#52295e"/><path id="evKq8gzfja68" d="M388.51,115.88c-.21,1.49-1.98,2.84-5.3,4.03-3.33,1.19-6.43,1.59-9.31,1.19-6.03-.84-8.74-4.39-8.14-10.67-4.22,6.04-9.83,8.57-16.82,7.6-3.76-.52-6.7-2.07-8.84-4.65s-2.96-5.62-2.47-9.14c1-7.2,6.1-12.31,15.3-15.33c3.15-.99,8.48-1.69,15.99-2.08l.46-3.29c1.07-7.73,1.39-12.88.94-15.45-.78-4.67-3.63-7.35-8.55-8.04-3.08-.43-5.76.05-8.05,1.43-2.3,1.38-3.62,3.35-3.97,5.89-.1.7.39,1.13,1.46,1.28s1.96.81,2.68,1.98c.71,1.17.98,2.42.79,3.74-.54,3.87-2.72,5.53-6.54,5-2-.28-3.56-1.19-4.67-2.73-1.12-1.54-1.53-3.37-1.23-5.48.57-4.13,2.69-7.46,6.36-9.99c4.05-2.75,9.28-3.68,15.69-2.79c9.66,1.34,15.22,4.8,16.69,10.38.51,2.13.35,6.18-.48,12.15l-3.42,24.63c-.56,4.04-.85,6.42-.86,7.13c0,3.22,1.05,4.98,3.16,5.27c2.46.34,4.6-.25,6.43-1.79c1.01-.84,1.74-1.24,2.18-1.17.44.06.62.35.55.88ZM367.27,98.69l1.34-9.62c-6.7.59-11.62,1.9-14.77,3.92-3.15,2.03-5,5.06-5.56,9.1-.39,2.81.09,5.23,1.44,7.25s3.24,3.2,5.66,3.54c3.72.52,7-1.18,9.84-5.08.65-.89,1.34-3.93,2.06-9.11Z" transform="translate(85.699951-130.366432)" fill="#52295e"/><path id="evKq8gzfja69" d="M424.07,119.82c-.13.79-1.44,2.02-3.95,3.68-4.31,2.81-9.05,3.81-14.21,2.99-4.82-.77-8.26-2.57-10.32-5.41-1.18-1.62-1.22-5.84-.14-12.65l6.23-39.05c.05-.89-.35-1.44-1.22-1.67l-4.99-.8c-1.93-.31-2.84-.77-2.74-1.38s.63-.89,1.6-.82c6.88.46,12.73-2.06,17.53-7.56.65-.71,1.36-1.01,2.15-.88.61.1.86.45.77,1.06l-.08.53c-.07.44-.19,1.18-.36,2.23-.59,3.68-.79,6.07-.6,7.18.76.3,2.06.6,3.9.89c4.81.77,8.05,1.06,9.69.87.36-.03.68-.03.94.02.7.11.99.54.87,1.3-.2,1.26-3.85,1.32-10.94.19-1.23-.2-3.02-.48-5.38-.86l-3.87,24.3c-1.95,12.26-2.87,19.99-2.75,23.2s1.88,5.08,5.3,5.63c2.89.46,6.39-.64,10.49-3.31.42-.38.85-.54,1.29-.47.61.1.88.37.81.8Z" transform="translate(162.003356 505.278209)" fill="#52295e"/><path id="evKq8gzfja610" d="M451.79,131.92c-.14.79-.95,1.05-2.43.79.09.02-.95-.26-3.1-.82-2.59-.63-4.76-1.11-6.5-1.41l-13.62-2.4c-.5.27-1.05.35-1.66.25-.96-.17-1.38-.58-1.27-1.22.16-.92,1.12-1.23,2.86-.93c3.33.5,5.19.58,5.56.24s.85-2.12,1.42-5.35l6.99-39.69c.3-2.2.41-3.51.35-3.92-.06-.42-.57-.71-1.53-.88l-3.8-.67c-.35-.06-.79-.14-1.31-.23-.96-.17-1.39-.56-1.28-1.17.09-.53.88-.71,2.36-.53c5.82.76,11.01.27,15.58-1.47l1.43-.54c.46,1.43.38,3.89-.23,7.37.03-.17-.05.26-.23,1.31s-.48,2.75-.9,5.1l-6.28,35.68c-.61,3.49-.91,5.54-.88,6.18.02.63.41,1.11,1.17,1.42c1.25.58,3.14,1.09,5.67,1.54c1.22.22,1.77.67,1.65,1.37Zm4.54-83.33c-.69,3.93-3,5.55-6.93,4.86-1.66-.29-2.96-1.08-3.9-2.38-.94-1.29-1.28-2.72-1-4.29.72-4.1,3.05-5.81,6.98-5.12s5.55,3,4.86,6.93Z" transform="translate(93.868042-141.915222)" fill="#52295e"/><path id="evKq8gzfja611" d="M515.78,144.56c-.13.65-.85.84-2.15.58l-1.56-.31c-1.57-.31-3.7-.74-6.39-1.28-8.52-1.7-13.56-2.71-15.13-3.02l-.91-.18c-1.13-.23-1.64-.64-1.51-1.25.09-.43.38-.65.87-.64.49,0,2.19.26,5.07.74c1.67.24,2.67.2,3.01-.14s.75-1.72,1.24-4.15l4.99-24.98c1.89-9.45,2.67-15.16,2.33-17.12-.7-4.2-3.27-6.74-7.7-7.63-4.35-.87-8.38.31-12.1,3.54-1.1.96-1.84,2.43-2.24,4.42l-8.11,40.59c-.21,1.04.61,1.79,2.45,2.25l3.95.92c.88.18,1.26.57,1.14,1.18s-.7.81-1.75.6l-2.09-.42c-1.91-.38-4.96-.99-9.13-1.82-.96-.19-3.02-.6-6.19-1.24-3.18-.63-5.02-1-5.54-1.11l-.78-.16c-1.3-.26-1.9-.66-1.8-1.19.11-.53.96-.72,2.55-.56c1.13.23,2.22.44,3.26.65c1.3.26,2.15.11,2.53-.44l.78-1.87l5.66-28.36c1.97-9.89,2.98-15.37,3.01-16.44s-.95-1.81-2.95-2.21c-.61-.12-1.65-.33-3.13-.62l-.65-.13c-1.74-.35-2.54-.84-2.42-1.49.17-.83,1.16-1.06,2.99-.7c2.63.44,5.55.52,8.76.26c3.22-.26,5.55-.84,6.99-1.72.92-.54,1.6-.77,2.03-.68.61.12.75,1.01.42,2.66l-1.25,6.26c5.68-4.92,12.09-6.67,19.22-5.25c6.26,1.25,10.32,4.46,12.18,9.62c1.04,2.92.84,8.03-.62,15.34l-5.94,29.74c-.56,2.78-.73,4.33-.52,4.64.42.63,1.62,1.14,3.63,1.54.26.05.74.15,1.44.29l.91.18c.87.17,1.25.55,1.13,1.11Z" transform="translate(-777.59393 175.073692)" fill="#52295e"/><path id="evKq8gzfja612" d="M590.91,109.59c-.92,3.97-3.15,5.55-6.69,4.73-1.21-.28-2.22-.94-3.02-2-.8-1.05-1.09-2.09-.85-3.13.08-.34.33-.85.76-1.53.43-.67.69-1.23.79-1.66.26-1.12-.22-1.82-1.42-2.1-1.04-.24-2.16.07-3.35.93-1.2.86-1.93,1.85-2.19,2.97-.06.26-.19,1.78-.37,4.56-.19,2.78-.44,4.86-.76,6.24-1.36,5.88-4.53,10.33-9.51,13.36s-10.49,3.85-16.54,2.45c-1.56-.36-4.26-1.67-8.1-3.92-1.04-.6-1.74-.95-2.08-1.03-1.81-.42-3.63-.06-5.43,1.06-1.81,1.13-2.91,2.56-3.31,4.28-1.04,4.49,1.16,7.37,6.6,8.63c2.07.48,5.49.86,10.25,1.14c3.68.22,6.99.66,9.93,1.34c5.27,1.22,9.07,3.56,11.42,7.01c2.34,3.46,2.94,7.64,1.8,12.57-1.72,7.43-6.32,12.87-13.81,16.33s-16.07,4.06-25.75,1.83c-7.17-1.66-12.47-4.41-15.91-8.25-3.43-3.84-4.56-8.31-3.38-13.41c1.14-4.92,3.9-8.2,8.28-9.82c2.18-.77,5.45-1.15,9.82-1.14-5.57-3.84-7.78-8.26-6.62-13.27c1.44-6.22,6.41-9.62,14.92-10.2-4.24-5.26-5.6-11.21-4.06-17.87c1.44-6.22,4.58-10.75,9.42-13.59s10.5-3.51,16.98-2.01c3.54.82,6.3,1.96,8.29,3.42c1.98,1.46,4.11,3.95,6.39,7.48c3.7-3.42,7.58-4.66,11.65-3.72c4.92,1.14,6.88,3.91,5.86,8.32Zm-28.57,59.19c1.66-7.17-1.73-11.73-10.17-13.68-2.41-.56-6.05-.99-10.93-1.3s-8.47-.73-10.8-1.27c-4.93,1.32-8.08,4.91-9.44,10.79-1.02,4.41-.27,8.31,2.26,11.72c2.52,3.4,6.37,5.71,11.54,6.9c6.54,1.51,12.47.99,17.78-1.55c5.31-2.55,8.56-6.42,9.76-11.6Zm1.5-51.94c2.9-12.52.89-19.59-6.02-21.19-6.74-1.56-11.46,3.49-14.15,15.16-3.04,13.13-.97,20.52,6.2,22.18c6.48,1.5,11.14-3.88,13.97-16.15Z" transform="matrix(.9997 0.024498-.024498 0.9997 740.240518 269.13926)" fill="#52295e"/><path id="evKq8gzfja613" d="M630.47,172.85c-.21.77-1.04.96-2.49.57.08.02-.92-.34-3.01-1.08-2.52-.86-4.64-1.52-6.35-1.98l-13.36-3.58c-.52.23-1.08.26-1.68.1-.94-.25-1.33-.7-1.16-1.33.24-.91,1.22-1.13,2.93-.67c3.28.79,5.12,1.03,5.52.72s1.03-2.04,1.88-5.21l10.44-38.92c.49-2.16.72-3.46.69-3.88-.02-.42-.51-.76-1.45-1.01l-3.73-1c-.34-.09-.77-.21-1.28-.34-.94-.25-1.33-.68-1.17-1.28.14-.52.94-.63,2.4-.32c5.73,1.27,10.94,1.24,15.65-.09l1.47-.41c.33,1.46.04,3.9-.88,7.32.05-.17-.07.26-.34,1.28-.28,1.03-.72,2.69-1.34,5l-9.38,34.99c-.92,3.42-1.39,5.44-1.42,6.08-.03.63.31,1.14,1.04,1.52c1.19.69,3.03,1.36,5.52,2.03c1.2.32,1.71.83,1.52,1.51Zm11.82-82.62c-1.03,3.85-3.48,5.26-7.33,4.23-1.63-.44-2.86-1.34-3.68-2.71-.83-1.37-1.03-2.82-.62-4.37c1.08-4.02,3.55-5.52,7.4-4.49s5.26,3.48,4.23,7.33Z" transform="translate(-33.803344-257.885969)" fill="#52295e"/><path id="evKq8gzfja614" d="M693.07,191.06c-.19.64-.92.77-2.19.39l-1.53-.45c-1.53-.45-3.62-1.06-6.25-1.83-8.34-2.44-13.27-3.89-14.81-4.34l-.89-.26c-1.11-.32-1.57-.78-1.4-1.38.12-.42.43-.61.93-.56.49.05,2.16.45,4.99,1.18c1.64.39,2.65.43,3.01.12.37-.31.9-1.65,1.6-4.03l7.16-24.45c2.71-9.25,3.99-14.87,3.83-16.85-.33-4.24-2.66-7-7-8.27-4.26-1.25-8.38-.43-12.36,2.46-1.18.86-2.05,2.26-2.62,4.21L653.9,176.73c-.3,1.02.45,1.84,2.24,2.45l3.86,1.27c.86.25,1.21.68,1.04,1.27s-.77.74-1.79.44l-2.04-.6c-1.87-.55-4.85-1.42-8.93-2.62-.94-.27-2.96-.87-6.06-1.78-3.11-.91-4.91-1.44-5.42-1.59l-.77-.22c-1.28-.37-1.84-.82-1.69-1.34s1.02-.63,2.59-.33c1.1.32,2.17.64,3.19.93c1.28.37,2.13.3,2.56-.22l.94-1.8l8.13-27.75c2.83-9.67,4.32-15.05,4.44-16.11.13-1.07-.79-1.89-2.74-2.46-.6-.17-1.62-.47-3.06-.9l-.64-.19c-1.7-.5-2.46-1.06-2.27-1.7.24-.81,1.25-.96,3.04-.44c2.58.66,5.48,1.01,8.71,1.03s5.6-.35,7.11-1.1c.97-.46,1.66-.62,2.09-.5.59.17.66,1.07.18,2.69l-1.79,6.13c6.09-4.4,12.63-5.58,19.61-3.54c6.13,1.8,9.89,5.35,11.29,10.65.78,3,.13,8.08-1.97,15.22l-8.53,29.1c-.8,2.72-1.11,4.25-.93,4.58.36.66,1.52,1.28,3.48,1.85.26.07.72.21,1.4.41l.89.26c.85.25,1.19.65,1.03,1.21Z" transform="translate(200.168518 439.080237)" fill="#52295e"/><path id="evKq8gzfja615" d="M754.04,208.83c-.19.59-.88.69-2.06.31l-.63-.21c-.68-.22-1.39-.45-2.15-.7l-1.01-.33c-4.13-1.34-7.9-1.66-11.29-.97-1.39.27-2.21.36-2.47.28-.76-.25-.97-.88-.65-1.89l1.4-3.88c-4.8,2.45-9.69,2.87-14.67,1.25-7.08-2.3-12.04-6.93-14.86-13.88-2.82-6.96-2.86-14.67-.11-23.14c2.83-8.72,7.42-15.05,13.78-18.98c6.35-3.93,13.24-4.69,20.67-2.28c5.73,1.86,9.36,5.32,10.89,10.39l6.4-19.73c2.08-6.41,3.07-10.47,2.99-12.17-.09-1.43-.65-2.26-1.67-2.5-2.5-.53-3.99-.88-4.49-1.04-1.08-.35-1.5-.91-1.25-1.67s.83-.99,1.75-.69l4.49,1.6c2.48.9,6.72.97,12.71.21.39-.06.71-.05.96.03.84.27.93,1.42.27,3.44-.16.51-.45,1.39-.86,2.66-.44,1.35-.82,2.53-1.15,3.54l-14.16,43.64c-6.49,19.99-9.79,30.75-9.92,32.3-.02.65,1.86,1.58,5.66,2.82c1.18.38,1.66.91,1.44,1.59ZM745.62,171c2.63-8.1,3.43-13.57,2.39-16.42-1.35-3.6-3.79-5.98-7.33-7.13-4.55-1.48-8.95-.29-13.18,3.55-4.23,3.85-7.63,9.74-10.21,17.66-2.46,7.59-3.39,14.47-2.78,20.63.27,2.61,1.16,4.97,2.66,7.09s3.31,3.52,5.42,4.21c2.61.85,5.23.84,7.84-.04s4.59-2.31,5.94-4.29c1.34-1.99,4.42-10.4,9.24-25.25Z" transform="translate(54.050405-245.201372)" fill="#52295e"/><path id="evKq8gzfja616" d="M783.17,221.09c-.26.75-1.1.88-2.53.39.08.03-.89-.4-2.93-1.3-2.46-1.04-4.52-1.85-6.2-2.43l-13.07-4.53c-.54.19-1.1.18-1.68-.02-.92-.32-1.27-.79-1.06-1.41.31-.89,1.3-1.04,2.97-.46c3.21,1.02,5.03,1.39,5.45,1.12.42-.28,1.17-1.96,2.25-5.06l13.21-38.07c.64-2.12.97-3.4.97-3.82s-.45-.79-1.37-1.11l-3.64-1.26c-.34-.12-.75-.26-1.26-.44-.92-.32-1.28-.77-1.08-1.36.18-.51.98-.56,2.41-.15c5.62,1.68,10.83,2.02,15.62,1.03l1.5-.3c.22,1.48-.24,3.9-1.4,7.24.06-.17-.09.25-.43,1.25-.35,1-.91,2.63-1.7,4.89l-11.87,34.23c-1.16,3.34-1.78,5.33-1.86,5.96s.23,1.16.93,1.59c1.14.77,2.92,1.58,5.35,2.42c1.17.41,1.64.95,1.41,1.62Zm17.73-81.55c-1.31,3.77-3.85,5-7.62,3.69-1.59-.55-2.75-1.54-3.48-2.97-.73-1.42-.83-2.89-.3-4.4c1.37-3.94,3.93-5.25,7.7-3.94s5,3.85,3.69,7.62Z" transform="translate(-20.956279 417.338298)" fill="#52295e"/><path id="evKq8gzfja617" d="M855.18,187.26c-.21.58-1.11.58-2.69,0-.58-.21-1.33-.49-2.25-.82l-.75-.27c-1.5-.55-3-.05-4.5,1.48-1.08,1.4-2.16,2.81-3.24,4.21l-22.28,28.48c-1.19,1.46-2.96,3.7-5.29,6.73-3.01,4.1-4.93,6.01-5.76,5.7-.58-.21-.88-1.22-.88-3.01-.05-1.15-.06-2.43-.02-3.83-.09-20.7-.19-31.03-.31-30.98.22-14.05.07-21.79-.44-23.23-.47-1.03-1.52-1.79-3.13-2.29l-2.87-1.05c-.83-.3-1.15-.73-.95-1.27s.88-.6,2.05-.17l8.75,3.19c1.33.49,3.96,1.44,7.87,2.87c4.25,1.55,6.45,2.35,6.62,2.42l.62.23c.83.3,1.14.75.93,1.33-.24.67-1.66.53-4.24-.41s-4-1.08-4.24-.41c-.34.92-.49,2.43-.46,4.52.13,3.82.12,11.92-.03,24.31-.14,5.52-.14,9.77,0,12.75c5.05-6.59,9.48-12.22,13.27-16.9c7.64-9.52,11.65-14.79,12.01-15.79.27-.75-.21-1.36-1.46-1.81-.67-.24-1.21-.44-1.62-.59l-1.12-.41c-1.08-.4-1.52-.88-1.31-1.46.18-.5.78-.58,1.78-.21l7.75,2.83l4.75,1.73c2.53.83,3.69,1.54,3.47,2.12Z" transform="matrix(.987557-.157262 0.157262 0.987557 359.437728 310.89593)" fill="#52295e"/><path id="evKq8gzfja618" d="M861.74,250.23c-.28.75-1.13.85-2.54.31.08.03-.88-.43-2.89-1.39-2.42-1.11-4.46-1.98-6.12-2.62l-12.93-4.92c-.54.17-1.1.15-1.68-.07-.91-.35-1.25-.83-1.02-1.44.33-.88,1.33-1,2.99-.37c3.18,1.12,4.98,1.54,5.42,1.28.43-.26,1.23-1.93,2.4-4.99l14.35-37.66c.71-2.1,1.07-3.36,1.09-3.78s-.43-.8-1.34-1.15l-3.6-1.37c-.33-.13-.75-.28-1.24-.47-.91-.35-1.26-.81-1.04-1.39.19-.51,1-.53,2.42-.08c5.57,1.85,10.76,2.35,15.58,1.5l1.5-.26c.18,1.49-.36,3.89-1.62,7.19.06-.17-.09.25-.47,1.24s-.99,2.61-1.84,4.84l-12.9,33.85c-1.26,3.31-1.94,5.27-2.03,5.9s.2,1.16.88,1.61c1.12.8,2.88,1.66,5.28,2.58c1.16.44,1.61,1,1.36,1.66Zm20.18-80.98c-1.42,3.73-4,4.88-7.72,3.46-1.58-.6-2.7-1.62-3.39-3.07-.68-1.45-.74-2.92-.17-4.41c1.48-3.89,4.09-5.13,7.82-3.71s4.88,4,3.46,7.72Z" transform="translate(52.136811-278.214259)" fill="#52295e"/><path id="evKq8gzfja619" d="M922.39,272.17c-.23.58-.92.64-2.07.18l-.62-.25c-.66-.26-1.36-.54-2.1-.83l-.99-.39c-4.04-1.6-7.78-2.16-11.21-1.69-1.41.18-2.23.22-2.48.12-.74-.29-.92-.94-.52-1.92l1.64-3.78c-4.95,2.14-9.86,2.24-14.72.31-6.92-2.75-11.57-7.68-13.95-14.8s-1.92-14.82,1.36-23.1c3.38-8.52,8.37-14.55,14.96-18.06c6.59-3.52,13.52-3.84,20.77-.96c5.6,2.22,9.01,5.91,10.21,11.06l7.65-19.29c2.48-6.26,3.74-10.25,3.76-11.96c0-1.43-.5-2.3-1.51-2.6-2.46-.69-3.93-1.13-4.41-1.32-1.06-.42-1.44-1-1.15-1.74s.89-.93,1.79-.58l4.38,1.88c2.42,1.06,6.65,1.4,12.67,1.02.39-.03.71,0,.96.09.82.32.84,1.48.05,3.45-.2.49-.54,1.36-1.03,2.6-.52,1.32-.98,2.47-1.37,3.46l-16.92,42.65c-7.75,19.53-11.73,30.07-11.96,31.6-.06.64,1.76,1.7,5.47,3.17c1.15.46,1.6,1.02,1.34,1.68Zm-5.99-38.29c3.14-7.91,4.28-13.32,3.44-16.24-1.11-3.68-3.4-6.21-6.86-7.59-4.45-1.77-8.91-.86-13.38,2.71s-8.24,9.23-11.31,16.98c-2.94,7.42-4.31,14.22-4.09,20.41.11,2.62.84,5.03,2.21,7.24c1.36,2.21,3.08,3.72,5.14,4.54c2.55,1.01,5.16,1.17,7.83.46c2.66-.71,4.73-2.01,6.2-3.91s5.08-10.1,10.83-24.61Z" transform="translate(157.248352 381.114539)" fill="#52295e"/><path id="evKq8gzfja620" d="M983.97,295.54c-.24.57-1.28.53-3.11-.13-6.56-2.22-12.75-3.14-18.57-2.75-.4.03-.72,0-.96-.11-.49-.2-.6-.63-.33-1.29l2.83-6.89c-5.9,3.71-12.23,4.17-18.98,1.39-6.02-2.48-9.61-6-10.77-10.58-.46-1.9-.53-3.5-.23-4.81s1.56-4.64,3.77-10.02l11.51-27.97c1.17-2.85,1.7-4.59,1.57-5.21s-1.12-1.36-2.97-2.22l-1.6-.66c-2.28-.75-3.25-1.53-2.92-2.35.24-.57,1.05-.57,2.44,0c1.48.61,3.56,1.59,6.26,2.96c1.35.68,2.15,1.07,2.39,1.18c2.87,1.18,5.6,2.11,8.2,2.8l-14.06,34.15c-2.59,6.28-3.89,10.61-3.91,12.99c0,3.72,2.01,6.41,6.03,8.06c4.34,1.79,8.28,1.31,11.81-1.44c2.55-2,5-5.86,7.35-11.57l7.81-18.97c1.14-2.77,1.88-4.91,2.2-6.4l1.66-4.04c.42-1.26.45-2.08.08-2.47s-1.25-.87-2.64-1.45c-3.48-1.33-5.05-2.41-4.71-3.23.2-.49,1.16-.38,2.88.33l1.11.46c.66.27,2.83,1.16,6.52,2.68c4.92,2.03,7.95,3.27,9.1,3.75l-14.12,34.31c-2.43,5.9-3.84,9.68-4.24,11.34s-.14,2.82.77,3.48s3.15,1.73,6.72,3.2c.97.4,1.34.89,1.1,1.46Z" transform="translate(332.512869-308.276284)" fill="#52295e"/><path id="evKq8gzfja621" d="M1035.94,315.78c-.58,1.39-2.64,2.24-6.16,2.54s-6.63-.11-9.31-1.23c-5.62-2.35-7.33-6.48-5.14-12.39-5.63,4.76-11.69,5.77-18.2,3.05-3.5-1.47-5.95-3.72-7.36-6.76s-1.42-6.19-.05-9.47c2.81-6.71,9.04-10.34,18.71-10.91c3.3-.15,8.63.54,15.99,2.08l1.28-3.07c3.01-7.2,4.63-12.09,4.85-14.69.44-4.72-1.63-8.04-6.21-9.96-2.86-1.2-5.58-1.42-8.15-.67s-4.36,2.31-5.35,4.68c-.27.66.09,1.19,1.09,1.61s1.69,1.29,2.08,2.6c.39,1.32.33,2.59-.19,3.81-1.51,3.6-4.04,4.65-7.6,3.16-1.86-.78-3.14-2.06-3.82-3.83-.68-1.78-.61-3.65.21-5.61c1.61-3.84,4.51-6.52,8.7-8.04c4.62-1.62,9.92-1.18,15.89,1.32c9,3.77,13.49,8.53,13.48,14.3-.05,2.19-1.24,6.07-3.57,11.63l-9.61,22.94c-1.58,3.76-2.46,5.99-2.65,6.68-.82,3.12-.25,5.08,1.71,5.91c2.29.96,4.51.93,6.67-.09c1.19-.56,2-.75,2.41-.58s.51.5.31.99Zm-16.15-22.05l3.75-8.96c-6.63-1.14-11.72-1.14-15.29.02-3.56,1.15-6.13,3.61-7.71,7.37-1.1,2.62-1.25,5.08-.46,7.38s2.31,3.92,4.57,4.87c3.47,1.45,7.07.65,10.81-2.4.86-.7,2.3-3.46,4.32-8.28Z" transform="translate(-20.295325 308.855686)" fill="#52295e"/><path id="evKq8gzfja622" d="M1057.75,330.42c-.31.74-1,.88-2.06.43l-1.47-.62c-.16-.07-2.29-1.06-6.4-2.97l-3.8-1.59c-.66-.28-3.95-1.58-9.89-3.93-.51-.17-1.01-.35-1.5-.56-1.26-.43-1.73-1.03-1.41-1.81.23-.54.79-.62,1.69-.24l3.19,1.34c2.29.96,3.64.95,4.05-.03.29-.46,1.67-3.63,4.14-9.51l26.19-62.43c1.13-2.7,1.67-4.2,1.61-4.52.03-.76-.49-1.36-1.55-1.8l-.98-.41-3.43-1.44c-1.15-.48-1.57-1.07-1.28-1.76.26-.62,1.43-.54,3.5.24c4.03,1.4,8.04,2.03,12.05,1.88l3.09-.15l1.14.04c-.34,2.65-1.57,6.36-3.67,11.15l-3.65,8.71-25.21,60.1c-1.03,2.45-1.6,3.92-1.7,4.41-.11.48.05.91.47,1.28.05.12,1.53.83,4.44,2.15c1.88.79,2.7,1.47,2.46,2.04Z" transform="translate(125.989319-340.214477)" fill="#52295e"/><path id="evKq8gzfja623" d="M1088.47,343.41c-.31.74-1.16.81-2.55.23.08.03-.87-.46-2.84-1.48-2.39-1.19-4.4-2.13-6.03-2.81l-12.76-5.33c-.55.15-1.11.11-1.68-.12-.9-.38-1.22-.87-.97-1.47.36-.87,1.36-.96,3-.27c3.14,1.22,4.93,1.7,5.38,1.45.44-.25,1.29-1.89,2.56-4.91l15.53-37.18c.77-2.08,1.17-3.33,1.21-3.75.03-.42-.4-.82-1.3-1.19l-3.56-1.49c-.33-.14-.74-.31-1.23-.51-.9-.38-1.23-.85-.99-1.42.21-.5,1.01-.5,2.42,0c5.51,2.02,10.68,2.69,15.52,1.99l1.51-.21c.13,1.49-.48,3.88-1.84,7.14.07-.16-.1.25-.51,1.22-.41.98-1.07,2.57-2,4.78l-13.96,33.43c-1.36,3.27-2.1,5.21-2.22,5.83s.16,1.17.83,1.64c1.09.84,2.82,1.75,5.2,2.75c1.14.48,1.58,1.05,1.31,1.7Zm22.74-80.3c-1.54,3.68-4.15,4.75-7.83,3.22-1.56-.65-2.65-1.71-3.29-3.17-.64-1.47-.65-2.94-.03-4.41c1.61-3.84,4.25-5,7.93-3.46s4.75,4.15,3.21,7.83Z" transform="translate(322.595581-359.794598)" fill="#52295e"/><path id="evKq8gzfja624" d="M1129.41,352.72c-.3.74-1.87,1.63-4.7,2.66-4.85,1.74-9.68,1.61-14.52-.39-4.51-1.86-7.44-4.41-8.78-7.65-.77-1.85.16-5.96,2.8-12.34l15.1-36.54c.25-.85-.01-1.49-.79-1.91l-4.67-1.93c-1.8-.75-2.59-1.4-2.35-1.98.24-.57.82-.72,1.75-.43c6.59,2.04,12.86.95,18.81-3.29.8-.54,1.56-.67,2.29-.36.57.23.74.64.5,1.21l-.2.49c-.17.41-.46,1.11-.86,2.09-1.42,3.44-2.17,5.72-2.25,6.84.67.47,1.87,1.06,3.59,1.77c4.51,1.86,7.58,2.9,9.23,3.09.36.05.67.13.91.23.66.27.84.76.55,1.47-.49,1.18-4.05.4-10.69-2.35-1.15-.47-2.83-1.17-5.04-2.08l-9.4,22.74c-4.74,11.47-7.43,18.78-8.06,21.93s.65,5.38,3.85,6.7c2.7,1.12,6.36.86,10.97-.79.5-.27.95-.33,1.36-.16.57.24.78.56.61.97Z" transform="translate(74.222229 282.493846)" fill="#52295e"/><path id="evKq8gzfja625" d="M1197.73,327.15c-.24.59-1.36.52-3.37-.19s-3.33-1.05-3.96-1.02c-.64.03-1.4.56-2.28,1.56l-1.78,1.91-2.23,2.68c-2.68,3.32-6.68,8.25-12.01,14.8-14.93,18.26-26.86,32.27-35.79,42.06-5.46,5.92-10.48,7.96-15.09,6.09-1.97-.8-3.36-2.03-4.17-3.69-.81-1.67-.85-3.4-.12-5.21.63-1.56,1.66-2.63,3.09-3.2s2.96-.53,4.61.14c2.22.9,3.46,2.45,3.71,4.66.17,1.7.51,2.64,1,2.84.74.3,2.71-1.25,5.89-4.65c4.73-5.07,8.71-9.73,11.96-13.96.36-18.41.81-34.43,1.36-48.08.33-9.33.35-14.11.05-14.32-.33-.61-1.58-1.36-3.76-2.24s-3.1-1.73-2.77-2.55c.27-.66.93-.77,2-.34.91.37,2.27,1.01,4.09,1.94s3.23,1.59,4.22,1.99c.33.13,1.07.43,2.22.9c1.77.59,4.2,1.44,7.29,2.56l6.36,2.38c.9.37,1.21.9.93,1.6-.25.61-1.91.35-4.99-.8-2.58-.95-4.02-1.06-4.31-.33-.26.65-.44,3.49-.53,8.54-.12,2.16-.22,4.41-.32,6.76l-.33,7.01c-.17,2.04-.35,6.77-.53,14.17.05,2.32.01,5.08-.1,8.3c17.89-21.56,27.08-32.96,27.58-34.19.3-.74.17-1.32-.38-1.74s-2.28-1.21-5.18-2.38c-.83-.33-1.11-.83-.84-1.49.23-.58.84-.67,1.83-.27.41.17.72.35.92.56c2.71,1.35,4.96,2.39,6.77,3.12l3.45,1.4c1.48.6,2.48.91,3,.92.52.02,1.11.16,1.76.43.74.3.99.74.75,1.33Z" transform="translate(149.773367 289.73222)" fill="#52295e"/><path id="evKq8gzfja626" d="M1294.38,364.11c-.26.71-1.02.83-2.26.36-.92-.34-1.66-.62-2.24-.84l-1-.37c-1.74-.65-4.31,1.13-7.7,5.37-2.08,2.77-4.12,5.55-6.11,8.34l-8.53,11c-3.03,3.79-7.69,9.9-13.98,18.33-1.81,2.54-3.05,3.69-3.71,3.44-.58-.22-.92-1.53-1.02-3.93s-.1-9.17,0-20.3c.05-2.92.07-7.17.08-12.75.02-3.68.12-6.72.3-9.12-6.67,7.91-15.71,19.25-27.13,33.99-.7.86-1.38,1.17-2.05.92s-1.02-1.09-1.05-2.52c.05-.64.08-2.24.09-4.8v-9.09c-.02-2.47.18-7.94.6-16.4s.69-13.47.81-15.04c.16-7.51-.11-11.97-.82-13.38-.62-.61-1.91-1.29-3.87-2.02-1.95-.73-2.79-1.47-2.51-2.22.22-.58.78-.7,1.7-.36l1,.37c.08.03,1.53.58,4.36,1.64c2.74,1.03,5.73,2.15,8.97,3.37c1.33.5,2.7,1.01,4.11,1.54s2.28.86,2.62.98l1.49.56c1.16.44,1.62.99,1.37,1.65-.28.75-.84.96-1.67.65l-3.11-1.17c-1.96-.83-3.11-.79-3.45.12-.28.75-.47,3.65-.57,8.71-.18,8.81-.61,19.79-1.28,32.94c7.91-10.3,14.88-19.11,20.91-26.41.9-1.08,2.33-2.8,4.3-5.18c2.03-2.65,3.47-3.81,4.3-3.5s1.19,2.01,1.07,5.09c-.34,5.46-.63,16.05-.85,31.79-.03,2.07-.11,5.16-.25,9.27l25.37-33.36c.19-.5-.22-.94-1.22-1.32-.33-.12-1.54-.58-3.62-1.36-.92-.34-1.24-.87-.98-1.57s.98-.84,2.14-.4l1.25.47l13.07,4.91c1,.37,1.36.92,1.1,1.62Z" transform="translate(191.837891 259.58487)" fill="#52295e"/><path id="evKq8gzfja627" d="M1300.64,425.54c-.27.75-1.11.88-2.53.38.08.03-.89-.41-2.92-1.31-2.45-1.05-4.51-1.87-6.18-2.46l-13.05-4.59c-.54.19-1.1.18-1.68-.03-.92-.32-1.27-.8-1.05-1.42.31-.89,1.3-1.04,2.98-.45c3.21,1.04,5.02,1.42,5.45,1.14.42-.27,1.18-1.96,2.27-5.05l13.38-38.01c.65-2.12.98-3.39.99-3.81c0-.42-.45-.79-1.37-1.12l-3.64-1.28c-.33-.12-.75-.26-1.25-.44-.92-.32-1.28-.78-1.07-1.36.18-.51.98-.56,2.41-.14c5.61,1.7,10.82,2.07,15.61,1.1l1.5-.3c.22,1.48-.26,3.9-1.43,7.23.06-.17-.09.25-.44,1.25s-.93,2.63-1.72,4.88l-12.03,34.17c-1.17,3.34-1.8,5.32-1.88,5.95s.23,1.16.92,1.59c1.14.78,2.92,1.59,5.34,2.44c1.17.41,1.64.95,1.4,1.62Zm18.1-81.47c-1.33,3.76-3.87,4.98-7.63,3.66-1.59-.56-2.75-1.55-3.46-2.98-.72-1.43-.81-2.89-.28-4.4c1.38-3.93,3.96-5.23,7.72-3.91s4.98,3.87,3.66,7.63Z" transform="translate(200.798218-441.989574)" fill="#52295e"/><path id="evKq8gzfja628" d="M1341.91,431.99c-.25.76-1.76,1.75-4.51,2.98-4.71,2.06-9.55,2.27-14.51.6-4.62-1.55-7.72-3.9-9.28-7.03-.9-1.79-.25-5.96,1.95-12.5l12.58-37.49c.2-.87-.11-1.48-.92-1.85l-4.79-1.61c-1.85-.62-2.68-1.22-2.48-1.81s.77-.77,1.72-.55c6.71,1.59,12.89.07,18.54-4.57.76-.6,1.51-.77,2.26-.52.58.2.78.59.58,1.18l-.17.5c-.14.42-.38,1.13-.72,2.14-1.18,3.53-1.78,5.86-1.78,6.98.7.42,1.93.93,3.7,1.52c4.62,1.55,7.76,2.37,9.42,2.46.36.03.67.08.92.17.67.23.89.7.64,1.43-.41,1.21-4.01.67-10.82-1.61-1.18-.4-2.9-.97-5.17-1.73l-7.83,23.33c-3.95,11.77-6.13,19.25-6.54,22.42-.42,3.18,1.02,5.32,4.3,6.42c2.77.93,6.4.42,10.9-1.53.48-.31.92-.39,1.35-.25.59.2.81.51.67.93Z" transform="translate(37.529481 202.403087)" fill="#52295e"/><path id="evKq8gzfja629" d="M1398.39,456.99c-.21.68-1.04.79-2.47.35-.68-.21-1.31-.41-1.91-.59-2.97-.92-9.57-2.97-19.82-6.14l-1.4-.43c-1.1-.34-1.55-.85-1.34-1.53.18-.59,1.88-.39,5.1.61c1.95.6,3.14.72,3.58.35s1.08-1.91,1.92-4.61l7.98-25.73c2.38-7.69,3.52-12.57,3.42-14.64-.24-4.33-2.81-7.26-7.72-8.78-4.07-1.26-7.93-.47-11.6,2.38-1.21.92-2.45,3.41-3.71,7.46l-10.02,32.32c-.71,2.28-1.07,3.6-1.09,3.97-.18.87,0,1.46.56,1.77.55.31,2.34.98,5.37,2.01c1.02.32,1.42.81,1.21,1.49-.18.59-.7.75-1.54.49l-1.27-.39-10.04-3.11c-7-2.27-10.9-3.47-11.69-3.62l-1.27-.39c-.93-.29-1.32-.69-1.16-1.2.18-.59.74-.74,1.67-.45l1.91.59l1.94.46c1.92.69,3.12.41,3.6-.83l17.71-57.13c4.21-13.57,6.27-20.97,6.19-22.21-.25-1-2.18-2.12-5.79-3.33-2.03-.63-2.95-1.26-2.76-1.89.17-.54.47-.79.93-.75.45.04,1.92.4,4.4,1.07c4.34,1.26,8.81,1.53,13.39.81.39-.06,1.05-.09,1.98-.08.28,1.2-.44,4.55-2.14,10.06l-9.65,31.12c5.41-4.26,11.33-5.4,17.77-3.4c6.77,2.1,11.02,5.46,12.75,10.08.86,2.31.94,5.21.23,8.7-.2,1.24-.99,4.1-2.38,8.59l-9.93,32.01c-.18.87,1.89,1.98,6.21,3.32.71.41,1,.82.87,1.24Z" transform="translate(177.198424 255.400678)" fill="#52295e"/><path id="evKq8gzfja630" d="M1486.75,478.93c-.16.6-.84.74-2.04.43l-.64-.17c-.69-.18-1.42-.37-2.19-.57l-1.03-.27c-4.2-1.1-7.98-1.21-11.33-.32-1.38.35-2.19.49-2.45.42-.77-.2-1.02-.82-.75-1.85l1.18-3.95c-4.66,2.72-9.52,3.41-14.57,2.09-7.2-1.89-12.41-6.23-15.63-13.01s-3.69-14.48-1.43-23.09c2.33-8.87,6.55-15.45,12.68-19.73c6.12-4.28,12.96-5.44,20.5-3.46c5.83,1.53,9.65,4.78,11.47,9.75l5.27-20.07c1.71-6.52,2.47-10.63,2.29-12.33-.17-1.42-.78-2.22-1.81-2.4-2.52-.39-4.04-.65-4.54-.78-1.1-.29-1.55-.82-1.35-1.59s.77-1.04,1.71-.79l4.57,1.34c2.53.76,6.77.59,12.7-.51.38-.08.71-.09.96-.02.85.22,1.01,1.36.47,3.42-.13.51-.37,1.42-.71,2.7-.36,1.37-.68,2.57-.95,3.6l-11.66,44.38c-5.34,20.33-8.03,31.26-8.07,32.81.01.65,1.95,1.47,5.81,2.49c1.2.32,1.71.82,1.53,1.5Zm-10.56-37.29c2.16-8.23,2.65-13.74,1.45-16.53-1.55-3.52-4.13-5.76-7.73-6.7-4.63-1.22-8.95.22-12.96,4.3s-7.07,10.15-9.18,18.21c-2.03,7.72-2.56,14.64-1.6,20.76.42,2.59,1.44,4.89,3.06,6.92s3.5,3.33,5.65,3.89c2.66.7,5.27.54,7.83-.49c2.56-1.02,4.46-2.56,5.68-4.63c1.23-2.06,3.83-10.64,7.79-25.73Z" transform="translate(-75.226074-19.620109)" fill="#52295e"/><path id="evKq8gzfja631" d="M1543.17,479.71c-.2.87-1.22,2.24-3.07,4.14s-3.62,3.38-5.32,4.44c-4.59,2.95-10,3.71-16.22,2.28-7.78-1.79-13.64-6.09-17.57-12.91-3.94-6.82-4.95-14.38-3.05-22.67c1.99-8.64,6.13-15.29,12.43-19.93c6.3-4.65,13.16-6.12,20.6-4.41c6.13,1.41,10.87,4.39,14.19,8.92c3.32,4.54,4.47,9.65,3.44,15.32-2.87-.2-6.58-.87-11.14-2.01l-9.07-2.08c-.61-.14-5.82-1.2-15.64-3.19-1.09,2.74-1.92,5.41-2.52,7.99-2,8.7-1.87,15.77.38,21.23s6.4,8.88,12.45,10.27c3.46.79,6.4.65,8.83-.43s5.36-3.54,8.79-7.4c.5-.61,1.06-.85,1.66-.71.69.16.97.54.83,1.15Zm-5.2-29.03c2.04-10.45-.49-16.49-7.57-18.12-7-1.61-12.56,2.57-16.67,12.55l24.24,5.57Z" transform="translate(-75.226074-19.620109)" fill="#52295e"/><path id="evKq8gzfja632" d="M1591.95,487.1c-1.02,5.05-3.72,8.97-8.09,11.76-4.38,2.79-9.12,3.67-14.21,2.65-2.94-.59-6.31-2.36-10.12-5.29-1-.83-1.93-1.34-2.79-1.51-1.21-.24-2.28.4-3.22,1.93-.56.97-1.14,1.4-1.74,1.28-.61-.12-.84-.53-.7-1.23.09-.44.19-.96.32-1.56.35-1.74.87-4.3,1.55-7.69.05-.26.26-1.3.63-3.13s.61-3.04.74-3.65l.29-1.43c.19-.96.59-1.37,1.2-1.25.69.14.99.7.88,1.68-.29,4.13.2,7.51,1.49,10.14c2.56,5.26,6.75,8.47,12.57,9.64c3.13.63,5.83.22,8.12-1.22c2.28-1.44,3.73-3.69,4.34-6.74.68-3.4.14-6.32-1.63-8.76-.99-1.38-1.94-2.41-2.84-3.09s-3.61-2.43-8.1-5.24c-8.91-5.6-12.63-12.06-11.16-19.38.98-4.88,3.45-8.64,7.39-11.29s8.33-3.49,13.16-2.52c1.72.35,4.21,1.39,7.44,3.13.81.43,1.56.72,2.25.86c1.81.37,3.11-.28,3.89-1.93.43-.82.91-1.17,1.43-1.07.6.12.83.53.69,1.23l-.16.78-1.1,5.48c-.51,2.07-.96,5.46-1.37,10.17l-.05.26c-.14.7-.56.97-1.25.83-.52-.11-.91-1.55-1.16-4.34-.32-3.35-1.48-6.23-3.48-8.64s-4.57-3.93-7.7-4.56c-2.96-.59-5.57-.17-7.85,1.27s-3.7,3.56-4.26,6.35c-.88,4.36,1.37,8.25,6.74,11.69c8.32,5.39,13.46,9.51,15.42,12.35c2.51,3.68,3.33,7.7,2.46,12.05Z" transform="translate(131.268896 11.545934)" fill="#52295e"/><path id="evKq8gzfja633" d="M1591.95,487.1c-1.02,5.05-3.72,8.97-8.09,11.76-4.38,2.79-9.12,3.67-14.21,2.65-2.94-.59-6.31-2.36-10.12-5.29-1-.83-1.93-1.34-2.79-1.51-1.21-.24-2.28.4-3.22,1.93-.56.97-1.14,1.4-1.74,1.28-.61-.12-.84-.53-.7-1.23.09-.44.19-.96.32-1.56.35-1.74.87-4.3,1.55-7.69.05-.26.26-1.3.63-3.13s.61-3.04.74-3.65l.29-1.43c.19-.96.59-1.37,1.2-1.25.69.14.99.7.88,1.68-.29,4.13.2,7.51,1.49,10.14c2.56,5.26,6.75,8.47,12.57,9.64c3.13.63,5.83.22,8.12-1.22c2.28-1.44,3.73-3.69,4.34-6.74.68-3.4.14-6.32-1.63-8.76-.99-1.38-1.94-2.41-2.84-3.09s-3.61-2.43-8.1-5.24c-8.91-5.6-12.63-12.06-11.16-19.38.98-4.88,3.45-8.64,7.39-11.29s8.33-3.49,13.16-2.52c1.72.35,4.21,1.39,7.44,3.13.81.43,1.56.72,2.25.86c1.81.37,3.11-.28,3.89-1.93.43-.82.91-1.17,1.43-1.07.6.12.83.53.69,1.23l-.16.78-1.1,5.48c-.51,2.07-.96,5.46-1.37,10.17l-.05.26c-.14.7-.56.97-1.25.83-.52-.11-.91-1.55-1.16-4.34-.32-3.35-1.48-6.23-3.48-8.64s-4.57-3.93-7.7-4.56c-2.96-.59-5.57-.17-7.85,1.27s-3.7,3.56-4.26,6.35c-.88,4.36,1.37,8.25,6.74,11.69c8.32,5.39,13.46,9.51,15.42,12.35c2.51,3.68,3.33,7.7,2.46,12.05Z" transform="translate(-75.226074-19.62011)" fill="#52295e"/><path id="evKq8gzfja634" d="M1624.99,509.45c-.14.79-.95,1.04-2.44.78.08.02-.95-.26-3.09-.83-2.59-.64-4.75-1.13-6.5-1.44l-13.61-2.45c-.5.27-1.06.35-1.67.24-.96-.17-1.38-.58-1.27-1.23.17-.92,1.12-1.23,2.87-.92c3.33.51,5.18.6,5.56.26s.85-2.12,1.44-5.35l7.14-39.66c.3-2.2.43-3.5.37-3.92s-.57-.71-1.53-.88l-3.8-.68c-.35-.06-.79-.14-1.31-.24-.96-.17-1.39-.56-1.28-1.18.1-.53.88-.71,2.36-.52c5.81.79,11.01.32,15.59-1.4l1.43-.53c.45,1.43.37,3.89-.26,7.37.03-.17-.05.26-.24,1.3-.19,1.05-.49,2.74-.92,5.09l-6.42,35.65c-.63,3.48-.93,5.54-.91,6.17s.41,1.11,1.16,1.42c1.25.58,3.13,1.1,5.67,1.56c1.22.22,1.77.68,1.64,1.38Zm4.87-83.32c-.71,3.93-3.02,5.54-6.95,4.83-1.66-.3-2.96-1.09-3.89-2.39-.94-1.29-1.26-2.73-.98-4.3.74-4.1,3.07-5.8,7-5.09s5.54,3.02,4.83,6.95Z" transform="translate(-75.226073-19.62011)" fill="#52295e"/><path id="evKq8gzfja635" d="M1699.94,469.79c-.63,4.03-2.74,5.76-6.33,5.2-1.23-.19-2.28-.78-3.16-1.77s-1.23-2.01-1.07-3.06c.05-.35.27-.88.65-1.58s.6-1.27.67-1.71c.18-1.14-.35-1.8-1.57-2-1.05-.16-2.14.23-3.28,1.17-1.14.95-1.79,1.99-1.97,3.12-.04.26-.06,1.79-.04,4.57.01,2.79-.09,4.88-.31,6.28-.93,5.96-3.77,10.63-8.51,14.02-4.75,3.39-10.19,4.6-16.32,3.65-1.58-.25-4.37-1.35-8.37-3.32-1.08-.53-1.8-.82-2.15-.87-1.84-.29-3.62.2-5.34,1.46s-2.72,2.76-2.99,4.51c-.71,4.56,1.69,7.26,7.21,8.12c2.1.33,5.54.46,10.3.4c3.69-.05,7.02.15,10,.62c5.34.83,9.31,2.89,11.89,6.16c2.59,3.28,3.49,7.41,2.71,12.4-1.17,7.53-5.37,13.3-12.59,17.29s-15.73,5.22-25.54,3.69c-7.27-1.13-12.76-3.49-16.46-7.08-3.7-3.58-5.15-7.96-4.35-13.13.78-4.99,3.29-8.46,7.54-10.4c2.12-.93,5.36-1.54,9.71-1.85-5.84-3.42-8.36-7.67-7.57-12.76.98-6.31,5.69-10.06,14.14-11.26-4.61-4.94-6.4-10.78-5.34-17.52.98-6.31,3.79-11.05,8.41-14.24c4.62-3.18,10.22-4.26,16.79-3.24c3.59.56,6.43,1.5,8.51,2.81s4.39,3.65,6.92,7c3.45-3.68,7.23-5.2,11.34-4.56c4.99.78,7.14,3.4,6.45,7.87Zm-24.2,61.11c1.13-7.27-2.58-11.57-11.14-12.91-2.45-.38-6.11-.55-10.99-.5s-8.5-.11-10.86-.48c-4.82,1.67-7.7,5.48-8.63,11.44-.7,4.47.34,8.31,3.1,11.52s6.77,5.23,12.01,6.05c6.64,1.03,12.51.09,17.62-2.84s8.07-7.02,8.89-12.28Zm-2.27-51.91c1.98-12.7-.53-19.6-7.54-20.69-6.83-1.07-11.17,4.31-13.02,16.14-2.08,13.32.52,20.54,7.79,21.68c6.57,1.02,10.83-4.68,12.77-17.12Z" transform="translate(-75.226075-19.620109)" fill="#52295e"/><path id="evKq8gzfja636" d="M1754.45,527.95c-.08.66-.78.9-2.1.74l-1.58-.2c-1.58-.2-3.74-.47-6.47-.81-8.62-1.08-13.72-1.72-15.31-1.92l-.92-.12c-1.14-.14-1.68-.52-1.6-1.14.05-.44.33-.67.83-.7.49-.03,2.2.1,5.11.37c1.68.12,2.68,0,2.99-.36s.62-1.77.93-4.23l3.17-25.28c1.2-9.57,1.56-15.32,1.09-17.25-1-4.14-3.74-6.49-8.23-7.05-4.4-.55-8.34.92-11.81,4.4-1.02,1.03-1.66,2.56-1.91,4.58l-5.15,41.08c-.13,1.05.74,1.74,2.6,2.06l4.01.64c.89.11,1.3.47,1.22,1.09-.08.61-.64.86-1.7.72l-2.11-.26c-1.94-.24-5.01-.63-9.24-1.16-.97-.12-3.06-.38-6.27-.79-3.21-.4-5.08-.64-5.61-.7l-.79-.1c-1.32-.17-1.95-.52-1.88-1.06s.9-.79,2.51-.74c1.14.14,2.24.28,3.3.41c1.32.17,2.15-.04,2.49-.62l.64-1.92l3.6-28.69c1.25-10,1.86-15.54,1.82-16.62-.05-1.07-1.08-1.74-3.1-1.99-.62-.08-1.67-.21-3.17-.4l-.66-.08c-1.76-.22-2.6-.66-2.52-1.31.11-.84,1.08-1.15,2.93-.92c2.65.25,5.57.12,8.76-.38c3.19-.49,5.47-1.23,6.85-2.22.88-.6,1.54-.88,1.98-.82.61.08.82.95.61,2.62l-.79,6.33c5.31-5.32,11.58-7.53,18.79-6.62c6.33.79,10.62,3.7,12.85,8.71c1.25,2.84,1.42,7.95.49,15.34l-3.77,30.09c-.35,2.82-.41,4.37-.18,4.67.46.59,1.7,1.02,3.73,1.27.26.03.75.09,1.45.18l.92.12c.88.11,1.28.45,1.21,1.03Z" transform="translate(-75.226075-19.620109)" fill="#52295e"/><path id="evKq8gzfja637" d="M1779.85,524.93c-.2,1.96-1.06,3.56-2.57,4.8s-3.24,1.76-5.17,1.56c-2.03-.21-3.66-1.08-4.88-2.59-1.23-1.52-1.73-3.31-1.52-5.35.2-1.96,1.06-3.56,2.57-4.79c1.51-1.24,3.28-1.75,5.31-1.54c1.94.2,3.52,1.06,4.75,2.58c1.22,1.52,1.73,3.3,1.52,5.35Z" transform="translate(-549.686833-120.693544)" fill="#52295e"/>
<script><![CDATA[
!function(t,n){"object"==typeof exports&&"undefined"!=typeof module?module.exports=n():"function"==typeof __SVGATOR_DEFINE__&&__SVGATOR_DEFINE__.amd?__SVGATOR_DEFINE__(n):((t="undefined"!=typeof globalThis?globalThis:t||self).__SVGATOR_PLAYER__=t.__SVGATOR_PLAYER__||{},t.__SVGATOR_PLAYER__["5c7f360c"]=n())}(this,(function(){"use strict";function t(t,n){var e=Object.keys(t);if(Object.getOwnPropertySymbols){var r=Object.getOwnPropertySymbols(t);n&&(r=r.filter((function(n){return Object.getOwnPropertyDescriptor(t,n).enumerable}))),e.push.apply(e,r)}return e}function n(n){for(var e=1;e<arguments.length;e++){var r=null!=arguments[e]?arguments[e]:{};e%2?t(Object(r),!0).forEach((function(t){o(n,t,r[t])})):Object.getOwnPropertyDescriptors?Object.defineProperties(n,Object.getOwnPropertyDescriptors(r)):t(Object(r)).forEach((function(t){Object.defineProperty(n,t,Object.getOwnPropertyDescriptor(r,t))}))}return n}function e(t){return(e="function"==typeof Symbol&&"symbol"==typeof Symbol.iterator?function(t){return typeof t}:function(t){return t&&"function"==typeof Symbol&&t.constructor===Symbol&&t!==Symbol.prototype?"symbol":typeof t})(t)}function r(t,n){if(!(t instanceof n))throw new TypeError("Cannot call a class as a function")}function i(t,n){for(var e=0;e<n.length;e++){var r=n[e];r.enumerable=r.enumerable||!1,r.configurable=!0,"value"in r&&(r.writable=!0),Object.defineProperty(t,r.key,r)}}function u(t,n,e){return n&&i(t.prototype,n),e&&i(t,e),t}function o(t,n,e){return n in t?Object.defineProperty(t,n,{value:e,enumerable:!0,configurable:!0,writable:!0}):t[n]=e,t}function a(t){return(a=Object.setPrototypeOf?Object.getPrototypeOf:function(t){return t.__proto__||Object.getPrototypeOf(t)})(t)}function l(t,n){return(l=Object.setPrototypeOf||function(t,n){return t.__proto__=n,t})(t,n)}function s(){if("undefined"==typeof Reflect||!Reflect.construct)return!1;if(Reflect.construct.sham)return!1;if("function"==typeof Proxy)return!0;try{return Boolean.prototype.valueOf.call(Reflect.construct(Boolean,[],(function(){}))),!0}catch(t){return!1}}function f(t,n,e){return(f=s()?Reflect.construct:function(t,n,e){var r=[null];r.push.apply(r,n);var i=new(Function.bind.apply(t,r));return e&&l(i,e.prototype),i}).apply(null,arguments)}function c(t,n){if(n&&("object"==typeof n||"function"==typeof n))return n;if(void 0!==n)throw new TypeError("Derived constructors may only return object or undefined");return function(t){if(void 0===t)throw new ReferenceError("this hasn't been initialised - super() hasn't been called");return t}(t)}function h(t,n,e){return(h="undefined"!=typeof Reflect&&Reflect.get?Reflect.get:function(t,n,e){var r=function(t,n){for(;!Object.prototype.hasOwnProperty.call(t,n)&&null!==(t=a(t)););return t}(t,n);if(r){var i=Object.getOwnPropertyDescriptor(r,n);return i.get?i.get.call(e):i.value}})(t,n,e||t)}function v(t){return function(t){if(Array.isArray(t))return y(t)}(t)||function(t){if("undefined"!=typeof Symbol&&null!=t[Symbol.iterator]||null!=t["@@iterator"])return Array.from(t)}(t)||function(t,n){if(!t)return;if("string"==typeof t)return y(t,n);var e=Object.prototype.toString.call(t).slice(8,-1);"Object"===e&&t.constructor&&(e=t.constructor.name);if("Map"===e||"Set"===e)return Array.from(t);if("Arguments"===e||/^(?:Ui|I)nt(?:8|16|32)(?:Clamped)?Array$/.test(e))return y(t,n)}(t)||function(){throw new TypeError("Invalid attempt to spread non-iterable instance.\nIn order to be iterable, non-array objects must have a [Symbol.iterator]() method.")}()}function y(t,n){(null==n||n>t.length)&&(n=t.length);for(var e=0,r=new Array(n);e<n;e++)r[e]=t[e];return r}Number.isInteger||(Number.isInteger=function(t){return"number"==typeof t&&isFinite(t)&&Math.floor(t)===t}),Number.EPSILON||(Number.EPSILON=2220446049250313e-31);var g=d(Math.pow(10,-6));function d(t){var n=arguments.length>1&&void 0!==arguments[1]?arguments[1]:6;if(Number.isInteger(t))return t;var e=Math.pow(10,n);return Math.round((+t+Number.EPSILON)*e)/e}function p(t,n){var e=arguments.length>2&&void 0!==arguments[2]?arguments[2]:g;return Math.abs(t-n)<e}var m=Math.PI/180;function b(t){return t}function w(t,n,e){var r=1-e;return 3*e*r*(t*r+n*e)+e*e*e}function A(){var t=arguments.length>0&&void 0!==arguments[0]?arguments[0]:0,n=arguments.length>1&&void 0!==arguments[1]?arguments[1]:0,e=arguments.length>2&&void 0!==arguments[2]?arguments[2]:1,r=arguments.length>3&&void 0!==arguments[3]?arguments[3]:1;return t<0||t>1||e<0||e>1?null:p(t,n)&&p(e,r)?b:function(i){if(i<=0)return t>0?i*n/t:0===n&&e>0?i*r/e:0;if(i>=1)return e<1?1+(i-1)*(r-1)/(e-1):1===e&&t<1?1+(i-1)*(n-1)/(t-1):1;for(var u,o=0,a=1;o<a;){var l=w(t,e,u=(o+a)/2);if(p(i,l))break;l<i?o=u:a=u}return w(n,r,u)}}function _(){return 1}function x(t){return 1===t?1:0}function k(){var t=arguments.length>0&&void 0!==arguments[0]?arguments[0]:1,n=arguments.length>1&&void 0!==arguments[1]?arguments[1]:0;if(1===t){if(0===n)return x;if(1===n)return _}var e=1/t;return function(t){return t>=1?1:(t+=n*e)-t%e}}var S=Math.sin,O=Math.cos,j=Math.acos,E=Math.asin,M=Math.tan,P=Math.atan2,I=Math.PI/180,R=180/Math.PI,F=Math.sqrt,N=function(){function t(){var n=arguments.length>0&&void 0!==arguments[0]?arguments[0]:1,e=arguments.length>1&&void 0!==arguments[1]?arguments[1]:0,i=arguments.length>2&&void 0!==arguments[2]?arguments[2]:0,u=arguments.length>3&&void 0!==arguments[3]?arguments[3]:1,o=arguments.length>4&&void 0!==arguments[4]?arguments[4]:0,a=arguments.length>5&&void 0!==arguments[5]?arguments[5]:0;r(this,t),this.m=[n,e,i,u,o,a],this.i=null,this.w=null,this.s=null}return u(t,[{key:"determinant",get:function(){var t=this.m;return t[0]*t[3]-t[1]*t[2]}},{key:"isIdentity",get:function(){if(null===this.i){var t=this.m;this.i=1===t[0]&&0===t[1]&&0===t[2]&&1===t[3]&&0===t[4]&&0===t[5]}return this.i}},{key:"point",value:function(t,n){var e=this.m;return{x:e[0]*t+e[2]*n+e[4],y:e[1]*t+e[3]*n+e[5]}}},{key:"translateSelf",value:function(){var t=arguments.length>0&&void 0!==arguments[0]?arguments[0]:0,n=arguments.length>1&&void 0!==arguments[1]?arguments[1]:0;if(!t&&!n)return this;var e=this.m;return e[4]+=e[0]*t+e[2]*n,e[5]+=e[1]*t+e[3]*n,this.w=this.s=this.i=null,this}},{key:"rotateSelf",value:function(){var t=arguments.length>0&&void 0!==arguments[0]?arguments[0]:0;if(t%=360){var n=S(t*=I),e=O(t),r=this.m,i=r[0],u=r[1];r[0]=i*e+r[2]*n,r[1]=u*e+r[3]*n,r[2]=r[2]*e-i*n,r[3]=r[3]*e-u*n,this.w=this.s=this.i=null}return this}},{key:"scaleSelf",value:function(){var t=arguments.length>0&&void 0!==arguments[0]?arguments[0]:1,n=arguments.length>1&&void 0!==arguments[1]?arguments[1]:1;if(1!==t||1!==n){var e=this.m;e[0]*=t,e[1]*=t,e[2]*=n,e[3]*=n,this.w=this.s=this.i=null}return this}},{key:"skewSelf",value:function(t,n){if(n%=360,(t%=360)||n){var e=this.m,r=e[0],i=e[1],u=e[2],o=e[3];t&&(t=M(t*I),e[2]+=r*t,e[3]+=i*t),n&&(n=M(n*I),e[0]+=u*n,e[1]+=o*n),this.w=this.s=this.i=null}return this}},{key:"resetSelf",value:function(){var t=arguments.length>0&&void 0!==arguments[0]?arguments[0]:1,n=arguments.length>1&&void 0!==arguments[1]?arguments[1]:0,e=arguments.length>2&&void 0!==arguments[2]?arguments[2]:0,r=arguments.length>3&&void 0!==arguments[3]?arguments[3]:1,i=arguments.length>4&&void 0!==arguments[4]?arguments[4]:0,u=arguments.length>5&&void 0!==arguments[5]?arguments[5]:0,o=this.m;return o[0]=t,o[1]=n,o[2]=e,o[3]=r,o[4]=i,o[5]=u,this.w=this.s=this.i=null,this}},{key:"recomposeSelf",value:function(){var t=arguments.length>0&&void 0!==arguments[0]?arguments[0]:null,n=arguments.length>1&&void 0!==arguments[1]?arguments[1]:null,e=arguments.length>2&&void 0!==arguments[2]?arguments[2]:null,r=arguments.length>3&&void 0!==arguments[3]?arguments[3]:null,i=arguments.length>4&&void 0!==arguments[4]?arguments[4]:null;return this.isIdentity||this.resetSelf(),t&&(t.x||t.y)&&this.translateSelf(t.x,t.y),n&&this.rotateSelf(n),e&&(e.x&&this.skewSelf(e.x,0),e.y&&this.skewSelf(0,e.y)),!r||1===r.x&&1===r.y||this.scaleSelf(r.x,r.y),i&&(i.x||i.y)&&this.translateSelf(i.x,i.y),this}},{key:"decompose",value:function(){var t=arguments.length>0&&void 0!==arguments[0]?arguments[0]:0,n=arguments.length>1&&void 0!==arguments[1]?arguments[1]:0,e=this.m,r=e[0]*e[0]+e[1]*e[1],i=[[e[0],e[1]],[e[2],e[3]]],u=F(r);if(0===u)return{origin:{x:d(e[4]),y:d(e[5])},translate:{x:d(t),y:d(n)},scale:{x:0,y:0},skew:{x:0,y:0},rotate:0};i[0][0]/=u,i[0][1]/=u;var o=e[0]*e[3]-e[1]*e[2]<0;o&&(u=-u);var a=i[0][0]*i[1][0]+i[0][1]*i[1][1];i[1][0]-=i[0][0]*a,i[1][1]-=i[0][1]*a;var l=F(i[1][0]*i[1][0]+i[1][1]*i[1][1]);if(0===l)return{origin:{x:d(e[4]),y:d(e[5])},translate:{x:d(t),y:d(n)},scale:{x:d(u),y:0},skew:{x:0,y:0},rotate:0};i[1][0]/=l,i[1][1]/=l,a/=l;var s=0;return i[1][1]<0?(s=j(i[1][1])*R,i[0][1]<0&&(s=360-s)):s=E(i[0][1])*R,o&&(s=-s),a=P(a,F(i[0][0]*i[0][0]+i[0][1]*i[0][1]))*R,o&&(a=-a),{origin:{x:d(e[4]),y:d(e[5])},translate:{x:d(t),y:d(n)},scale:{x:d(u),y:d(l)},skew:{x:d(a),y:0},rotate:d(s)}}},{key:"clone",value:function(){var t=this.m;return new this.constructor(t[0],t[1],t[2],t[3],t[4],t[5])}},{key:"toString",value:function(){var t=arguments.length>0&&void 0!==arguments[0]?arguments[0]:" ";if(null===this.s){var n=this.m.map((function(t){return d(t)}));1===n[0]&&0===n[1]&&0===n[2]&&1===n[3]?this.s="translate("+n[4]+t+n[5]+")":this.s="matrix("+n.join(t)+")"}return this.s}}],[{key:"create",value:function(t){return t?Array.isArray(t)?f(this,v(t)):t instanceof this?t.clone():(new this).recomposeSelf(t.origin,t.rotate,t.skew,t.scale,t.translate):new this}}]),t}();function T(t,n,e){return t>=.5?e:n}function B(t,n,e){return 0===t||n===e?n:t*(e-n)+n}function q(t,n,e){var r=B(t,n,e);return r<=0?0:r}function D(t,n,e){var r=B(t,n,e);return r<=0?0:r>=1?1:r}function L(t,n,e){return 0===t?n:1===t?e:{x:B(t,n.x,e.x),y:B(t,n.y,e.y)}}function C(t,n,e){var r=function(t,n,e){return Math.round(B(t,n,e))}(t,n,e);return r<=0?0:r>=255?255:r}function V(t,n,e){return 0===t?n:1===t?e:{r:C(t,n.r,e.r),g:C(t,n.g,e.g),b:C(t,n.b,e.b),a:B(t,null==n.a?1:n.a,null==e.a?1:e.a)}}function G(t,n){for(var e=[],r=0;r<t;r++)e.push(n);return e}function z(t,n){if(--n<=0)return t;var e=(t=Object.assign([],t)).length;do{for(var r=0;r<e;r++)t.push(t[r])}while(--n>0);return t}var Y,$=function(){function t(n){r(this,t),this.list=n,this.length=n.length}return u(t,[{key:"setAttribute",value:function(t,n){for(var e=this.list,r=0;r<this.length;r++)e[r].setAttribute(t,n)}},{key:"removeAttribute",value:function(t){for(var n=this.list,e=0;e<this.length;e++)n[e].removeAttribute(t)}},{key:"style",value:function(t,n){for(var e=this.list,r=0;r<this.length;r++)e[r].style[t]=n}}]),t}(),U=/-./g,Q=function(t,n){return n.toUpperCase()};function H(t){return"function"==typeof t?t:T}function J(t){return t?"function"==typeof t?t:Array.isArray(t)?function(t){var n=arguments.length>1&&void 0!==arguments[1]?arguments[1]:b;if(!Array.isArray(t))return n;switch(t.length){case 1:return k(t[0])||n;case 2:return k(t[0],t[1])||n;case 4:return A(t[0],t[1],t[2],t[3])||n}return n}(t,null):function(t,n){var e=arguments.length>2&&void 0!==arguments[2]?arguments[2]:b;switch(t){case"linear":return b;case"steps":return k(n.steps||1,n.jump||0)||e;case"bezier":case"cubic-bezier":return A(n.x1||0,n.y1||0,n.x2||0,n.y2||0)||e}return e}(t.type,t.value,null):null}function Z(t,n,e){var r=arguments.length>3&&void 0!==arguments[3]&&arguments[3],i=n.length-1;if(t<=n[0].t)return r?[0,0,n[0].v]:n[0].v;if(t>=n[i].t)return r?[i,1,n[i].v]:n[i].v;var u,o=n[0],a=null;for(u=1;u<=i;u++){if(!(t>n[u].t)){a=n[u];break}o=n[u]}return null==a?r?[i,1,n[i].v]:n[i].v:o.t===a.t?r?[u,1,a.v]:a.v:(t=(t-o.t)/(a.t-o.t),o.e&&(t=o.e(t)),r?[u,t,e(t,o.v,a.v)]:e(t,o.v,a.v))}function K(t,n){var e=arguments.length>2&&void 0!==arguments[2]?arguments[2]:null;return t&&t.length?"function"!=typeof n?null:("function"!=typeof e&&(e=null),function(r){var i=Z(r,t,n);return null!=i&&e&&(i=e(i)),i}):null}function W(t,n){return t.t-n.t}function X(t,n,r,i,u){var o,a="@"===r[0],l="#"===r[0],s=Y[r],f=T;switch(a?(o=r.substr(1),r=o.replace(U,Q)):l&&(r=r.substr(1)),e(s)){case"function":if(f=s(i,u,Z,J,r,a,n,t),l)return f;break;case"string":f=K(i,H(s));break;case"object":if((f=K(i,H(s.i),s.f))&&"function"==typeof s.u)return s.u(n,f,r,a,t)}return f?function(t,n,e){if(arguments.length>3&&void 0!==arguments[3]&&arguments[3])return t instanceof $?function(r){return t.style(n,e(r))}:function(r){return t.style[n]=e(r)};if(Array.isArray(n)){var r=n.length;return function(i){var u=e(i);if(null==u)for(var o=0;o<r;o++)t[o].removeAttribute(n);else for(var a=0;a<r;a++)t[a].setAttribute(n,u)}}return function(r){var i=e(r);null==i?t.removeAttribute(n):t.setAttribute(n,i)}}(n,r,f,a):null}function tt(t,n,r,i){if(!i||"object"!==e(i))return null;var u=null,o=null;return Array.isArray(i)?o=function(t){if(!t||!t.length)return null;for(var n=0;n<t.length;n++)t[n].e&&(t[n].e=J(t[n].e));return t.sort(W)}(i):(o=i.keys,u=i.data||null),o?X(t,n,r,o,u):null}function nt(t,n,e){if(!e)return null;var r=[];for(var i in e)if(e.hasOwnProperty(i)){var u=tt(t,n,i,e[i]);u&&r.push(u)}return r.length?r:null}function et(t,n){if(!n.settings.duration||n.settings.duration<0)return null;var e,r,i,u,o,a=function(t,n){if(!n)return null;var e=[];if(Array.isArray(n))for(var r=n.length,i=0;i<r;i++){var u=n[i];if(2===u.length){var o=null;if("string"==typeof u[0])o=t.getElementById(u[0]);else if(Array.isArray(u[0])){o=[];for(var a=0;a<u[0].length;a++)if("string"==typeof u[0][a]){var l=t.getElementById(u[0][a]);l&&o.push(l)}o=o.length?1===o.length?o[0]:new $(o):null}if(o){var s=nt(t,o,u[1]);s&&(e=e.concat(s))}}}else for(var f in n)if(n.hasOwnProperty(f)){var c=t.getElementById(f);if(c){var h=nt(t,c,n[f]);h&&(e=e.concat(h))}}return e.length?e:null}(t,n.elements);return a?(e=a,r=n.settings,i=r.duration,u=e.length,o=null,function(t,n){var a=r.iterations||1/0,l=(r.alternate&&a%2==0)^r.direction>0?i:0,s=t%i,f=1+(t-s)/i;n*=r.direction,r.alternate&&f%2==0&&(n=-n);var c=!1;if(f>a)s=l,c=!0,-1===r.fill&&(s=r.direction>0?0:i);else if(n<0&&(s=i-s),s===o)return!1;o=s;for(var h=0;h<u;h++)e[h](s);return c}):null}function rt(t,n){if(Y=n,!t||!t.root||!Array.isArray(t.animations))return null;var e=function(t){for(var n=document.getElementsByTagName("svg"),e=0;e<n.length;e++)if(n[e].id===t.root&&!n[e].svgatorAnimation)return n[e].svgatorAnimation=!0,n[e];return null}(t);if(!e)return null;var r=t.animations.map((function(t){return et(e,t)})).filter((function(t){return!!t}));return r.length?{svg:e,animations:r,animationSettings:t.animationSettings,options:t.options||void 0}:null}function it(t){var n=arguments.length>1&&void 0!==arguments[1]?arguments[1]:null,e=arguments.length>2&&void 0!==arguments[2]?arguments[2]:Number,r=arguments.length>3&&void 0!==arguments[3]?arguments[3]:"undefined"!=typeof BigInt&&BigInt,i="0x"+(t.replace(/[^0-9a-fA-F]+/g,"")||27);return n&&r&&e.isSafeInteger&&!e.isSafeInteger(+i)?e(r(i))%n+n:+i}function ut(t,n,e){return!t||!e||n>t.length?t:t.substring(0,n)+ut(t.substring(n+1),e,e)}function ot(t){var n=arguments.length>1&&void 0!==arguments[1]?arguments[1]:27;return!t||t%n?t%n:[0,1].includes(n)?n:ot(t/n,n)}function at(t,n,e){if(t&&t.length){var r=it(e),i=ot(r)+5,u=ut(t,ot(r,5),i);return u=u.replace(/\x7c$/g,"==").replace(/\x2f$/g,"="),u=function(t,n,e){var r=+("0x"+t.substring(0,4));t=t.substring(4);for(var i=it(n,r)%r+e%27,u=[],o=0;o<t.length;o+=2)if("|"!==t[o]){var a=+("0x"+t[o]+t[o+1])-i;u.push(a)}else{var l=+("0x"+t.substring(o+1,o+1+4))-i;o+=3,u.push(l)}return String.fromCharCode.apply(String,u)}(u=(u=atob(u)).replace(/[\x41-\x5A]/g,""),n,r),u=JSON.parse(u)}}var lt=[{key:"alternate",def:!1},{key:"fill",def:1},{key:"iterations",def:0},{key:"direction",def:1},{key:"speed",def:1},{key:"fps",def:100}],st=function(){function t(n,e){var i=this,u=arguments.length>2&&void 0!==arguments[2]?arguments[2]:null;r(this,t),this._id=0,this._running=!1,this._rollingBack=!1,this._animations=n,this._settings=e,(!u||u<"2022-05-02")&&delete this._settings.speed,lt.forEach((function(t){i._settings[t.key]=i._settings[t.key]||t.def})),this.duration=e.duration,this.offset=e.offset||0,this.rollbackStartOffset=0}return u(t,[{key:"alternate",get:function(){return this._settings.alternate}},{key:"fill",get:function(){return this._settings.fill}},{key:"iterations",get:function(){return this._settings.iterations}},{key:"direction",get:function(){return this._settings.direction}},{key:"speed",get:function(){return this._settings.speed}},{key:"fps",get:function(){return this._settings.fps}},{key:"maxFiniteDuration",get:function(){return this.iterations>0?this.iterations*this.duration:this.duration}},{key:"_apply",value:function(t){for(var n=arguments.length>1&&void 0!==arguments[1]?arguments[1]:{},e=this._animations,r=e.length,i=0,u=0;u<r;u++)n[u]?i++:(n[u]=e[u](t,1),n[u]&&i++);return i}},{key:"_rollback",value:function(t){var n=this,e=1/0,r=null;this.rollbackStartOffset=t,this._rollingBack=!0,this._running=!0;this._id=window.requestAnimationFrame((function i(u){if(n._rollingBack){null==r&&(r=u);var o=Math.round(t-(u-r)*n.speed);if(o>n.duration&&e!==1/0){var a=!!n.alternate&&o/n.duration%2>1,l=o%n.duration;o=(l+=a?n.duration:0)||n.duration}var s=(n.fps?1e3/n.fps:0)*n.speed,f=Math.max(0,o);f<=e-s&&(n.offset=f,e=f,n._apply(f));var c=n.iterations>0&&-1===n.fill&&o>=n.maxFiniteDuration;(o<=0||n.offset<o||c)&&n.stop(),n._id=window.requestAnimationFrame(i)}}))}},{key:"_start",value:function(){var t=this,n=arguments.length>0&&void 0!==arguments[0]?arguments[0]:0,e=-1/0,r=null,i={};this._running=!0;var u=function u(o){null==r&&(r=o);var a=Math.round((o-r)*t.speed+n),l=(t.fps?1e3/t.fps:0)*t.speed;if(a>=e+l&&!t._rollingBack&&(t.offset=a,e=a,t._apply(a,i)===t._animations.length))return void t.pause(!0);t._id=window.requestAnimationFrame(u)};this._id=window.requestAnimationFrame(u)}},{key:"_pause",value:function(){this._id&&window.cancelAnimationFrame(this._id),this._running=!1}},{key:"play",value:function(){if(!this._running)return this._rollingBack?this._rollback(this.offset):this._start(this.offset)}},{key:"stop",value:function(){this._pause(),this.offset=0,this.rollbackStartOffset=0,this._rollingBack=!1,this._apply(0)}},{key:"reachedToEnd",value:function(){return this.iterations>0&&this.offset>=this.iterations*this.duration}},{key:"restart",value:function(){var t=arguments.length>0&&void 0!==arguments[0]&&arguments[0];this.stop(t),this.play(t)}},{key:"pause",value:function(){this._pause()}},{key:"reverse",value:function(){this.direction=-this.direction}}],[{key:"build",value:function(t,n){delete t.animationSettings,t.options=at(t.options,t.root,"5c7f360c"),t.animations.map((function(n){n.settings=at(n.s,t.root,"5c7f360c"),delete n.s,t.animationSettings||(t.animationSettings=n.settings)}));var e=t.version;if(!(t=rt(t,n)))return null;var r=t.options||{},i=new this(t.animations,t.animationSettings,e);return{el:t.svg,options:r,player:i}}},{key:"push",value:function(t){return this.build(t)}},{key:"init",value:function(){var t=this,n=window.__SVGATOR_PLAYER__&&window.__SVGATOR_PLAYER__["5c7f360c"];Array.isArray(n)&&n.splice(0).forEach((function(n){return t.build(n)}))}}]),t}();function ft(t){return d(t)+""}function ct(t){var n=arguments.length>1&&void 0!==arguments[1]?arguments[1]:" ";return t&&t.length?t.map(ft).join(n):""}function ht(t){if(!t)return"transparent";if(null==t.a||t.a>=1){var n=function(t){return 1===(t=parseInt(t).toString(16)).length?"0"+t:t},e=function(t){return t.charAt(0)===t.charAt(1)},r=n(t.r),i=n(t.g),u=n(t.b);return e(r)&&e(i)&&e(u)&&(r=r.charAt(0),i=i.charAt(0),u=u.charAt(0)),"#"+r+i+u}return"rgba("+t.r+","+t.g+","+t.b+","+t.a+")"}function vt(t){return t?"url(#"+t+")":"none"}!function(){for(var t=0,n=["ms","moz","webkit","o"],e=0;e<n.length&&!window.requestAnimationFrame;++e)window.requestAnimationFrame=window[n[e]+"RequestAnimationFrame"],window.cancelAnimationFrame=window[n[e]+"CancelAnimationFrame"]||window[n[e]+"CancelRequestAnimationFrame"];window.requestAnimationFrame||(window.requestAnimationFrame=function(n){var e=Date.now(),r=Math.max(0,16-(e-t)),i=window.setTimeout((function(){n(e+r)}),r);return t=e+r,i},window.cancelAnimationFrame=window.clearTimeout)}();var yt={f:null,i:function(t,n,e){return 0===t?n:1===t?e:{x:q(t,n.x,e.x),y:q(t,n.y,e.y)}},u:function(t,n){return function(e){var r=n(e);t.setAttribute("rx",ft(r.x)),t.setAttribute("ry",ft(r.y))}}},gt={f:null,i:function(t,n,e){return 0===t?n:1===t?e:{width:q(t,n.width,e.width),height:q(t,n.height,e.height)}},u:function(t,n){return function(e){var r=n(e);t.setAttribute("width",ft(r.width)),t.setAttribute("height",ft(r.height))}}};Object.freeze({M:2,L:2,Z:0,H:1,V:1,C:6,Q:4,T:2,S:4,A:7});var dt={},pt=null;function mt(t){var n=function(){if(pt)return pt;if("object"!==("undefined"==typeof document?"undefined":e(document))||!document.createElementNS)return{};var t=document.createElementNS("http://www.w3.org/2000/svg","svg");return t&&t.style?(t.style.position="absolute",t.style.opacity="0.01",t.style.zIndex="-9999",t.style.left="-9999px",t.style.width="1px",t.style.height="1px",pt={svg:t}):{}}().svg;if(!n)return function(t){return null};var r=document.createElementNS(n.namespaceURI,"path");r.setAttributeNS(null,"d",t),r.setAttributeNS(null,"fill","none"),r.setAttributeNS(null,"stroke","none"),n.appendChild(r);var i=r.getTotalLength();return function(t){var n=r.getPointAtLength(i*t);return{x:n.x,y:n.y}}}function bt(t){return dt[t]?dt[t]:dt[t]=mt(t)}function wt(t,n,e,r){if(!t||!r)return!1;var i=["M",t.x,t.y];if(n&&e&&(i.push("C"),i.push(n.x),i.push(n.y),i.push(e.x),i.push(e.y)),n?!e:e){var u=n||e;i.push("Q"),i.push(u.x),i.push(u.y)}return n||e||i.push("L"),i.push(r.x),i.push(r.y),i.join(" ")}function At(t,n,e,r){var i=arguments.length>4&&void 0!==arguments[4]?arguments[4]:1,u=wt(t,n,e,r),o=bt(u);try{return o(i)}catch(t){return null}}function _t(t,n,e){return t+(n-t)*e}function xt(t,n,e){var r=arguments.length>3&&void 0!==arguments[3]&&arguments[3],i={x:_t(t.x,n.x,e),y:_t(t.y,n.y,e)};return r&&(i.a=kt(t,n)),i}function kt(t,n){return Math.atan2(n.y-t.y,n.x-t.x)}function St(t,n,e,r){var i=1-r;return i*i*t+2*i*r*n+r*r*e}function Ot(t,n,e,r){return 2*(1-r)*(n-t)+2*r*(e-n)}function jt(t,n,e,r){var i=arguments.length>4&&void 0!==arguments[4]&&arguments[4],u=At(t,n,null,e,r);return u||(u={x:St(t.x,n.x,e.x,r),y:St(t.y,n.y,e.y,r)}),i&&(u.a=Et(t,n,e,r)),u}function Et(t,n,e,r){return Math.atan2(Ot(t.y,n.y,e.y,r),Ot(t.x,n.x,e.x,r))}function Mt(t,n,e,r,i){var u=i*i;return i*u*(r-t+3*(n-e))+3*u*(t+e-2*n)+3*i*(n-t)+t}function Pt(t,n,e,r,i){var u=1-i;return 3*(u*u*(n-t)+2*u*i*(e-n)+i*i*(r-e))}function It(t,n,e,r,i){var u=arguments.length>5&&void 0!==arguments[5]&&arguments[5],o=At(t,n,e,r,i);return o||(o={x:Mt(t.x,n.x,e.x,r.x,i),y:Mt(t.y,n.y,e.y,r.y,i)}),u&&(o.a=Rt(t,n,e,r,i)),o}function Rt(t,n,e,r,i){return Math.atan2(Pt(t.y,n.y,e.y,r.y,i),Pt(t.x,n.x,e.x,r.x,i))}function Ft(t,n,e){var r=arguments.length>3&&void 0!==arguments[3]&&arguments[3];if(Tt(n)){if(Bt(e))return jt(n,e.start,e,t,r)}else if(Tt(e)){if(qt(n))return jt(n,n.end,e,t,r)}else{if(qt(n))return Bt(e)?It(n,n.end,e.start,e,t,r):jt(n,n.end,e,t,r);if(Bt(e))return jt(n,e.start,e,t,r)}return xt(n,e,t,r)}function Nt(t,n,e){var r=Ft(t,n,e,!0);return r.a=function(t){return arguments.length>1&&void 0!==arguments[1]&&arguments[1]?t+Math.PI:t}(r.a)/m,r}function Tt(t){return!t.type||"corner"===t.type}function Bt(t){return null!=t.start&&!Tt(t)}function qt(t){return null!=t.end&&!Tt(t)}var Dt=new N;var Lt={f:ft,i:B},Ct={f:ft,i:D};function Vt(t,n,e){return t.map((function(t){return function(t,n,e){var r=t.v;if(!r||"g"!==r.t||r.s||!r.v||!r.r)return t;var i=e.getElementById(r.r),u=i&&i.querySelectorAll("stop")||[];return r.s=r.v.map((function(t,n){var e=u[n]&&u[n].getAttribute("offset");return{c:t,o:e=d(parseInt(e)/100)}})),delete r.v,t}(t,0,e)}))}var Gt={gt:"gradientTransform",c:{x:"cx",y:"cy"},rd:"r",f:{x:"x1",y:"y1"},to:{x:"x2",y:"y2"}};function zt(t,n,r,i,u,o,a,l){return Vt(t,0,l),n=function(t,n,e){for(var r,i,u,o=t.length-1,a={},l=0;l<=o;l++)(r=t[l]).e&&(r.e=n(r.e)),r.v&&"g"===(i=r.v).t&&i.r&&(u=e.getElementById(i.r))&&(a[i.r]={e:u,s:u.querySelectorAll("stop")});return a}(t,i,l),function(i){var u=r(i,t,Yt);if(!u)return"none";if("c"===u.t)return ht(u.v);if("g"===u.t){if(!n[u.r])return vt(u.r);var o=n[u.r];return function(t,n){for(var e=t.s,r=e.length;r<n.length;r++){var i=e[e.length-1].cloneNode();i.id=Qt(i.id),t.e.appendChild(i),e=t.s=t.e.querySelectorAll("stop")}for(var u=0,o=e.length,a=n.length-1;u<o;u++)e[u].setAttribute("stop-color",ht(n[Math.min(u,a)].c)),e[u].setAttribute("offset",n[Math.min(u,a)].o)}(o,u.s),Object.keys(Gt).forEach((function(t){if(void 0!==u[t])if("object"!==e(Gt[t])){var n,r="gt"===t?(n=u[t],Array.isArray(n)?"matrix("+n.join(" ")+")":""):u[t],i=Gt[t];o.e.setAttribute(i,r)}else Object.keys(Gt[t]).forEach((function(n){if(void 0!==u[t][n]){var e=u[t][n],r=Gt[t][n];o.e.setAttribute(r,e)}}))})),vt(u.r)}return"none"}}function Yt(t,e,r){if(0===t)return e;if(1===t)return r;if(e&&r){var i=e.t;if(i===r.t)switch(e.t){case"c":return{t:i,v:V(t,e.v,r.v)};case"g":if(e.r===r.r){var u={t:i,s:$t(t,e.s,r.s),r:e.r};return e.gt&&r.gt&&(u.gt=function(t,n,e){var r=n.length;if(r!==e.length)return T(t,n,e);for(var i=new Array(r),u=0;u<r;u++)i[u]=B(t,n[u],e[u]);return i}(t,e.gt,r.gt)),e.c?(u.c=L(t,e.c,r.c),u.rd=q(t,e.rd,r.rd)):e.f&&(u.f=L(t,e.f,r.f),u.to=L(t,e.to,r.to)),u}}if("c"===e.t&&"g"===r.t||"c"===r.t&&"g"===e.t){var o="c"===e.t?e:r,a="g"===e.t?n({},e):n({},r),l=a.s.map((function(t){return{c:o.v,o:t.o}}));return a.s="c"===e.t?$t(t,l,a.s):$t(t,a.s,l),a}}return T(t,e,r)}function $t(t,n,e){if(n.length===e.length)return n.map((function(n,r){return Ut(t,n,e[r])}));for(var r=Math.max(n.length,e.length),i=[],u=0;u<r;u++){var o=Ut(t,n[Math.min(u,n.length-1)],e[Math.min(u,e.length-1)]);i.push(o)}return i}function Ut(t,n,e){return{o:D(t,n.o,e.o||0),c:V(t,n.c,e.c||{})}}function Qt(t){return t.replace(/-fill-([0-9]+)$/,(function(t,n){return"-fill-"+(+n+1)}))}var Ht={fill:zt,"fill-opacity":Ct,stroke:zt,"stroke-opacity":Ct,"stroke-width":Lt,"stroke-dashoffset":{f:ft,i:B},"stroke-dasharray":{f:function(t){var n=arguments.length>1&&void 0!==arguments[1]?arguments[1]:" ";return t&&t.length>0&&(t=t.map((function(t){return d(t,4)}))),ct(t,n)},i:function(t,n,e){var r,i,u,o=n.length,a=e.length;if(o!==a)if(0===o)n=G(o=a,0);else if(0===a)a=o,e=G(o,0);else{var l=(u=(r=o)*(i=a)/function(t,n){for(var e;n;)e=n,n=t%n,t=e;return t||1}(r,i))<0?-u:u;n=z(n,Math.floor(l/o)),e=z(e,Math.floor(l/a)),o=a=l}for(var s=[],f=0;f<o;f++)s.push(d(q(t,n[f],e[f])));return s}},opacity:Ct,transform:function(t,n,r,i){if(!(t=function(t,n){if(!t||"object"!==e(t))return null;var r=!1;for(var i in t)t.hasOwnProperty(i)&&(t[i]&&t[i].length?(t[i].forEach((function(t){t.e&&(t.e=n(t.e))})),r=!0):delete t[i]);return r?t:null}(t,i)))return null;var u=function(e,i,u){var o=arguments.length>3&&void 0!==arguments[3]?arguments[3]:null;return t[e]?r(i,t[e],u):n&&n[e]?n[e]:o};return n&&n.a&&t.o?function(n){var e=r(n,t.o,Nt);return Dt.recomposeSelf(e,u("r",n,B,0)+e.a,u("k",n,L),u("s",n,L),u("t",n,L)).toString()}:function(t){return Dt.recomposeSelf(u("o",t,Ft,null),u("r",t,B,0),u("k",t,L),u("s",t,L),u("t",t,L)).toString()}},r:Lt,"#size":gt,"#radius":yt,_:function(t,n){if(Array.isArray(t))for(var e=0;e<t.length;e++)this[t[e]]=n;else this[t]=n}},Jt=function(t){!function(t,n){if("function"!=typeof n&&null!==n)throw new TypeError("Super expression must either be null or a function");t.prototype=Object.create(n&&n.prototype,{constructor:{value:t,writable:!0,configurable:!0}}),n&&l(t,n)}(o,t);var n,e,i=(n=o,e=s(),function(){var t,r=a(n);if(e){var i=a(this).constructor;t=Reflect.construct(r,arguments,i)}else t=r.apply(this,arguments);return c(this,t)});function o(){return r(this,o),i.apply(this,arguments)}return u(o,null,[{key:"build",value:function(t){var n=h(a(o),"build",this).call(this,t,Ht);if(!n)return null;n.el,n.options,function(t,n,e){t.play()}(n.player)}}]),o}(st);return Jt.init(),Jt}));
(function(s,i,o,w,d,a,b){w[o]=w[o]||{};w[o][s]=w[o][s]||[];w[o][s].push(i);})('5c7f360c',{"root":"evKq8gzfja61","version":"2022-05-04","animations":[{"elements":{"evKq8gzfja62":{"transform":{"data":{"t":{"x":-37.425729,"y":-47.699679}},"keys":{"o":[{"t":1400,"v":{"x":137.827347,"y":-129.796397,"type":"cusp","end":{"x":81.863372,"y":-185.526194}}},{"t":2100,"v":{"x":37.425729,"y":47.699679,"type":"cusp","start":{"x":123.801484,"y":-60.792292}}}]}}},"evKq8gzfja63":{"transform":{"data":{"t":{"x":-109.828171,"y":-66.900009}},"keys":{"o":[{"t":1400,"v":{"x":-261.25442,"y":138.301566,"type":"cusp","end":{"x":-210.340542,"y":141.476086}}},{"t":1700,"v":{"x":109.828171,"y":66.900009,"type":"cusp","start":{"x":86.536973,"y":138.534584}}}]}}},"evKq8gzfja64":{"transform":{"data":{"t":{"x":-152.168655,"y":-51.498214}},"keys":{"o":[{"t":1400,"v":{"x":40.832906,"y":608.886943,"type":"cusp","end":{"x":5.821734,"y":618.03462}}},{"t":2200,"v":{"x":152.168655,"y":51.498214,"type":"cusp","start":{"x":147.636031,"y":223.477148}}}]}}},"evKq8gzfja65":{"transform":{"data":{"t":{"x":-198.432762,"y":-71.976883}},"keys":{"o":[{"t":1400,"v":{"x":220.873942,"y":-41.676933,"type":"cusp","end":{"x":195.382095,"y":-3.880683}}},{"t":1700,"v":{"x":198.432762,"y":71.976883,"type":"cusp","start":{"x":178.156796,"y":54.947795}}}]}}},"evKq8gzfja66":{"transform":{"data":{"t":{"x":-259.173698,"y":-59.264864}},"keys":{"o":[{"t":1400,"v":{"x":363.023964,"y":-60.477553,"type":"cusp","start":{"x":315.155471,"y":-25.961456}}},{"t":2000,"v":{"x":259.173698,"y":59.264864,"type":"cusp","end":{"x":254.384065,"y":33.909752}}}]}}},"evKq8gzfja67":{"transform":{"data":{"t":{"x":-313.442932,"y":-82.579344}},"keys":{"o":[{"t":1400,"v":{"x":399.186676,"y":578.831073,"type":"cusp","end":{"x":303.431993,"y":530.43812}}},{"t":2200,"v":{"x":313.442932,"y":82.579344,"type":"cusp","start":{"x":293.298635,"y":261.359605}}}]}}},"evKq8gzfja68":{"transform":{"data":{"t":{"x":-363.023605,"y":-89.651863}},"keys":{"o":[{"t":1400,"v":{"x":448.723556,"y":-40.714569,"type":"cusp","end":{"x":463.897426,"y":11.457973}}},{"t":2000,"v":{"x":363.023605,"y":89.651863,"type":"cusp","start":{"x":418.372066,"y":75.112398}}}]}}},"evKq8gzfja69":{"transform":{"data":{"t":{"x":-410.944473,"y":-91.503826}},"keys":{"o":[{"t":1400,"v":{"x":572.947829,"y":596.782035,"type":"cusp","end":{"x":677.53404,"y":519.356731}}},{"t":2200,"v":{"x":410.944473,"y":91.503826,"type":"cusp","start":{"x":512.723394,"y":257.741241}}}]}}},"evKq8gzfja610":{"transform":{"data":{"t":{"x":-439.84375,"y":-87.159264}},"keys":{"o":[{"t":1400,"v":{"x":533.711792,"y":-54.755958,"type":"cusp","end":{"x":527.39198,"y":10.148649}}},{"t":1700,"v":{"x":439.84375,"y":87.159264,"type":"cusp","start":{"x":486.143493,"y":88.686972}}}]}}},"evKq8gzfja611":{"transform":{"data":{"t":{"x":-486.060989,"y":-111.831711}},"keys":{"o":[{"t":1400,"v":{"x":-291.532941,"y":286.905403,"type":"cusp","end":{"x":-26.800211,"y":320.427042}}},{"t":2000,"v":{"x":486.060989,"y":111.831711,"type":"cusp","start":{"x":514.619203,"y":254.367143}}}]}}},"evKq8gzfja612":{"transform":{"data":{"t":{"x":-550.359848,"y":-139.139194}},"keys":{"o":[{"t":1000,"v":{"x":1287.026633,"y":421.719149,"type":"cusp","end":{"x":1123.184239,"y":13.375861}}},{"t":2100,"v":{"x":550.359848,"y":139.139194,"type":"cusp","start":{"x":846.915568,"y":180.058355}}}],"r":[{"t":1000,"v":1.403745},{"t":2090,"v":0}]}}},"evKq8gzfja613":{"transform":{"data":{"t":{"x":-622.498688,"y":-128.096062}},"keys":{"o":[{"t":1400,"v":{"x":588.695344,"y":-129.789907,"type":"cusp","end":{"x":677.432461,"y":-9.579121}}},{"t":1700,"v":{"x":622.498688,"y":128.096062,"type":"cusp","start":{"x":665.186294,"y":95.613773}}}]}}},"evKq8gzfja614":{"transform":{"data":{"t":{"x":-666.177399,"y":-157.046986}},"keys":{"o":[{"t":1400,"v":{"x":866.345917,"y":596.127223,"type":"cusp","end":{"x":679.650748,"y":594.761386}}},{"t":2000,"v":{"x":666.177399,"y":157.046986,"type":"cusp","start":{"x":683.468972,"y":332.139751}}}]}}},"evKq8gzfja615":{"transform":{"data":{"t":{"x":-738.490845,"y":-163.11882}},"keys":{"o":[{"t":1400,"v":{"x":792.54125,"y":-82.082552,"type":"cusp","end":{"x":817.99211,"y":-16.266302}}},{"t":2000,"v":{"x":738.490845,"y":163.11882,"type":"cusp","start":{"x":777.473418,"y":100.712097}}}]}}},"evKq8gzfja616":{"transform":{"data":{"t":{"x":-778.518829,"y":-176.599678}},"keys":{"o":[{"t":1400,"v":{"x":757.56255,"y":593.937976,"type":"cusp","end":{"x":675.239344,"y":579.656954}}},{"t":1700,"v":{"x":778.518829,"y":176.599678,"type":"cusp","start":{"x":663.638067,"y":395.82715}}}]}}},"evKq8gzfja617":{"transform":{"data":{"t":{"x":-827.499207,"y":-199.729286}},"keys":{"o":[{"t":1000,"v":{"x":1208.050097,"y":378.006076,"type":"cusp","end":{"x":1060.935239,"y":399.896258}}},{"t":1900,"v":{"x":827.499207,"y":199.729286,"type":"cusp","start":{"x":934.6409,"y":303.644649}}}],"r":[{"t":1000,"v":-9.047989},{"t":1900,"v":0}]}}},"evKq8gzfja618":{"transform":{"data":{"t":{"x":-858.499329,"y":-205.916115}},"keys":{"o":[{"t":1400,"v":{"x":910.63614,"y":-72.298144,"type":"cusp","end":{"x":954.922965,"y":31.771619}}},{"t":1700,"v":{"x":858.499329,"y":205.916115,"type":"cusp","start":{"x":898.199409,"y":138.17992}}}]}}},"evKq8gzfja619":{"transform":{"data":{"t":{"x":-910.655914,"y":-226.527672}},"keys":{"o":[{"t":1400,"v":{"x":1067.904266,"y":607.642211,"type":"cusp","end":{"x":858.057428,"y":410.136314}}},{"t":2000,"v":{"x":910.655914,"y":226.527672,"type":"cusp","start":{"x":870.494793,"y":283.659387}}}]}}},"evKq8gzfja620":{"transform":{"data":{"t":{"x":-963.699463,"y":-258.725494}},"keys":{"o":[{"t":1400,"v":{"x":1296.212332,"y":-49.55079,"type":"cusp","end":{"x":1095.033811,"y":48.551711}}},{"t":1800,"v":{"x":963.699463,"y":258.725494,"type":"cusp","start":{"x":971.356944,"y":192.044961}}}]}}},"evKq8gzfja621":{"transform":{"data":{"t":{"x":-1014.691162,"y":-285.069771}},"keys":{"o":[{"t":1400,"v":{"x":994.395837,"y":593.925457,"type":"cusp","end":{"x":928.18312,"y":491.956266}}},{"t":2000,"v":{"x":1014.691162,"y":285.069771,"type":"cusp","start":{"x":968.906604,"y":355.595954}}}]}}},"evKq8gzfja622":{"transform":{"data":{"t":{"x":-1057.87616,"y":-284.632523}},"keys":{"o":[{"t":1400,"v":{"x":1183.865479,"y":-55.581954,"type":"cusp","end":{"x":1107.016108,"y":-56.802262}}},{"t":2200,"v":{"x":1057.87616,"y":284.632523,"type":"cusp","start":{"x":1071.185593,"y":145.562399}}}]}}},"evKq8gzfja623":{"transform":{"data":{"t":{"x":-1086.719604,"y":-299.32856}},"keys":{"o":[{"t":1400,"v":{"x":1409.315185,"y":-60.466038,"type":"cusp","end":{"x":1204.011139,"y":69.229891}}},{"t":1710,"v":{"x":1086.719604,"y":299.32856,"type":"cusp","start":{"x":1088.414763,"y":231.244028}}}]}}},"evKq8gzfja624":{"transform":{"data":{"t":{"x":-1123.551331,"y":-322.494553}},"keys":{"o":[{"t":1400,"v":{"x":1197.77356,"y":604.988399,"type":"cusp","end":{"x":1118.887132,"y":628.652754}}},{"t":2210,"v":{"x":1123.551331,"y":322.494553,"type":"cusp","start":{"x":1110.205479,"y":452.658713}}}]}}},"evKq8gzfja625":{"transform":{"data":{"t":{"x":-1157.11438,"y":-349.94751}},"keys":{"o":[{"t":1400,"v":{"x":1306.887747,"y":639.67973,"type":"cusp","end":{"x":1366.171358,"y":564.908358}}},{"t":2210,"v":{"x":1157.11438,"y":349.94751,"type":"cusp","start":{"x":1253.131504,"y":427.672882}}}]}}},"evKq8gzfja626":{"transform":{"data":{"t":{"x":-1253.359558,"y":-371.152496}},"keys":{"o":[{"t":1400,"v":{"x":1445.197449,"y":630.737366,"type":"cusp","end":{"x":1384.154786,"y":528.732239}}},{"t":2300,"v":{"x":1253.359558,"y":371.152496,"type":"cusp","start":{"x":1250.106657,"y":452.424762}}}]}}},"evKq8gzfja627":{"transform":{"data":{"t":{"x":-1296.21521,"y":-381.079819}},"keys":{"o":[{"t":1400,"v":{"x":1497.013428,"y":-60.909755,"type":"cusp","end":{"x":1373.227409,"y":323.944015}}},{"t":1700,"v":{"x":1296.21521,"y":381.079819,"type":"cusp","start":{"x":1333.722808,"y":337.343888}}}]}}},"evKq8gzfja628":{"transform":{"data":{"t":{"x":-1334.188965,"y":-402.106964}},"keys":{"o":[{"t":1400,"v":{"x":1371.718446,"y":604.510051,"type":"cusp","end":{"x":1317.946936,"y":542.221174}}},{"t":2300,"v":{"x":1334.188965,"y":402.106964,"type":"cusp","start":{"x":1306.235912,"y":443.37087}}}]}}},"evKq8gzfja629":{"transform":{"data":{"t":{"x":-1371.767334,"y":-405.54425}},"keys":{"o":[{"t":1400,"v":{"x":1548.965758,"y":660.944928,"type":"cusp","end":{"x":1478.80349,"y":590.821476}}},{"t":2300,"v":{"x":1371.767334,"y":405.54425,"type":"cusp","start":{"x":1407.98228,"y":473.787938}}}]}}},"evKq8gzfja630":{"transform":{"data":{"t":{"x":-1467.785645,"y":-433.334641}},"keys":{"o":[{"t":1000,"v":{"x":1392.559571,"y":413.714532,"type":"corner"}},{"t":2000,"v":{"x":1467.785645,"y":433.334641,"type":"corner"}}]}}},"evKq8gzfja631":{"transform":{"data":{"t":{"x":-1522.987854,"y":-460.615341}},"keys":{"o":[{"t":1000,"v":{"x":1447.76178,"y":440.995232,"type":"corner"}},{"t":2000,"v":{"x":1522.987854,"y":460.615341,"type":"corner"}}]}}},"evKq8gzfja632":{"transform":{"data":{"t":{"x":-1573.40509,"y":-471.365311}},"keys":{"o":[{"t":1000,"v":{"x":1704.673986,"y":482.911245,"type":"corner"}},{"t":2000,"v":{"x":1779.900061,"y":502.531357,"type":"corner"}}]}},"opacity":[{"t":1000,"v":1},{"t":1500,"v":0}]},"evKq8gzfja633":{"transform":{"data":{"t":{"x":-1573.40509,"y":-471.365311}},"keys":{"o":[{"t":1000,"v":{"x":1498.179016,"y":451.745201,"type":"corner"}},{"t":2000,"v":{"x":1573.40509,"y":471.365311,"type":"corner"}}]}}},"evKq8gzfja634":{"transform":{"data":{"t":{"x":-1613.212952,"y":-464.67601}},"keys":{"o":[{"t":1000,"v":{"x":1537.986879,"y":445.0559,"type":"corner"}},{"t":2000,"v":{"x":1613.212952,"y":464.67601,"type":"corner"}}]}}},"evKq8gzfja635":{"transform":{"data":{"t":{"x":-1661.426392,"y":-502.532272}},"keys":{"o":[{"t":1000,"v":{"x":1586.200317,"y":482.912163,"type":"corner"}},{"t":2000,"v":{"x":1661.426392,"y":502.532272,"type":"corner"}}]}}},"evKq8gzfja636":{"transform":{"data":{"t":{"x":-1724.091003,"y":-496.464981}},"keys":{"o":[{"t":1000,"v":{"x":1648.864928,"y":476.844872,"type":"corner"}},{"t":2000,"v":{"x":1724.091003,"y":496.464981,"type":"corner"}}]}}},"evKq8gzfja637":{"transform":{"data":{"t":{"x":-1772.784668,"y":-524.152893}},"keys":{"o":[{"t":1000,"v":{"x":1223.097835,"y":403.459349,"type":"cusp","end":{"x":1443.530109,"y":526.567078}}},{"t":2000,"v":{"x":1772.784668,"y":524.152893,"type":"cusp","start":{"x":1715.573862,"y":560.588154}}}]}}}},"s":"MFDA1ZGQ4N2ZjMWQyY2PZiZWQxYzZjY2NiN2YR5NzkyOGQ4ZDhkODlZTN2ZjMWM2Y2ZjMmMwZDDFjNmNjY2I3Zjk3OGXU4OTdmYzZkMWMyY2ZSiZWQxYzZjY2NiZDA3EZjk3UDhkODk3ZmMzYHzZSYzljOTdmOTc4ZTHg5UDdmYmVjOWQxYzJRjZmNiYmVkMU5jMjdmJOTdjM2JlYzlkMGMyORDk3ZmQwY2RjMmMyYzPE3Zjk3OGVDODk3ZmMLzR2NkZDA3Zjk3OGU4SZE04ZGRh"}],"options":"MHDAxMDg4MmY4MEc4MTIZlN2Y4MTJmRTQ3MmYL3OTdjNmU3MTJmOGE/E"},'__SVGATOR_PLAYER__',window,document)
]]></script>
</svg>
