<?xml version="1.0" encoding="UTF-8"?>
<svg id="Layer_1" data-name="Layer 1" xmlns="http://www.w3.org/2000/svg" viewBox="0 0 600 600">
  <defs>
    <style>
      .cls-1 {
        fill: #ee999e;
        stroke: #231f20;
        stroke-miterlimit: 10;
      }
    </style>
  </defs>
  <polygon id="Forehead_Star" data-name="Forehead Star" class="cls-1" points="291.88 401.07 275.83 541.99 278.57 400 244.08 536.84 265.55 396.8 213.35 526.65 253.08 391.55 184.3 511.63 241.45 384.35 157.53 492.11 230.89 375.36 133.63 468.51 221.62 364.77 113.1 441.31 213.86 352.81 96.39 411.12 207.76 339.73 83.84 378.56 203.45 325.81 75.72 344.34 201.03 311.34 72.21 309.17 200.54 296.64 73.38 273.82 202 282.02 79.21 239.03 205.37 267.79 89.57 205.55 210.59 254.26 104.24 174.09 217.54 241.7 122.92 145.32 226.08 230.39 145.19 119.86 236.02 220.58 170.59 98.24 247.15 212.46 198.57 80.92 259.23 206.22 228.55 68.29 272 201.98 259.87 60.59 285.21 199.84 291.88 58.01 291.88 58.01 299.04 199.84 326.25 60.59 313.22 201.98 359.89 68.29 326.94 206.22 392.08 80.92 339.92 212.46 422.13 98.24 351.87 220.58 449.41 119.86 362.54 230.39 473.33 145.32 371.71 241.7 493.39 174.09 379.17 254.26 509.14 205.55 384.78 267.79 520.27 239.03 388.4 282.02 526.53 273.82 389.97 296.64 527.79 309.17 389.44 311.34 524.02 344.34 386.84 325.81 515.3 378.56 382.21 339.73 501.83 411.12 375.66 352.81 483.87 441.31 367.32 364.77 461.83 468.51 357.38 375.36 436.16 492.11 346.04 384.35 407.41 511.63 333.54 391.55 376.21 526.65 320.16 396.8 343.21 536.84 306.17 400 309.11 541.99 291.88 401.07"/>
</svg>